STARTFONT 2.3
FONT -FontForge-Roboto-Book-I-Normal--18-180-72-72-P-98-ISO10646-1
SIZE 18 72 72  2
FONTBOUNDINGBOX 34 24 -13 -5
COMMENT "Generated by fontforge, http://fontforge.sourceforge.net"
COMMENT "Copyright 2011 Google Inc. All Rights Reserved."
STARTPROPERTIES 43
FOUNDRY "FontForge"
FAMILY_NAME "Roboto"
WEIGHT_NAME "Book"
SLANT "I"
SETWIDTH_NAME "Normal"
ADD_STYLE_NAME ""
PIXEL_SIZE 18
POINT_SIZE 180
RESOLUTION_X 72
RESOLUTION_Y 72
SPACING "P"
AVERAGE_WIDTH 98
CHARSET_REGISTRY "ISO10646"
CHARSET_ENCODING "1"
FONTNAME_REGISTRY ""
CHARSET_COLLECTIONS "ISO8859-2 ISO8859-5 ISO8859-7 ISO8859-9 ISO8859-4 ISO10646-1"
BITS_PER_PIXEL 2
FONT_NAME "Roboto-Italic"
FACE_NAME "Roboto Italic"
COPYRIGHT "Copyright 2011 Google Inc. All Rights Reserved."
FONT_VERSION "2.137; 2017"
FONT_ASCENT 14
FONT_DESCENT 4
UNDERLINE_POSITION -2
UNDERLINE_THICKNESS 1
X_HEIGHT 9
CAP_HEIGHT 12
DEFAULT_CHAR 1
RAW_ASCENT 750
RAW_DESCENT 250
ITALIC_ANGLE 4992
NORM_SPACE 4
RELATIVE_WEIGHT 40
RELATIVE_SETWIDTH 50
SUPERSCRIPT_X 0
SUPERSCRIPT_Y 8
SUPERSCRIPT_SIZE 11
SUBSCRIPT_X 0
SUBSCRIPT_Y 2
SUBSCRIPT_SIZE 11
FIGURE_WIDTH 10
AVG_LOWERCASE_WIDTH 96
AVG_UPPERCASE_WIDTH 115
ENDPROPERTIES
CHARS 1296
STARTCHAR glyph1.dup1
ENCODING 0
SWIDTH 0 0
DWIDTH 0 0
BBX 1 1 0 0
BITMAP
00
ENDCHAR
STARTCHAR uni0002
ENCODING 2
SWIDTH 0 0
DWIDTH 0 0
BBX 1 1 0 0
BITMAP
00
ENDCHAR
STARTCHAR uni000D
ENCODING 13
SWIDTH 245 0
DWIDTH 4 0
BBX 1 1 0 0
BITMAP
00
ENDCHAR
STARTCHAR space
ENCODING 32
SWIDTH 245 0
DWIDTH 4 0
BBX 1 1 0 0
BITMAP
00
ENDCHAR
STARTCHAR exclam
ENCODING 33
SWIDTH 254 0
DWIDTH 5 0
BBX 5 13 0 0
BITMAP
0740
0B00
0B00
0E00
0E00
1D00
1C00
2C00
2800
0000
0000
2400
7400
ENDCHAR
STARTCHAR quotedbl
ENCODING 34
SWIDTH 314 0
DWIDTH 6 0
BBX 4 5 2 9
BITMAP
A7
96
DA
C9
8C
ENDCHAR
STARTCHAR numbersign
ENCODING 35
SWIDTH 602 0
DWIDTH 11 0
BBX 10 13 1 0
BITMAP
0034A0
0070D0
00A1C0
00D280
2FFFF0
179B50
070A00
0A0C00
FFFF80
6D7500
287000
34A000
70D000
ENDCHAR
STARTCHAR dollar
ENCODING 36
SWIDTH 549 0
DWIDTH 10 0
BBX 10 17 0 -2
BITMAP
000D00
001C00
00BE40
03D7C0
0B01D0
0A01D0
0B0000
079000
01F900
001F00
000780
740380
380740
2E6E00
0BF800
028000
014000
ENDCHAR
STARTCHAR percent
ENCODING 37
SWIDTH 715 0
DWIDTH 13 0
BBX 11 13 1 0
BITMAP
0B8000
28A060
3070D0
706280
35DA00
1F9C00
003400
00A6E0
028D24
071C28
0D1828
181D74
000BD0
ENDCHAR
STARTCHAR ampersand
ENCODING 38
SWIDTH 607 0
DWIDTH 11 0
BBX 10 13 0 0
BITMAP
00BE00
02D740
074280
074780
039E00
02F800
07E000
1E7470
382CB0
740FD0
740780
3D6FC0
0BF4E0
ENDCHAR
STARTCHAR quotesingle
ENCODING 39
SWIDTH 173 0
DWIDTH 3 0
BBX 3 4 1 10
BITMAP
34
34
70
60
ENDCHAR
STARTCHAR parenleft
ENCODING 40
SWIDTH 336 0
DWIDTH 6 0
BBX 6 18 1 -4
BITMAP
0060
01D0
0740
0E00
1D00
3800
7400
B000
B000
E000
E000
E000
E000
A000
7000
3400
1C00
0900
ENDCHAR
STARTCHAR parenright
ENCODING 41
SWIDTH 342 0
DWIDTH 6 0
BBX 6 18 -1 -4
BITMAP
0600
0340
01C0
00D0
00A0
00B0
00B0
00B0
00B0
00E0
00D0
01D0
02C0
0740
0B00
1D00
7400
9000
ENDCHAR
STARTCHAR asterisk
ENCODING 42
SWIDTH 422 0
DWIDTH 8 0
BBX 7 8 1 5
BITMAP
0280
0240
5358
BFF8
1F80
2E80
75D0
1040
ENDCHAR
STARTCHAR plus
ENCODING 43
SWIDTH 554 0
DWIDTH 10 0
BBX 9 10 1 1
BITMAP
009000
01D000
01D000
02C000
FFFF40
ABEA00
038000
074000
074000
060000
ENDCHAR
STARTCHAR comma
ENCODING 44
SWIDTH 195 0
DWIDTH 4 0
BBX 3 5 -1 -3
BITMAP
2C
2C
38
B0
90
ENDCHAR
STARTCHAR hyphen
ENCODING 45
SWIDTH 272 0
DWIDTH 5 0
BBX 5 2 0 4
BITMAP
BF80
5500
ENDCHAR
STARTCHAR period
ENCODING 46
SWIDTH 260 0
DWIDTH 5 0
BBX 3 2 0 0
BITMAP
74
74
ENDCHAR
STARTCHAR slash
ENCODING 47
SWIDTH 404 0
DWIDTH 7 0
BBX 9 14 -1 -1
BITMAP
000280
000740
000A00
001C00
003800
007000
00E000
01C000
034000
0B0000
0D0000
280000
740000
A00000
ENDCHAR
STARTCHAR zero
ENCODING 48
SWIDTH 549 0
DWIDTH 10 0
BBX 9 13 1 0
BITMAP
06F800
1F5E00
2C0700
740740
700740
B00740
A00B00
E00B00
E00E00
E00D00
A02C00
79B400
2F9000
ENDCHAR
STARTCHAR one
ENCODING 49
SWIDTH 549 0
DWIDTH 10 0
BBX 6 13 2 0
BITMAP
0190
1FD0
BAC0
42C0
0280
0380
0340
0740
0B00
0B00
0E00
0E00
1D00
ENDCHAR
STARTCHAR two
ENCODING 50
SWIDTH 549 0
DWIDTH 10 0
BBX 10 13 0 0
BITMAP
01BE00
0B9B80
1E02D0
1C01D0
0002C0
000740
001E00
007800
01E000
078000
1E0000
795540
BFFF40
ENDCHAR
STARTCHAR three
ENCODING 51
SWIDTH 549 0
DWIDTH 10 0
BBX 9 13 0 0
BITMAP
01BE00
0B9B80
0E02C0
1801C0
0002C0
000B40
01FD00
015E00
000740
600740
740B00
3D6E00
0BE400
ENDCHAR
STARTCHAR four
ENCODING 52
SWIDTH 549 0
DWIDTH 10 0
BBX 9 13 0 0
BITMAP
0003C0
000B80
002F80
007740
01D740
038700
0B0B00
1D0A00
780E00
BFFFC0
556D40
002C00
002C00
ENDCHAR
STARTCHAR five
ENCODING 53
SWIDTH 549 0
DWIDTH 10 0
BBX 9 13 1 0
BITMAP
0BFFC0
0EAA40
0D0000
1C0000
2EF400
3EBD00
000E00
000B00
000B00
900E00
A01D00
79B800
1BE000
ENDCHAR
STARTCHAR six
ENCODING 54
SWIDTH 549 0
DWIDTH 10 0
BBX 8 13 1 0
BITMAP
006D
03E4
0E00
2C00
3AF4
7E6D
B40E
A00A
E00A
E00E
B02D
79B8
1BD0
ENDCHAR
STARTCHAR seven
ENCODING 55
SWIDTH 549 0
DWIDTH 10 0
BBX 9 13 1 0
BITMAP
7FFFC0
155780
000740
000E00
002C00
007400
00B000
01D000
038000
0B4000
0E0000
2C0000
740000
ENDCHAR
STARTCHAR eight
ENCODING 56
SWIDTH 549 0
DWIDTH 10 0
BBX 10 13 0 0
BITMAP
01BE00
03D780
0B01D0
0E01D0
0E02C0
0B4780
03FD00
1E5F00
380340
740380
740740
3D6E00
0BF400
ENDCHAR
STARTCHAR nine
ENCODING 57
SWIDTH 549 0
DWIDTH 10 0
BBX 8 13 1 0
BITMAP
06F4
1E6D
380B
740B
B007
B007
740F
3D7E
1B9D
002C
0074
1BD0
3E00
ENDCHAR
STARTCHAR colon
ENCODING 58
SWIDTH 239 0
DWIDTH 4 0
BBX 4 10 0 0
BITMAP
0D
0D
00
00
00
00
00
00
74
70
ENDCHAR
STARTCHAR semicolon
ENCODING 59
SWIDTH 209 0
DWIDTH 4 0
BBX 5 13 -1 -3
BITMAP
0740
0740
0000
0000
0000
0000
0000
0000
1C00
2C00
3800
7400
A000
ENDCHAR
STARTCHAR less
ENCODING 60
SWIDTH 498 0
DWIDTH 9 0
BBX 9 8 0 2
BITMAP
000640
006F00
07E400
7E4000
7D0000
0BD000
01BC00
001800
ENDCHAR
STARTCHAR equal
ENCODING 61
SWIDTH 537 0
DWIDTH 10 0
BBX 8 6 1 3
BITMAP
7FFF
1555
0000
0000
FFFD
5554
ENDCHAR
STARTCHAR greater
ENCODING 62
SWIDTH 511 0
DWIDTH 9 0
BBX 9 8 0 2
BITMAP
190000
1F9000
01F900
001B40
006F40
06F400
7E4000
600000
ENDCHAR
STARTCHAR question
ENCODING 63
SWIDTH 462 0
DWIDTH 8 0
BBX 8 13 1 0
BITMAP
0BE4
2E7C
741D
101D
0038
00F4
03C0
0B00
0E00
0000
0000
1800
2800
ENDCHAR
STARTCHAR at
ENCODING 64
SWIDTH 875 0
DWIDTH 16 0
BBX 15 17 0 -4
BITMAP
0006FE00
007D56D0
01E00070
03400024
0A02F418
1C0E5C18
28281C1C
34342818
30703418
70A03024
70A0B070
70B6F190
702E2F40
34000000
1C000000
0B519000
01BF8000
ENDCHAR
STARTCHAR A
ENCODING 65
SWIDTH 637 0
DWIDTH 11 0
BBX 11 13 -1 0
BITMAP
000380
000BC0
000ED0
002CD0
0074E0
00B0A0
01D0B0
028070
07FFF4
0E5578
1D0028
38002C
74001C
ENDCHAR
STARTCHAR B
ENCODING 66
SWIDTH 608 0
DWIDTH 11 0
BBX 11 13 0 0
BITMAP
07FF80
0B56E0
0B00B4
0E0074
0E00B0
1E02D0
1FFF40
2D57C0
2C00E0
3800E0
3802D0
795B80
7FF900
ENDCHAR
STARTCHAR C
ENCODING 67
SWIDTH 636 0
DWIDTH 11 0
BBX 10 13 1 0
BITMAP
01BE40
0B96D0
1E00E0
3800B0
740010
B00000
B00000
E00000
E00040
B002C0
B40780
3E6E00
0BF800
ENDCHAR
STARTCHAR D
ENCODING 68
SWIDTH 641 0
DWIDTH 12 0
BBX 11 13 0 0
BITMAP
07FE40
0B56D0
0B00B0
0E0034
0E0038
1D0038
1D0038
2C0074
2C00B0
3800E0
3802C0
796F40
7FE800
ENDCHAR
STARTCHAR E
ENCODING 69
SWIDTH 556 0
DWIDTH 10 0
BBX 11 13 0 0
BITMAP
07FFF4
0B5550
0B0000
0E0000
0E0000
1E0000
1FFF80
2D5540
2C0000
380000
380000
795540
7FFF80
ENDCHAR
STARTCHAR F
ENCODING 70
SWIDTH 541 0
DWIDTH 10 0
BBX 11 13 0 0
BITMAP
07FFF4
0B5550
0B0000
0E0000
0E0000
1D0000
1FFF80
2D5500
2C0000
380000
380000
740000
740000
ENDCHAR
STARTCHAR G
ENCODING 71
SWIDTH 665 0
DWIDTH 12 0
BBX 11 13 1 0
BITMAP
01BE40
0B96D0
1E00B0
380074
740000
B00000
B00000
E02FE0
E015E0
B001D0
7402D0
2E5B80
0BF900
ENDCHAR
STARTCHAR H
ENCODING 72
SWIDTH 696 0
DWIDTH 13 0
BBX 13 13 0 0
BITMAP
07400740
0B000B00
0B000B00
0F000E00
0E000E00
1E001D00
1FFFFD00
2D556C00
2C002C00
38003800
38003800
74007400
74007000
ENDCHAR
STARTCHAR I
ENCODING 73
SWIDTH 268 0
DWIDTH 5 0
BBX 5 13 0 0
BITMAP
0740
0740
0B00
0B00
0E00
0E00
1D00
1D00
2C00
2C00
3800
3800
7400
ENDCHAR
STARTCHAR J
ENCODING 74
SWIDTH 540 0
DWIDTH 10 0
BBX 10 13 0 0
BITMAP
0000E0
0001D0
0001D0
0002C0
0002C0
000380
000380
000740
000740
A00B00
B01E00
79BC00
1BE000
ENDCHAR
STARTCHAR K
ENCODING 75
SWIDTH 612 0
DWIDTH 11 0
BBX 12 13 0 0
BITMAP
07402D
0B00B4
0B02D0
0E0B40
0E2D00
1DB400
1FF400
2E2C00
2C1D00
380B00
380780
7402C0
7400E0
ENDCHAR
STARTCHAR L
ENCODING 76
SWIDTH 526 0
DWIDTH 9 0
BBX 8 13 0 0
BITMAP
0740
0B00
0B00
0E00
0E00
1D00
1D00
2C00
2C00
3800
3800
7955
7FFF
ENDCHAR
STARTCHAR M
ENCODING 77
SWIDTH 851 0
DWIDTH 15 0
BBX 15 13 0 0
BITMAP
07C0007C
0BC000FC
0BD001F8
0EE003B8
0EA00B74
1DB00E74
1D742CB0
2C3474A0
2C38B0E0
3829D0D0
381F81D0
741F42C0
740E02C0
ENDCHAR
STARTCHAR N
ENCODING 78
SWIDTH 696 0
DWIDTH 13 0
BBX 13 13 0 0
BITMAP
07800740
0BC00B00
0BD00B00
0EB00E00
0E740E00
1D381D00
1D1D1D00
2C0E2C00
2C0B6C00
3803B800
3802F800
7401F400
7400B000
ENDCHAR
STARTCHAR O
ENCODING 79
SWIDTH 671 0
DWIDTH 12 0
BBX 11 13 1 0
BITMAP
01BE40
0BABD0
1E00F0
380070
740074
B00074
B00074
E000B0
E000E0
B001D0
740380
2E6F00
0BF800
ENDCHAR
STARTCHAR P
ENCODING 80
SWIDTH 616 0
DWIDTH 11 0
BBX 11 13 0 0
BITMAP
07FF90
0B55F4
0B0038
0E002C
0E002C
1E0038
1D01F4
2FFFD0
2D5500
3C0000
380000
740000
740000
ENDCHAR
STARTCHAR Q
ENCODING 81
SWIDTH 671 0
DWIDTH 12 0
BBX 11 15 1 -2
BITMAP
01BE40
0BABD0
1E00E0
3800B0
740074
B00074
E000B0
E000B0
E000E0
A001D0
B40780
3E6E00
0BFD00
000B40
000240
ENDCHAR
STARTCHAR R
ENCODING 82
SWIDTH 602 0
DWIDTH 11 0
BBX 11 13 0 0
BITMAP
07FF80
0B56F0
0B0074
0E0038
0E0074
1D01E0
1FFF80
2D5E00
2C0B00
380740
380380
7402C0
7401D0
ENDCHAR
STARTCHAR S
ENCODING 83
SWIDTH 580 0
DWIDTH 10 0
BBX 11 13 0 0
BITMAP
01BF40
07E6E0
0F00B4
0E0074
0E0000
0BD000
01FE00
001B80
0002D0
B001D0
7402C0
2E5B40
0BF900
ENDCHAR
STARTCHAR T
ENCODING 84
SWIDTH 583 0
DWIDTH 11 0
BBX 11 13 1 0
BITMAP
7FFFF4
55B550
00B000
00E000
00E000
01D000
01D000
02C000
02C000
038000
038000
074000
074000
ENDCHAR
STARTCHAR U
ENCODING 85
SWIDTH 633 0
DWIDTH 11 0
BBX 11 13 1 0
BITMAP
2C0074
2C0074
3800B0
3800B0
7400E0
7400E0
B001D0
B001D0
E002C0
E003C0
B00740
7D6E00
1BE400
ENDCHAR
STARTCHAR V
ENCODING 86
SWIDTH 622 0
DWIDTH 11 0
BBX 11 13 1 0
BITMAP
74003C
740074
3800E0
3801D0
2C0380
1C0740
1D0E00
0D1D00
0E3800
0B7400
07E000
07D000
038000
ENDCHAR
STARTCHAR W
ENCODING 87
SWIDTH 865 0
DWIDTH 16 0
BBX 15 13 1 0
BITMAP
7403802C
7407C038
340BC074
381EC0B0
382DD0E0
3834D1D0
2870D280
28E0A340
2DD0AB00
2E80AE00
1F407D00
1F007C00
1D007800
ENDCHAR
STARTCHAR X
ENCODING 88
SWIDTH 612 0
DWIDTH 11 0
BBX 12 13 0 0
BITMAP
0F002D
0B4074
0381E0
02C3C0
00EB40
00BD00
007800
01FC00
03DE00
0B4B00
1D0740
7803C0
F001D0
ENDCHAR
STARTCHAR Y
ENCODING 89
SWIDTH 587 0
DWIDTH 11 0
BBX 11 13 1 0
BITMAP
7400B4
3801E0
2C03C0
1D0B40
0E1E00
0B3800
07F400
03D000
02C000
038000
038000
074000
074000
ENDCHAR
STARTCHAR Z
ENCODING 90
SWIDTH 585 0
DWIDTH 11 0
BBX 11 13 0 0
BITMAP
0FFFF8
0555B4
0001E0
000780
000F00
002D00
00B400
02D000
078000
1E0000
3C0000
B95540
FFFFC0
ENDCHAR
STARTCHAR bracketleft
ENCODING 91
SWIDTH 262 0
DWIDTH 5 0
BBX 6 18 0 -3
BITMAP
07F0
0B50
0B00
0A00
0E00
0D00
1D00
1D00
2C00
2C00
3800
3800
7400
7400
7000
B000
B400
FD00
ENDCHAR
STARTCHAR backslash
ENCODING 92
SWIDTH 402 0
DWIDTH 7 0
BBX 5 14 1 -1
BITMAP
7400
3400
3800
2800
1C00
1D00
0D00
0E00
0A00
0700
0740
0340
0380
0280
ENDCHAR
STARTCHAR bracketright
ENCODING 93
SWIDTH 262 0
DWIDTH 5 0
BBX 6 18 -1 -3
BITMAP
0BE0
05E0
01D0
01D0
02C0
02C0
0280
0380
0340
0740
0740
0B00
0B00
0E00
0E00
0D00
6D00
FC00
ENDCHAR
STARTCHAR asciicircum
ENCODING 94
SWIDTH 410 0
DWIDTH 7 0
BBX 6 6 1 7
BITMAP
0380
0B80
1EC0
28D0
74E0
E0A0
ENDCHAR
STARTCHAR underscore
ENCODING 95
SWIDTH 442 0
DWIDTH 8 0
BBX 8 2 -1 -2
BITMAP
FFFF
5555
ENDCHAR
STARTCHAR grave
ENCODING 96
SWIDTH 304 0
DWIDTH 5 0
BBX 3 3 2 11
BITMAP
F0
74
28
ENDCHAR
STARTCHAR a
ENCODING 97
SWIDTH 532 0
DWIDTH 10 0
BBX 9 10 0 0
BITMAP
02F900
0F5B00
1D0740
000740
06FF40
2D4B00
740B00
741E00
79BE00
1F9E00
ENDCHAR
STARTCHAR b
ENCODING 98
SWIDTH 549 0
DWIDTH 10 0
BBX 9 14 0 0
BITMAP
070000
0B0000
0A0000
0E0000
0DBE00
1F9B40
1D0380
2C02C0
2802C0
380280
340380
780B40
7E6E00
B6F400
ENDCHAR
STARTCHAR c
ENCODING 99
SWIDTH 512 0
DWIDTH 9 0
BBX 9 10 0 0
BITMAP
02F900
0B9B40
2D0380
380140
340000
740000
740100
380B00
2E6D00
0BE400
ENDCHAR
STARTCHAR d
ENCODING 100
SWIDTH 551 0
DWIDTH 10 0
BBX 10 14 0 0
BITMAP
0000B0
0000A0
0000E0
0001D0
02F9D0
0F9BC0
2D03C0
380380
340380
740740
740740
380B00
2E6F00
0BEA00
ENDCHAR
STARTCHAR e
ENCODING 101
SWIDTH 518 0
DWIDTH 9 0
BBX 9 10 0 0
BITMAP
01F900
0B9B00
1D0340
380380
3FFF80
795540
740000
380100
1E6E00
07F400
ENDCHAR
STARTCHAR f
ENCODING 102
SWIDTH 341 0
DWIDTH 6 0
BBX 7 14 1 0
BITMAP
02F4
0B90
0E00
1D00
FFD0
6D40
2C00
3800
3800
7400
7400
B000
B000
E000
ENDCHAR
STARTCHAR g
ENCODING 103
SWIDTH 549 0
DWIDTH 10 0
BBX 10 14 0 -4
BITMAP
02F9D0
0F9BC0
2D03C0
380280
340380
740340
740740
380B00
2E6F00
0BEA00
000E00
502D00
B9B800
2FD000
ENDCHAR
STARTCHAR h
ENCODING 104
SWIDTH 539 0
DWIDTH 10 0
BBX 9 14 0 0
BITMAP
070000
0B0000
0A0000
0E0000
0DBE00
1F9B40
1D0380
2C0380
280340
380740
340700
740B00
700A00
B00E00
ENDCHAR
STARTCHAR i
ENCODING 105
SWIDTH 240 0
DWIDTH 4 0
BBX 4 14 0 0
BITMAP
06
07
00
00
0E
1D
1D
2C
2C
38
38
74
74
B0
ENDCHAR
STARTCHAR j
ENCODING 106
SWIDTH 236 0
DWIDTH 4 0
BBX 6 18 -2 -4
BITMAP
0060
00A0
0000
0000
00D0
01D0
01C0
02C0
02C0
0380
0380
0740
0740
0B00
0B00
0E00
6D00
F800
ENDCHAR
STARTCHAR k
ENCODING 107
SWIDTH 496 0
DWIDTH 9 0
BBX 9 14 0 0
BITMAP
070000
0B0000
0A0000
0E0000
0D0780
1D1E00
1C7800
2DE000
2FC000
3DE000
34B000
743800
702C00
B00E00
ENDCHAR
STARTCHAR l
ENCODING 108
SWIDTH 240 0
DWIDTH 4 0
BBX 5 14 0 0
BITMAP
0740
0B00
0B00
0E00
0E00
1D00
1D00
2C00
2C00
3800
3800
7400
7400
B000
ENDCHAR
STARTCHAR m
ENCODING 109
SWIDTH 854 0
DWIDTH 15 0
BBX 15 10 0 0
BITMAP
0DBE1B90
1F9BB5F0
1D03C074
2C038074
28074070
380740B0
340B00A0
740B00E0
700A00D0
B00E01D0
ENDCHAR
STARTCHAR n
ENCODING 110
SWIDTH 540 0
DWIDTH 10 0
BBX 9 10 0 0
BITMAP
0DBE00
1F9B40
1D0380
2C0380
280340
380740
340700
740B00
700A00
B00E00
ENDCHAR
STARTCHAR o
ENCODING 111
SWIDTH 558 0
DWIDTH 10 0
BBX 9 10 0 0
BITMAP
01FD00
0B9B40
1D02C0
3801C0
3401C0
7402C0
740380
380740
1E6E00
07F400
ENDCHAR
STARTCHAR p
ENCODING 112
SWIDTH 549 0
DWIDTH 10 0
BBX 10 14 -1 -4
BITMAP
036F40
07E6D0
0740E0
0B00B0
0A00B0
0E00A0
0D00E0
1D02C0
1F5B80
2DBD00
280000
380000
340000
740000
ENDCHAR
STARTCHAR q
ENCODING 113
SWIDTH 556 0
DWIDTH 10 0
BBX 10 14 0 -4
BITMAP
02F9D0
0F9BC0
2D02C0
380280
340380
740340
740740
380B00
2E6F00
0BEA00
000E00
000D00
001D00
001C00
ENDCHAR
STARTCHAR r
ENCODING 114
SWIDTH 333 0
DWIDTH 6 0
BBX 7 10 0 0
BITMAP
0EB4
1FA0
1D00
2C00
2800
3800
3400
7400
7000
B000
ENDCHAR
STARTCHAR s
ENCODING 115
SWIDTH 504 0
DWIDTH 9 0
BBX 9 10 0 0
BITMAP
02F800
0F5F00
2C0740
1D0000
0B9000
01BD00
000E00
740E00
3D6D00
1BE400
ENDCHAR
STARTCHAR t
ENCODING 116
SWIDTH 321 0
DWIDTH 6 0
BBX 6 12 0 0
BITMAP
0740
0700
7FE0
1F40
0E00
0D00
1D00
1D00
2C00
2C00
2D00
0F40
ENDCHAR
STARTCHAR u
ENCODING 117
SWIDTH 539 0
DWIDTH 10 0
BBX 9 10 1 0
BITMAP
340740
740B00
740B00
B00E00
B00E00
E01D00
E01D00
E02C00
B5BC00
2FB800
ENDCHAR
STARTCHAR v
ENCODING 118
SWIDTH 474 0
DWIDTH 9 0
BBX 8 10 1 0
BITMAP
E00E
A02C
B038
7070
74E0
35D0
2A80
2F40
1E00
1D00
ENDCHAR
STARTCHAR w
ENCODING 119
SWIDTH 733 0
DWIDTH 13 0
BBX 13 10 1 0
BITMAP
A02C0740
A03C0A00
B0BD0D00
B0DD2C00
71CD3800
734A7000
770AA000
3E07D000
3C078000
38074000
ENDCHAR
STARTCHAR x
ENCODING 120
SWIDTH 485 0
DWIDTH 9 0
BBX 10 10 -1 0
BITMAP
0B01E0
034380
02CB00
01ED00
00B400
00F400
02E800
0B5D00
1D0E00
780B40
ENDCHAR
STARTCHAR y
ENCODING 121
SWIDTH 463 0
DWIDTH 8 0
BBX 10 14 -1 -4
BITMAP
0E01E0
0B02C0
0B0380
070B00
074E00
035C00
03B800
02F400
02E000
01D000
028000
074000
6E0000
B80000
ENDCHAR
STARTCHAR z
ENCODING 122
SWIDTH 485 0
DWIDTH 9 0
BBX 9 10 0 0
BITMAP
2FFF40
155F00
002D00
00B400
01E000
078000
0F0000
3C0000
B95400
FFFD00
ENDCHAR
STARTCHAR braceleft
ENCODING 123
SWIDTH 333 0
DWIDTH 6 0
BBX 7 17 0 -3
BITMAP
0028
00E0
02C0
0380
0380
0740
1B00
7800
2C00
0D00
0D00
1D00
1D00
1D00
0D00
0B00
0240
ENDCHAR
STARTCHAR bar
ENCODING 124
SWIDTH 241 0
DWIDTH 4 0
BBX 4 15 0 -2
BITMAP
07
0A
0A
0D
0D
1C
1C
28
28
34
34
30
70
60
A0
ENDCHAR
STARTCHAR braceright
ENCODING 125
SWIDTH 333 0
DWIDTH 6 0
BBX 7 17 -1 -3
BITMAP
0600
0280
01D0
01D0
01C0
02C0
01D0
00B4
02E0
0740
0700
0B00
0B00
0E00
1D00
7800
9000
ENDCHAR
STARTCHAR asciitilde
ENCODING 126
SWIDTH 664 0
DWIDTH 12 0
BBX 10 4 1 3
BITMAP
2F8060
BAE0E0
D07F80
000500
ENDCHAR
STARTCHAR uni00A0
ENCODING 160
SWIDTH 245 0
DWIDTH 4 0
BBX 1 1 0 0
BITMAP
00
ENDCHAR
STARTCHAR exclamdown
ENCODING 161
SWIDTH 241 0
DWIDTH 4 0
BBX 4 13 0 -3
BITMAP
0D
09
00
00
2C
28
38
34
74
70
B0
E0
E0
ENDCHAR
STARTCHAR cent
ENCODING 162
SWIDTH 535 0
DWIDTH 10 0
BBX 9 14 0 -2
BITMAP
003800
003800
01FD00
0B5B40
1D0280
280140
380000
740000
740000
380B00
2D6D00
0BE400
038000
038000
ENDCHAR
STARTCHAR sterling
ENCODING 163
SWIDTH 568 0
DWIDTH 10 0
BBX 10 13 0 0
BITMAP
006F80
01E6E0
0380B0
074050
074000
0B0000
3FF800
1F5400
0E0000
0E0000
1D0000
7D5540
FFFF80
ENDCHAR
STARTCHAR currency
ENCODING 164
SWIDTH 696 0
DWIDTH 13 0
BBX 12 11 0 0
BITMAP
0A6F97
0BEAFE
0B403C
0D001D
2C000D
28001D
28001C
2C0038
2D00B0
7FABF8
62FE24
ENDCHAR
STARTCHAR yen
ENCODING 165
SWIDTH 514 0
DWIDTH 9 0
BBX 10 13 0 0
BITMAP
1D00B0
0E01D0
0B0380
074B00
035D00
02B800
3FFF40
01D000
01D000
7FFE00
02C000
038000
038000
ENDCHAR
STARTCHAR brokenbar
ENCODING 166
SWIDTH 237 0
DWIDTH 4 0
BBX 4 15 0 -2
BITMAP
0B
0B
0E
0E
1D
1D
2C
00
00
38
34
74
B0
A0
E0
ENDCHAR
STARTCHAR section
ENCODING 167
SWIDTH 599 0
DWIDTH 11 0
BBX 12 17 -1 -4
BITMAP
006FE0
01F5B8
02C02D
038019
02D000
01F900
07ABD0
0E01B4
1D0038
0F4074
07F9E0
006F80
0002D0
6401D0
3802C0
2E5B80
06F900
ENDCHAR
STARTCHAR dieresis
ENCODING 168
SWIDTH 410 0
DWIDTH 7 0
BBX 6 2 2 11
BITMAP
A090
E1D0
ENDCHAR
STARTCHAR copyright
ENCODING 169
SWIDTH 767 0
DWIDTH 14 0
BBX 12 13 1 0
BITMAP
006F90
079074
1D000D
347E46
61D683
928043
C34003
C34143
D2974A
A0BD1C
340074
1D06D0
06FE00
ENDCHAR
STARTCHAR ordfeminine
ENCODING 170
SWIDTH 438 0
DWIDTH 8 0
BBX 7 7 1 6
BITMAP
0BE0
1D74
0034
1BF4
3870
75B0
2FB0
ENDCHAR
STARTCHAR guillemotleft
ENCODING 171
SWIDTH 459 0
DWIDTH 8 0
BBX 7 7 1 1
BITMAP
0A28
1CA0
76C0
D740
A380
35C0
2890
ENDCHAR
STARTCHAR logicalnot
ENCODING 172
SWIDTH 541 0
DWIDTH 10 0
BBX 8 4 1 3
BITMAP
BFFD
556D
002C
002C
ENDCHAR
STARTCHAR uni00AD
ENCODING 173
SWIDTH 272 0
DWIDTH 5 0
BBX 5 2 0 4
BITMAP
BF80
5500
ENDCHAR
STARTCHAR registered
ENCODING 174
SWIDTH 767 0
DWIDTH 14 0
BBX 12 13 1 0
BITMAP
006F90
079078
1D000D
34FE46
60D1C3
91C283
C1FF03
C28743
C2834A
93435C
300074
1D06D0
06FE00
ENDCHAR
STARTCHAR macron
ENCODING 175
SWIDTH 449 0
DWIDTH 8 0
BBX 6 2 2 11
BITMAP
BFF0
5550
ENDCHAR
STARTCHAR degree
ENCODING 176
SWIDTH 367 0
DWIDTH 7 0
BBX 5 4 2 9
BITMAP
2E00
A340
D340
7E00
ENDCHAR
STARTCHAR plusminus
ENCODING 177
SWIDTH 522 0
DWIDTH 9 0
BBX 9 12 0 0
BITMAP
002400
003400
007000
007000
3FFFC0
15E540
00E000
00D000
01D000
004000
555500
BFFE00
ENDCHAR
STARTCHAR uni00B2
ENCODING 178
SWIDTH 360 0
DWIDTH 6 0
BBX 6 7 1 6
BITMAP
1F80
75D0
11D0
0780
1E00
7400
FFC0
ENDCHAR
STARTCHAR uni00B3
ENCODING 179
SWIDTH 360 0
DWIDTH 6 0
BBX 6 7 1 6
BITMAP
2F80
15D0
0F80
01C0
01C0
E680
7E00
ENDCHAR
STARTCHAR acute
ENCODING 180
SWIDTH 309 0
DWIDTH 6 0
BBX 4 3 2 11
BITMAP
1E
78
A0
ENDCHAR
STARTCHAR mu
ENCODING 181
SWIDTH 554 0
DWIDTH 10 0
BBX 10 14 0 -4
BITMAP
0E01D0
1D02C0
1D02C0
2C0380
2C0380
380740
380740
780B00
7E6F00
BBEA00
B00000
A00000
E00000
D00000
ENDCHAR
STARTCHAR paragraph
ENCODING 182
SWIDTH 479 0
DWIDTH 9 0
BBX 8 13 1 0
BITMAP
06FD
2FFD
7FFC
BFFC
BFF8
BFF8
7FF4
2FF4
01B0
00B0
00E0
00E0
01D0
ENDCHAR
STARTCHAR periodcentered
ENCODING 183
SWIDTH 257 0
DWIDTH 5 0
BBX 3 2 1 5
BITMAP
74
74
ENDCHAR
STARTCHAR cedilla
ENCODING 184
SWIDTH 245 0
DWIDTH 4 0
BBX 4 4 -1 -4
BITMAP
38
1D
1D
74
ENDCHAR
STARTCHAR uni00B9
ENCODING 185
SWIDTH 360 0
DWIDTH 6 0
BBX 4 7 2 6
BITMAP
19
FD
1C
1C
28
28
34
ENDCHAR
STARTCHAR ordmasculine
ENCODING 186
SWIDTH 445 0
DWIDTH 8 0
BBX 6 7 2 6
BITMAP
2F80
B5D0
D0A0
D0A0
D0D0
E6C0
6E40
ENDCHAR
STARTCHAR guillemotright
ENCODING 187
SWIDTH 459 0
DWIDTH 8 0
BBX 8 7 0 1
BITMAP
1860
0D34
071C
035D
0A38
28A0
7280
ENDCHAR
STARTCHAR onequarter
ENCODING 188
SWIDTH 715 0
DWIDTH 13 0
BBX 11 13 1 0
BITMAP
1B0000
7F0060
0A00D0
0A0340
0D0A00
0D1C00
1C3474
0091F4
028770
071D70
0D3FF8
1400E0
0000D0
ENDCHAR
STARTCHAR onehalf
ENCODING 189
SWIDTH 757 0
DWIDTH 14 0
BBX 12 13 1 0
BITMAP
1B0000
7F0090
0A0280
0A0700
0D0D00
0D2800
1CA2F8
01C75D
03451C
0A0078
2801D0
200B40
001FF8
ENDCHAR
STARTCHAR threequarters
ENCODING 190
SWIDTH 759 0
DWIDTH 14 0
BBX 12 13 1 0
BITMAP
1BD000
29B018
00A034
0BC0A0
00D280
75D700
2F8D2D
0028BC
00A1EC
01C628
034FFD
060074
000074
ENDCHAR
STARTCHAR questiondown
ENCODING 191
SWIDTH 463 0
DWIDTH 8 0
BBX 8 13 -1 -3
BITMAP
0038
0024
0000
0000
00B0
00E0
07C0
0E00
2C00
7404
741D
3DBC
1BE0
ENDCHAR
STARTCHAR Agrave
ENCODING 192
SWIDTH 637 0
DWIDTH 11 0
BBX 11 17 -1 0
BITMAP
000B00
000380
000180
000000
000380
000BC0
000ED0
002CD0
0074E0
00B0A0
01D0B0
028070
07FFF4
0E5578
1D0028
38002C
74001C
ENDCHAR
STARTCHAR Aacute
ENCODING 193
SWIDTH 637 0
DWIDTH 11 0
BBX 11 17 -1 0
BITMAP
000038
0000F0
0001D0
000000
000380
000BC0
000ED0
002CD0
0074E0
00B0A0
01D0B0
028070
07FFF4
0E5578
1D0028
38002C
74001C
ENDCHAR
STARTCHAR Acircumflex
ENCODING 194
SWIDTH 637 0
DWIDTH 11 0
BBX 11 17 -1 0
BITMAP
0002D0
000B74
001D28
000000
000380
000BC0
000ED0
002CD0
0074E0
00B0A0
01D0B0
028070
07FFF4
0E5578
1D0028
38002C
74001C
ENDCHAR
STARTCHAR Atilde
ENCODING 195
SWIDTH 637 0
DWIDTH 11 0
BBX 12 17 -1 0
BITMAP
000004
001F9D
0028B8
000000
000380
000BC0
000ED0
002CD0
0074E0
00B0A0
01D0B0
028070
07FFF4
0E5578
1D0028
38002C
74001C
ENDCHAR
STARTCHAR Adieresis
ENCODING 196
SWIDTH 637 0
DWIDTH 11 0
BBX 11 16 -1 0
BITMAP
000918
001D2C
000000
000380
000BC0
000ED0
002CD0
0074E0
00B0A0
01D0B0
028070
07FFF4
0E5578
1D0028
38002C
74001C
ENDCHAR
STARTCHAR Aring
ENCODING 197
SWIDTH 637 0
DWIDTH 11 0
BBX 11 18 -1 0
BITMAP
0002E0
000624
000624
0002E0
000000
000380
000BC0
000ED0
002CD0
0074E0
00B0A0
01D0B0
028070
07FFF4
0E5578
1D0028
38002C
74001C
ENDCHAR
STARTCHAR AE
ENCODING 198
SWIDTH 911 0
DWIDTH 16 0
BBX 18 13 -1 0
BITMAP
00002FFFE0
00007E5550
0001EE0000
00039D0000
000B1D0000
001D1D0000
00742FFF00
00E02D5500
02FFF80000
07AAB80000
1E00340000
3C00795500
B4007FFF40
ENDCHAR
STARTCHAR Ccedilla
ENCODING 199
SWIDTH 636 0
DWIDTH 11 0
BBX 10 17 1 -4
BITMAP
01BE40
0B96D0
1E00E0
3800B0
740010
B00000
B00000
E00000
E00040
B002C0
B40780
3E6E00
0BF800
038000
01D000
01D000
0B4000
ENDCHAR
STARTCHAR Egrave
ENCODING 200
SWIDTH 556 0
DWIDTH 10 0
BBX 11 17 0 0
BITMAP
003800
002C00
000900
000000
07FFF4
0B5550
0B0000
0E0000
0E0000
1E0000
1FFF80
2D5540
2C0000
380000
380000
795540
7FFF80
ENDCHAR
STARTCHAR Eacute
ENCODING 201
SWIDTH 556 0
DWIDTH 10 0
BBX 11 17 0 0
BITMAP
0002D0
000780
000A00
000000
07FFF4
0B5550
0B0000
0E0000
0E0000
1E0000
1FFF80
2D5540
2C0000
380000
380000
795540
7FFF80
ENDCHAR
STARTCHAR Ecircumflex
ENCODING 202
SWIDTH 556 0
DWIDTH 10 0
BBX 11 17 0 0
BITMAP
000B00
007AC0
00B0D0
000000
07FFF4
0B5550
0B0000
0E0000
0E0000
1E0000
1FFF80
2D5540
2C0000
380000
380000
795540
7FFF80
ENDCHAR
STARTCHAR Edieresis
ENCODING 203
SWIDTH 556 0
DWIDTH 10 0
BBX 11 16 0 0
BITMAP
006090
00A0E0
000000
07FFF4
0B5550
0B0000
0E0000
0E0000
1E0000
1FFF80
2D5540
2C0000
380000
380000
795540
7FFF80
ENDCHAR
STARTCHAR Igrave
ENCODING 204
SWIDTH 268 0
DWIDTH 5 0
BBX 5 17 0 0
BITMAP
0E00
0740
0240
0000
0740
0740
0B00
0B00
0E00
0E00
1D00
1D00
2C00
2C00
3800
3800
7400
ENDCHAR
STARTCHAR Iacute
ENCODING 205
SWIDTH 268 0
DWIDTH 5 0
BBX 7 17 0 0
BITMAP
0078
01E0
0280
0000
0740
0740
0B00
0B00
0E00
0E00
1D00
1D00
2C00
2C00
3800
3800
7400
ENDCHAR
STARTCHAR Icircumflex
ENCODING 206
SWIDTH 268 0
DWIDTH 5 0
BBX 7 17 0 0
BITMAP
02D0
1EB0
2C34
0000
0740
0740
0B00
0B00
0E00
0E00
1D00
1D00
2C00
2C00
3800
3800
7400
ENDCHAR
STARTCHAR Idieresis
ENCODING 207
SWIDTH 268 0
DWIDTH 5 0
BBX 7 16 0 0
BITMAP
1824
2C38
0000
0740
0740
0B00
0B00
0E00
0E00
1D00
1D00
2C00
2C00
3800
3800
7400
ENDCHAR
STARTCHAR Eth
ENCODING 208
SWIDTH 655 0
DWIDTH 12 0
BBX 11 13 0 0
BITMAP
03FE40
0796E0
074074
0B0038
0B002C
0E002C
BFE02C
6E5038
1D0074
2C00B0
2C02D0
396F40
3FF900
ENDCHAR
STARTCHAR Ntilde
ENCODING 209
SWIDTH 696 0
DWIDTH 13 0
BBX 13 17 0 0
BITMAP
00040400
002F6800
0071F400
00000000
07800740
0BC00B00
0BD00B00
0EB00E00
0E740E00
1D381D00
1D1D1D00
2C0E2C00
2C0B6C00
3803B800
3802F800
7401F400
7400B000
ENDCHAR
STARTCHAR Ograve
ENCODING 210
SWIDTH 671 0
DWIDTH 12 0
BBX 11 17 1 0
BITMAP
007400
002C00
001800
000000
01BE40
0BABD0
1E00F0
380070
740074
B00074
B00074
E000B0
E000E0
B001D0
740380
2E6F00
0BF800
ENDCHAR
STARTCHAR Oacute
ENCODING 211
SWIDTH 671 0
DWIDTH 12 0
BBX 11 17 1 0
BITMAP
0002D0
000B40
000D00
000000
01BE40
0BABD0
1E00F0
380070
740074
B00074
B00074
E000B0
E000E0
B001D0
740380
2E6F00
0BF800
ENDCHAR
STARTCHAR Ocircumflex
ENCODING 212
SWIDTH 671 0
DWIDTH 12 0
BBX 11 17 1 0
BITMAP
001E00
007780
00E1C0
000000
01BE40
0BABD0
1E00F0
380070
740074
B00074
B00074
E000B0
E000E0
B001D0
740380
2E6F00
0BF800
ENDCHAR
STARTCHAR Otilde
ENCODING 213
SWIDTH 671 0
DWIDTH 12 0
BBX 11 17 1 0
BITMAP
001010
00F9A0
018780
000000
01BE40
0BABD0
1E00F0
380070
740074
B00074
B00074
E000B0
E000E0
B001D0
740380
2E6F00
0BF800
ENDCHAR
STARTCHAR Odieresis
ENCODING 214
SWIDTH 671 0
DWIDTH 12 0
BBX 11 16 1 0
BITMAP
009190
00E1D0
000000
01BE40
0BABD0
1E00F0
380070
740074
B00074
B00074
E000B0
E000E0
B001D0
740380
2E6F00
0BF800
ENDCHAR
STARTCHAR multiply
ENCODING 215
SWIDTH 521 0
DWIDTH 9 0
BBX 9 8 0 2
BITMAP
080180
1E0B80
07AD00
02F400
03F000
1F7800
7C1E00
600500
ENDCHAR
STARTCHAR Oslash
ENCODING 216
SWIDTH 671 0
DWIDTH 12 0
BBX 12 15 0 -1
BITMAP
000001
006F97
02EABD
07803C
0E00AD
1D029D
2C071D
2C0D1D
38342C
38A038
298074
2F01E0
1F9B80
2AFD00
600000
ENDCHAR
STARTCHAR Ugrave
ENCODING 217
SWIDTH 633 0
DWIDTH 11 0
BBX 11 17 1 0
BITMAP
00B000
007800
002800
000000
2C0074
2C0074
3800B0
3800B0
7400E0
7400E0
B001D0
B001D0
E002C0
E003C0
B00740
7D6E00
1BE400
ENDCHAR
STARTCHAR Uacute
ENCODING 218
SWIDTH 633 0
DWIDTH 11 0
BBX 11 17 1 0
BITMAP
000780
000F00
001C00
000000
2C0074
2C0074
3800B0
3800B0
7400E0
7400E0
B001D0
B001D0
E002C0
E003C0
B00740
7D6E00
1BE400
ENDCHAR
STARTCHAR Ucircumflex
ENCODING 219
SWIDTH 633 0
DWIDTH 11 0
BBX 11 17 1 0
BITMAP
002D00
00B740
01D280
000000
2C0074
2C0074
3800B0
3800B0
7400E0
7400E0
B001D0
B001D0
E002C0
E003C0
B00740
7D6E00
1BE400
ENDCHAR
STARTCHAR Udieresis
ENCODING 220
SWIDTH 633 0
DWIDTH 11 0
BBX 11 16 1 0
BITMAP
019180
01D2C0
000000
2C0074
2C0074
3800B0
3800B0
7400E0
7400E0
B001D0
B001D0
E002C0
E003C0
B00740
7D6E00
1BE400
ENDCHAR
STARTCHAR Yacute
ENCODING 221
SWIDTH 587 0
DWIDTH 11 0
BBX 11 17 1 0
BITMAP
000B40
001E00
002800
000000
7400B4
3801E0
2C03C0
1D0B40
0E1E00
0B3800
07F400
03D000
02C000
038000
038000
074000
074000
ENDCHAR
STARTCHAR Thorn
ENCODING 222
SWIDTH 578 0
DWIDTH 10 0
BBX 10 13 0 0
BITMAP
074000
0B0000
0B0000
0FFE40
0E56D0
1D00E0
1D00E0
2C01D0
2D5B80
3FF900
340000
740000
740000
ENDCHAR
STARTCHAR germandbls
ENCODING 223
SWIDTH 581 0
DWIDTH 10 0
BBX 9 14 0 0
BITMAP
01BD00
039B40
0B0380
0E0340
0D0B00
1D1D00
1C2C00
2C1D00
280A00
380380
3401C0
7402C0
729B80
B2FE00
ENDCHAR
STARTCHAR agrave
ENCODING 224
SWIDTH 532 0
DWIDTH 10 0
BBX 9 14 0 0
BITMAP
00E000
007400
002400
000000
02F900
0F5B00
1D0740
000740
06FF40
2D4B00
740B00
741E00
79BE00
1F9E00
ENDCHAR
STARTCHAR aacute
ENCODING 225
SWIDTH 532 0
DWIDTH 10 0
BBX 9 14 0 0
BITMAP
000780
001E00
002800
000000
02F900
0F5B00
1D0740
000740
06FF40
2D4B00
740B00
741E00
79BE00
1F9E00
ENDCHAR
STARTCHAR acircumflex
ENCODING 226
SWIDTH 532 0
DWIDTH 10 0
BBX 9 14 0 0
BITMAP
002D00
00FB40
02C380
000000
02F900
0F5B00
1D0740
000740
06FF40
2D4B00
740B00
741E00
79BE00
1F9E00
ENDCHAR
STARTCHAR atilde
ENCODING 227
SWIDTH 532 0
DWIDTH 10 0
BBX 9 14 0 0
BITMAP
000040
01F9C0
034B40
000000
02F900
0F5B00
1D0740
000740
06FF40
2D4B00
740B00
741E00
79BE00
1F9E00
ENDCHAR
STARTCHAR adieresis
ENCODING 228
SWIDTH 532 0
DWIDTH 10 0
BBX 9 13 0 0
BITMAP
018280
01C280
000000
02F900
0F5B00
1D0740
000740
06FF40
2D4B00
740B00
741E00
79BE00
1F9E00
ENDCHAR
STARTCHAR aring
ENCODING 229
SWIDTH 532 0
DWIDTH 10 0
BBX 9 15 0 0
BITMAP
002D00
006300
009300
002D00
000000
02F900
0F5B00
1D0740
000740
06FF40
2D4B00
740B00
741E00
79BE00
1F9E00
ENDCHAR
STARTCHAR ae
ENCODING 230
SWIDTH 823 0
DWIDTH 15 0
BBX 15 10 0 0
BITMAP
06F92F80
1E5FE5E0
2C078070
00074074
1BFFFFF0
7D5F5550
B00F0000
B01F4000
79BBD6C0
2F91BE40
ENDCHAR
STARTCHAR ccedilla
ENCODING 231
SWIDTH 512 0
DWIDTH 9 0
BBX 9 14 0 -4
BITMAP
02F900
0B9B40
2D0380
380140
340000
740000
740100
380B00
2E6D00
0BE400
034000
01C000
01C000
0A4000
ENDCHAR
STARTCHAR egrave
ENCODING 232
SWIDTH 518 0
DWIDTH 9 0
BBX 9 14 0 0
BITMAP
01E000
00B000
002400
000000
01F900
0B9B00
1D0340
380380
3FFF80
795540
740000
380100
1E6E00
07F400
ENDCHAR
STARTCHAR eacute
ENCODING 233
SWIDTH 518 0
DWIDTH 9 0
BBX 9 14 0 0
BITMAP
000B40
001E00
002800
000000
01F900
0B9B00
1D0340
380380
3FFF80
795540
740000
380100
1E6E00
07F400
ENDCHAR
STARTCHAR ecircumflex
ENCODING 234
SWIDTH 518 0
DWIDTH 9 0
BBX 9 14 0 0
BITMAP
003C00
01EA00
038740
000000
01F900
0B9B00
1D0340
380380
3FFF80
795540
740000
380100
1E6E00
07F400
ENDCHAR
STARTCHAR edieresis
ENCODING 235
SWIDTH 518 0
DWIDTH 9 0
BBX 9 13 0 0
BITMAP
028240
028340
000000
01F900
0B9B00
1D0340
380380
3FFF80
795540
740000
380100
1E6E00
07F400
ENDCHAR
STARTCHAR igrave
ENCODING 236
SWIDTH 244 0
DWIDTH 4 0
BBX 4 14 0 0
BITMAP
2C
1E
0A
00
0E
1D
1D
2C
2C
38
38
74
74
B0
ENDCHAR
STARTCHAR iacute
ENCODING 237
SWIDTH 244 0
DWIDTH 4 0
BBX 6 14 0 0
BITMAP
01E0
03C0
0700
0000
0E00
1D00
1D00
2C00
2C00
3800
3800
7400
7400
B000
ENDCHAR
STARTCHAR icircumflex
ENCODING 238
SWIDTH 244 0
DWIDTH 4 0
BBX 6 14 0 0
BITMAP
0B40
2DD0
74A0
0000
0E00
1D00
1D00
2C00
2C00
3800
3800
7400
7400
B000
ENDCHAR
STARTCHAR idieresis
ENCODING 239
SWIDTH 244 0
DWIDTH 4 0
BBX 6 13 0 0
BITMAP
6460
74B0
0000
0E00
1D00
1D00
2C00
2C00
3800
3800
7400
7400
B000
ENDCHAR
STARTCHAR eth
ENCODING 240
SWIDTH 573 0
DWIDTH 10 0
BBX 9 14 1 0
BITMAP
034000
06F740
007D00
02DE00
010B00
0BEB40
2E5F40
740740
B00740
E00B00
E00E00
F01D00
79B800
1FD000
ENDCHAR
STARTCHAR ntilde
ENCODING 241
SWIDTH 540 0
DWIDTH 10 0
BBX 9 14 0 0
BITMAP
000040
02F5C0
035B40
000000
0DBE00
1F9B40
1D0380
2C0380
280340
380740
340700
740B00
700A00
B00E00
ENDCHAR
STARTCHAR ograve
ENCODING 242
SWIDTH 558 0
DWIDTH 10 0
BBX 9 14 0 0
BITMAP
00E000
00B000
002400
000000
01FD00
0B9B40
1D02C0
3801C0
3401C0
7402C0
740380
380740
1E6E00
07F400
ENDCHAR
STARTCHAR oacute
ENCODING 243
SWIDTH 558 0
DWIDTH 10 0
BBX 9 14 0 0
BITMAP
000B40
001E00
002800
000000
01FD00
0B9B40
1D02C0
3801C0
3401C0
7402C0
740380
380740
1E6E00
07F400
ENDCHAR
STARTCHAR ocircumflex
ENCODING 244
SWIDTH 558 0
DWIDTH 10 0
BBX 9 14 0 0
BITMAP
002C00
01EB00
02C340
000000
01FD00
0B9B40
1D02C0
3801C0
3401C0
7402C0
740380
380740
1E6E00
07F400
ENDCHAR
STARTCHAR otilde
ENCODING 245
SWIDTH 558 0
DWIDTH 10 0
BBX 9 14 0 0
BITMAP
004040
02F5C0
035B40
000000
01FD00
0B9B40
1D02C0
3801C0
3401C0
7402C0
740380
380740
1E6E00
07F400
ENDCHAR
STARTCHAR odieresis
ENCODING 246
SWIDTH 558 0
DWIDTH 10 0
BBX 9 13 0 0
BITMAP
018240
028380
000000
01FD00
0B9B40
1D02C0
3801C0
3401C0
7402C0
740380
380740
1E6E00
07F400
ENDCHAR
STARTCHAR divide
ENCODING 247
SWIDTH 558 0
DWIDTH 10 0
BBX 10 10 0 1
BITMAP
002400
007800
000000
000000
7FFFD0
6AAA80
000000
008000
01D000
004000
ENDCHAR
STARTCHAR oslash
ENCODING 248
SWIDTH 554 0
DWIDTH 10 0
BBX 9 12 0 -1
BITMAP
0000C0
01FF40
0B9B40
1D0EC0
3829C0
7461C0
74D2C0
768380
3B0B40
2E6E00
2FE400
700000
ENDCHAR
STARTCHAR ugrave
ENCODING 249
SWIDTH 539 0
DWIDTH 10 0
BBX 9 14 1 0
BITMAP
038000
01D000
009000
000000
340740
740B00
740B00
B00E00
B00E00
E01D00
E01D00
E02C00
B5BC00
2FB800
ENDCHAR
STARTCHAR uacute
ENCODING 250
SWIDTH 539 0
DWIDTH 10 0
BBX 9 14 1 0
BITMAP
001E00
007800
00A000
000000
340740
740B00
740B00
B00E00
B00E00
E01D00
E01D00
E02C00
B5BC00
2FB800
ENDCHAR
STARTCHAR ucircumflex
ENCODING 251
SWIDTH 539 0
DWIDTH 10 0
BBX 9 14 1 0
BITMAP
00B000
07AC00
0B0D00
000000
340740
740B00
740B00
B00E00
B00E00
E01D00
E01D00
E02C00
B5BC00
2FB800
ENDCHAR
STARTCHAR udieresis
ENCODING 252
SWIDTH 539 0
DWIDTH 10 0
BBX 9 13 1 0
BITMAP
060900
0B0E00
000000
340740
740B00
740B00
B00E00
B00E00
E01D00
E01D00
E02C00
B5BC00
2FB800
ENDCHAR
STARTCHAR yacute
ENCODING 253
SWIDTH 463 0
DWIDTH 8 0
BBX 10 18 -1 -4
BITMAP
0003C0
000B40
001D00
000000
0E01E0
0B02C0
0B0380
070B00
074E00
035C00
03B800
02F400
02E000
01D000
028000
074000
6E0000
B80000
ENDCHAR
STARTCHAR thorn
ENCODING 254
SWIDTH 563 0
DWIDTH 10 0
BBX 10 18 -1 -4
BITMAP
01D000
02C000
02C000
038000
03AF80
07E6D0
0740F0
0B00B0
0B00B0
0E00B0
0E00E0
1E02D0
1F9B80
2DBE00
2C0000
380000
380000
740000
ENDCHAR
STARTCHAR ydieresis
ENCODING 255
SWIDTH 463 0
DWIDTH 8 0
BBX 10 17 -1 -4
BITMAP
009180
00D1C0
000000
0E01E0
0B02C0
0B0380
070B00
074E00
035C00
03B800
02F400
02E000
01D000
028000
074000
6E0000
B80000
ENDCHAR
STARTCHAR Amacron
ENCODING 256
SWIDTH 637 0
DWIDTH 11 0
BBX 12 17 -1 0
BITMAP
000554
001FFD
000000
000000
000380
000BC0
000ED0
002CD0
0074E0
00B0A0
01D0B0
028070
07FFF4
0E5578
1D0028
38002C
74001C
ENDCHAR
STARTCHAR amacron
ENCODING 257
SWIDTH 532 0
DWIDTH 10 0
BBX 9 14 0 0
BITMAP
005540
02FFC0
000000
000000
02F900
0F5B00
1D0740
000740
06FF40
2D4B00
740B00
741E00
79BE00
1F9E00
ENDCHAR
STARTCHAR Abreve
ENCODING 258
SWIDTH 637 0
DWIDTH 11 0
BBX 11 16 -1 0
BITMAP
000D2C
0007E4
000000
000380
000BC0
000ED0
002CD0
0074E0
00B0A0
01D0B0
028070
07FFF4
0E5578
1D0028
38002C
74001C
ENDCHAR
STARTCHAR abreve
ENCODING 259
SWIDTH 532 0
DWIDTH 10 0
BBX 9 13 0 0
BITMAP
00D280
007E00
000000
02F900
0F5B00
1D0740
000740
06FF40
2D4B00
740B00
741E00
79BE00
1F9E00
ENDCHAR
STARTCHAR Aogonek
ENCODING 260
SWIDTH 637 0
DWIDTH 11 0
BBX 11 17 -1 -4
BITMAP
000380
000BC0
000ED0
002CD0
0074E0
00B0A0
01D0B0
028070
07FFF4
0E5578
1D0038
38002C
74002C
000074
0000D0
0001D4
0000B4
ENDCHAR
STARTCHAR aogonek
ENCODING 261
SWIDTH 532 0
DWIDTH 10 0
BBX 9 14 0 -4
BITMAP
02F900
0F5B00
1D0740
000740
06FF40
2D4B00
740B00
741E00
79BE00
1F9E00
002800
007000
00A400
007C00
ENDCHAR
STARTCHAR Cacute
ENCODING 262
SWIDTH 636 0
DWIDTH 11 0
BBX 10 17 1 0
BITMAP
0003C0
000B00
001D00
000000
01BE40
0B96D0
1E00E0
3800B0
740010
B00000
B00000
E00000
E00040
B002C0
B40780
3E6E00
0BF800
ENDCHAR
STARTCHAR cacute
ENCODING 263
SWIDTH 512 0
DWIDTH 9 0
BBX 9 14 0 0
BITMAP
000B40
002D00
007400
000000
02F900
0B9B40
2D0380
380140
340000
740000
740100
380B00
2E6D00
0BE400
ENDCHAR
STARTCHAR Ccircumflex
ENCODING 264
SWIDTH 636 0
DWIDTH 11 0
BBX 10 17 1 0
BITMAP
001E00
00B740
01D2C0
000000
01BE40
0B96D0
1E00E0
3800B0
740010
B00000
B00000
E00000
E00040
B002C0
B40780
3E6E00
0BF800
ENDCHAR
STARTCHAR ccircumflex
ENCODING 265
SWIDTH 512 0
DWIDTH 9 0
BBX 9 14 0 0
BITMAP
007800
02DE00
038700
000000
02F900
0B9B40
2D0380
380140
340000
740000
740100
380B00
2E6D00
0BE400
ENDCHAR
STARTCHAR Cdotaccent
ENCODING 266
SWIDTH 636 0
DWIDTH 11 0
BBX 10 16 1 0
BITMAP
001900
001D00
000000
01BE40
0B96D0
1E00E0
3800B0
740010
B00000
B00000
E00000
E00040
B002C0
B40780
3E6E00
0BF800
ENDCHAR
STARTCHAR cdotaccent
ENCODING 267
SWIDTH 512 0
DWIDTH 9 0
BBX 9 13 0 0
BITMAP
002400
007400
000000
02F900
0B9B40
2D0380
380140
340000
740000
740100
380B00
2E6D00
0BE400
ENDCHAR
STARTCHAR Ccaron
ENCODING 268
SWIDTH 636 0
DWIDTH 11 0
BBX 10 17 1 0
BITMAP
00A1C0
003B40
001D00
000000
01BE40
0B96D0
1E00E0
3800B0
740010
B00000
B00000
E00000
E00040
B002C0
B40780
3E6E00
0BF800
ENDCHAR
STARTCHAR ccaron
ENCODING 269
SWIDTH 512 0
DWIDTH 9 0
BBX 9 14 0 0
BITMAP
028740
00ED00
007400
000000
02F900
0B9B40
2D0380
380140
340000
740000
740100
380B00
2E6D00
0BE400
ENDCHAR
STARTCHAR Dcaron
ENCODING 270
SWIDTH 641 0
DWIDTH 12 0
BBX 11 17 0 0
BITMAP
0070D0
002B80
000E00
000000
07FE40
0B56D0
0B00B0
0E0034
0E0038
1D0038
1D0038
2C0074
2C00B0
3800E0
3802C0
796F40
7FE800
ENDCHAR
STARTCHAR dcaron
ENCODING 271
SWIDTH 625 0
DWIDTH 11 0
BBX 13 14 0 0
BITMAP
0000B000
0000A380
0000E340
0001DB00
02F9D900
0F9BC000
2D03C000
38038000
34038000
74074000
74074000
380B0000
2E6F0000
0BEA0000
ENDCHAR
STARTCHAR Dcroat
ENCODING 272
SWIDTH 655 0
DWIDTH 12 0
BBX 11 13 0 0
BITMAP
03FE40
0796E0
074074
0B0038
0B002C
0E002C
BFE02C
6E5038
1D0074
2C00B0
2C02D0
396F40
3FF900
ENDCHAR
STARTCHAR dcroat
ENCODING 273
SWIDTH 583 0
DWIDTH 11 0
BBX 12 14 0 0
BITMAP
0000B0
000FFD
0005E4
0001D0
02F9D0
0F9BC0
2D03C0
380280
740380
740340
740740
380B00
2E6F00
0BEA00
ENDCHAR
STARTCHAR Emacron
ENCODING 274
SWIDTH 556 0
DWIDTH 10 0
BBX 11 17 0 0
BITMAP
005550
00FFE0
000000
000000
07FFF4
0B5550
0B0000
0E0000
0E0000
1E0000
1FFF80
2D5540
2C0000
380000
380000
795540
7FFF80
ENDCHAR
STARTCHAR emacron
ENCODING 275
SWIDTH 518 0
DWIDTH 9 0
BBX 9 14 0 0
BITMAP
015540
03FF80
000000
000000
01F900
0B9B00
1D0340
380380
3FFF80
795540
740000
380100
1E6E00
07F400
ENDCHAR
STARTCHAR Ebreve
ENCODING 276
SWIDTH 556 0
DWIDTH 10 0
BBX 11 16 0 0
BITMAP
0070D0
002F80
000000
07FFF4
0B5550
0B0000
0E0000
0E0000
1E0000
1FFF80
2D5540
2C0000
380000
380000
795540
7FFF80
ENDCHAR
STARTCHAR ebreve
ENCODING 277
SWIDTH 518 0
DWIDTH 9 0
BBX 9 13 0 0
BITMAP
01C740
00BE00
000000
01F900
0B9B00
1D0340
380380
3FFF80
795540
740000
380100
1E6E00
07F400
ENDCHAR
STARTCHAR Edotaccent
ENCODING 278
SWIDTH 556 0
DWIDTH 10 0
BBX 11 16 0 0
BITMAP
000A00
000A00
000000
07FFF4
0B5550
0B0000
0E0000
0E0000
1E0000
1FFF80
2D5540
2C0000
380000
380000
795540
7FFF80
ENDCHAR
STARTCHAR edotaccent
ENCODING 279
SWIDTH 518 0
DWIDTH 9 0
BBX 9 13 0 0
BITMAP
002800
003800
000000
01F900
0B9B00
1D0340
380380
3FFF80
795540
740000
380100
1E6E00
07F400
ENDCHAR
STARTCHAR Eogonek
ENCODING 280
SWIDTH 556 0
DWIDTH 10 0
BBX 11 17 0 -4
BITMAP
07FFF4
0B5550
0B0000
0E0000
0E0000
1E0000
1FFF80
2D5540
2C0000
380000
380000
795540
7FFF80
001D00
003400
007400
002D00
ENDCHAR
STARTCHAR eogonek
ENCODING 281
SWIDTH 518 0
DWIDTH 9 0
BBX 9 14 0 -4
BITMAP
02F900
0B9B00
1D0340
380380
3FFF80
795540
740000
380100
2E6E00
07F400
01D000
028000
039000
01E000
ENDCHAR
STARTCHAR Ecaron
ENCODING 282
SWIDTH 556 0
DWIDTH 10 0
BBX 11 17 0 0
BITMAP
0070D0
002A80
000E00
000000
07FFF4
0B5550
0B0000
0E0000
0E0000
1E0000
1FFF80
2D5540
2C0000
380000
380000
795540
7FFF80
ENDCHAR
STARTCHAR ecaron
ENCODING 283
SWIDTH 518 0
DWIDTH 9 0
BBX 9 14 0 0
BITMAP
01C340
00AE00
003800
000000
01F900
0B9B00
1D0340
380380
3FFF80
795540
740000
380100
1E6E00
07F400
ENDCHAR
STARTCHAR Gcircumflex
ENCODING 284
SWIDTH 665 0
DWIDTH 12 0
BBX 11 17 1 0
BITMAP
001D00
00B740
01D2C0
000000
01BE40
0B96D0
1E00B0
380074
740000
B00000
B00000
E02FE0
E015E0
B001D0
7402D0
2E5B80
0BF900
ENDCHAR
STARTCHAR gcircumflex
ENCODING 285
SWIDTH 549 0
DWIDTH 10 0
BBX 10 18 0 -4
BITMAP
003C00
01EB00
02C740
000000
02F9D0
0F9BC0
2D03C0
380280
340380
740340
740740
380B00
2E6F00
0BEA00
000E00
502D00
B9B800
2FD000
ENDCHAR
STARTCHAR Gbreve
ENCODING 286
SWIDTH 665 0
DWIDTH 12 0
BBX 11 16 1 0
BITMAP
00E2C0
007E40
000000
01BE40
0B96D0
1E00B0
380074
740000
B00000
B00000
E02FE0
E015E0
B001D0
7402D0
2E5B80
0BF900
ENDCHAR
STARTCHAR gbreve
ENCODING 287
SWIDTH 549 0
DWIDTH 10 0
BBX 10 17 0 -4
BITMAP
01C340
00BE00
000000
02F9D0
0F9BC0
2D03C0
380280
340380
740340
740740
380B00
2E6F00
0BEA00
000E00
502D00
B9B800
2FD000
ENDCHAR
STARTCHAR Gdotaccent
ENCODING 288
SWIDTH 665 0
DWIDTH 12 0
BBX 11 16 1 0
BITMAP
001800
001C00
000000
01BE40
0B96D0
1E00B0
380074
740000
B00000
B00000
E02FE0
E015E0
B001D0
7402D0
2E5B80
0BF900
ENDCHAR
STARTCHAR gdotaccent
ENCODING 289
SWIDTH 549 0
DWIDTH 10 0
BBX 10 17 0 -4
BITMAP
002800
003800
000000
02F9D0
0F9BC0
2D03C0
380280
340380
740340
740740
380B00
2E6F00
0BEA00
000E00
502D00
B9B800
2FD000
ENDCHAR
STARTCHAR uni0122
ENCODING 290
SWIDTH 665 0
DWIDTH 12 0
BBX 11 18 1 -5
BITMAP
01BE40
0B96D0
1E00B0
380074
740000
B00000
B00000
E02FE0
E015E0
B001D0
7402D0
2E5B80
0BF900
000000
028000
038000
074000
060000
ENDCHAR
STARTCHAR uni0123
ENCODING 291
SWIDTH 549 0
DWIDTH 10 0
BBX 10 19 0 -4
BITMAP
000900
001D00
003800
003800
000000
02F9D0
0F9BC0
2D03C0
380280
340380
740340
740740
380B00
2E6F00
0BEA00
000E00
502D00
B9B800
2FD000
ENDCHAR
STARTCHAR Hcircumflex
ENCODING 292
SWIDTH 696 0
DWIDTH 13 0
BBX 13 17 0 0
BITMAP
00078000
001EE000
00387400
00000000
07400740
0B000B00
0B000B00
0F000E00
0E000E00
1E001D00
1FFFFD00
2D556C00
2C002C00
38003800
38003800
74007400
74007000
ENDCHAR
STARTCHAR hcircumflex
ENCODING 293
SWIDTH 539 0
DWIDTH 10 0
BBX 9 18 0 0
BITMAP
003C00
01EB00
02C740
000000
070000
0B0000
0A0000
0E0000
0DBE00
1F9B40
1D0380
2C0380
280340
380740
340700
740B00
700A00
B00E00
ENDCHAR
STARTCHAR Hbar
ENCODING 294
SWIDTH 684 0
DWIDTH 12 0
BBX 13 13 0 0
BITMAP
07400740
0B000B00
0B000B00
3FFFFFC0
1E555E40
1D001D00
1FFFFD00
2D556C00
2C002800
38003800
38007400
74007400
7400B000
ENDCHAR
STARTCHAR hbar
ENCODING 295
SWIDTH 553 0
DWIDTH 10 0
BBX 9 14 0 0
BITMAP
074000
3FF400
1B5000
0A0000
0E7E00
0F9B80
1E0280
1D0280
2C0380
2C0380
380740
380740
740B00
740B00
ENDCHAR
STARTCHAR Itilde
ENCODING 296
SWIDTH 268 0
DWIDTH 5 0
BBX 7 17 0 0
BITMAP
0404
2F5C
35B4
0000
0740
0740
0B00
0B00
0E00
0E00
1D00
1D00
2C00
2C00
3800
3800
7400
ENDCHAR
STARTCHAR itilde
ENCODING 297
SWIDTH 244 0
DWIDTH 4 0
BBX 7 14 0 0
BITMAP
0010
7E74
A2E0
0000
0E00
1D00
1D00
2C00
2C00
3800
3800
7400
7400
B000
ENDCHAR
STARTCHAR Imacron
ENCODING 298
SWIDTH 268 0
DWIDTH 5 0
BBX 7 17 0 0
BITMAP
1554
2FFC
0000
0000
0740
0740
0B00
0B00
0E00
0E00
1D00
1D00
2C00
2C00
3800
3800
7400
ENDCHAR
STARTCHAR imacron
ENCODING 299
SWIDTH 244 0
DWIDTH 4 0
BBX 7 14 0 0
BITMAP
1550
BFF4
0000
0000
0E00
1D00
1D00
2C00
2C00
3800
3800
7400
7400
B000
ENDCHAR
STARTCHAR Ibreve
ENCODING 300
SWIDTH 268 0
DWIDTH 5 0
BBX 7 16 0 0
BITMAP
1D38
0BE0
0000
0740
0740
0B00
0B00
0E00
0E00
1D00
1D00
2C00
2C00
3800
3800
7400
ENDCHAR
STARTCHAR ibreve
ENCODING 301
SWIDTH 244 0
DWIDTH 4 0
BBX 6 13 0 0
BITMAP
34B0
1F90
0000
0E00
1D00
1D00
2C00
2C00
3800
3800
7400
7400
B000
ENDCHAR
STARTCHAR Iogonek
ENCODING 302
SWIDTH 268 0
DWIDTH 5 0
BBX 6 17 -1 -4
BITMAP
01D0
01D0
02C0
02C0
0380
0380
0740
0740
0B00
0B00
0E00
0E00
2D00
7400
E000
E400
7800
ENDCHAR
STARTCHAR iogonek
ENCODING 303
SWIDTH 240 0
DWIDTH 4 0
BBX 6 18 -2 -4
BITMAP
0060
0070
0000
0000
00E0
01D0
01D0
02C0
02C0
0380
0380
0740
0740
0F00
2C00
3400
7500
2D00
ENDCHAR
STARTCHAR Idotaccent
ENCODING 304
SWIDTH 268 0
DWIDTH 5 0
BBX 5 16 0 0
BITMAP
0280
0280
0000
0740
0740
0B00
0B00
0E00
0E00
1D00
1D00
2C00
2C00
3800
3800
7400
ENDCHAR
STARTCHAR dotlessi
ENCODING 305
SWIDTH 244 0
DWIDTH 4 0
BBX 4 10 0 0
BITMAP
0E
1D
1D
2C
2C
38
38
74
74
B0
ENDCHAR
STARTCHAR IJ
ENCODING 306
SWIDTH 808 0
DWIDTH 15 0
BBX 15 13 0 0
BITMAP
07400074
07400074
0B0000B0
0B0000B0
0E0000E0
0E0000E0
1D0001D0
1D0001D0
2C0002C0
2C280380
383C0740
381E6E00
7406F800
ENDCHAR
STARTCHAR ij
ENCODING 307
SWIDTH 476 0
DWIDTH 9 0
BBX 9 18 0 -4
BITMAP
060740
070740
000000
000000
0E0A00
1D0E00
1D0D00
2C1D00
2C1C00
382C00
382C00
743800
743800
B07400
007400
00B000
05E000
0B8000
ENDCHAR
STARTCHAR Jcircumflex
ENCODING 308
SWIDTH 540 0
DWIDTH 10 0
BBX 12 17 0 0
BITMAP
0000F0
0007A8
000E1D
000000
0000E0
0001D0
0001D0
0002C0
0002C0
000380
000380
000740
000740
A00B00
B01E00
79BC00
1BE000
ENDCHAR
STARTCHAR jcircumflex
ENCODING 309
SWIDTH 249 0
DWIDTH 4 0
BBX 8 18 -2 -4
BITMAP
00B4
02DD
074A
0000
00E0
00E0
01D0
01D0
02C0
02C0
0380
0380
0740
0740
0B00
0B00
6D00
F800
ENDCHAR
STARTCHAR uni0136
ENCODING 310
SWIDTH 612 0
DWIDTH 11 0
BBX 12 17 0 -4
BITMAP
07402D
0B00B4
0B02D0
0E0B40
0E2D00
1DB400
1FF400
2E2C00
2C1D00
380B00
380780
7402C0
7400E0
00D000
01C000
028000
024000
ENDCHAR
STARTCHAR uni0137
ENCODING 311
SWIDTH 496 0
DWIDTH 9 0
BBX 9 18 0 -4
BITMAP
070000
0B0000
0A0000
0E0000
0D0780
1D1E00
1C7800
2DE000
2FC000
3DE000
34B000
743800
702C00
B00E00
074000
0B0000
0E0000
080000
ENDCHAR
STARTCHAR kgreenlandic
ENCODING 312
SWIDTH 544 0
DWIDTH 10 0
BBX 10 10 0 0
BITMAP
0E02D0
1D0B40
1D2D00
2CB400
2FD000
3AE000
38B400
743800
741D00
B00F00
ENDCHAR
STARTCHAR Lacute
ENCODING 313
SWIDTH 526 0
DWIDTH 9 0
BBX 8 17 0 0
BITMAP
00B4
01D0
0280
0000
0740
0B00
0B00
0E00
0E00
1D00
1D00
2C00
2C00
3800
3800
7955
7FFF
ENDCHAR
STARTCHAR lacute
ENCODING 314
SWIDTH 240 0
DWIDTH 4 0
BBX 7 18 0 0
BITMAP
00B4
01E0
0280
0000
0740
0B00
0B00
0E00
0E00
1D00
1D00
2C00
2C00
3800
3800
7400
7400
B000
ENDCHAR
STARTCHAR uni013B
ENCODING 315
SWIDTH 526 0
DWIDTH 9 0
BBX 8 18 0 -5
BITMAP
0740
0B00
0B00
0E00
0E00
1D00
1D00
2C00
2C00
3800
3800
7955
7FFF
0000
02C0
0380
0740
0600
ENDCHAR
STARTCHAR uni013C
ENCODING 316
SWIDTH 240 0
DWIDTH 4 0
BBX 6 19 -1 -5
BITMAP
01D0
02C0
02C0
0380
0380
0740
0740
0B00
0B00
0E00
0E00
1D00
1D00
2C00
0000
2800
3800
7400
6000
ENDCHAR
STARTCHAR Lcaron
ENCODING 317
SWIDTH 526 0
DWIDTH 9 0
BBX 8 13 0 0
BITMAP
0747
0B0B
0B0E
0E08
0E00
1D00
1D00
2C00
2C00
3800
3800
7955
7FFF
ENDCHAR
STARTCHAR lcaron
ENCODING 318
SWIDTH 313 0
DWIDTH 6 0
BBX 8 14 0 0
BITMAP
0740
0B1D
0B2C
0E38
0E20
1D00
1D00
2C00
2C00
3800
3800
7400
7400
B000
ENDCHAR
STARTCHAR Ldot
ENCODING 319
SWIDTH 526 0
DWIDTH 9 0
BBX 8 13 0 0
BITMAP
0740
0B00
0B00
0E00
0E00
1D18
1D2C
2C00
2C00
3800
3800
7955
7FFF
ENDCHAR
STARTCHAR ldot
ENCODING 320
SWIDTH 347 0
DWIDTH 6 0
BBX 6 14 0 0
BITMAP
0740
0B00
0B00
0E00
0E00
1D00
1DA0
2CA0
2C00
3800
3800
7400
7400
B000
ENDCHAR
STARTCHAR Lslash
ENCODING 321
SWIDTH 527 0
DWIDTH 10 0
BBX 8 13 0 0
BITMAP
0740
0B00
0B00
0E00
0E00
0EA0
6F80
6C00
2C00
3800
3800
7955
7FFF
ENDCHAR
STARTCHAR lslash
ENCODING 322
SWIDTH 266 0
DWIDTH 5 0
BBX 5 14 0 0
BITMAP
0340
0740
0B00
0B00
0E00
0E80
6E40
6D00
2C00
2C00
3800
3800
7400
7400
ENDCHAR
STARTCHAR Nacute
ENCODING 323
SWIDTH 696 0
DWIDTH 13 0
BBX 13 17 0 0
BITMAP
0000B400
0001D000
00028000
00000000
07800740
0BC00B00
0BD00B00
0EB00E00
0E740E00
1D381D00
1D1D1D00
2C0E2C00
2C0B6C00
3803B800
3802F800
7401F400
7400B000
ENDCHAR
STARTCHAR nacute
ENCODING 324
SWIDTH 540 0
DWIDTH 10 0
BBX 9 14 0 0
BITMAP
000780
001E00
002800
000000
0DBE00
1F9B40
1D0380
2C0380
280340
380740
340700
740B00
700A00
B00E00
ENDCHAR
STARTCHAR uni0145
ENCODING 325
SWIDTH 696 0
DWIDTH 13 0
BBX 13 18 0 -5
BITMAP
07800740
0BC00B00
0BD00B00
0EB00E00
0E740E00
1D381D00
1D1D1D00
2C0E2C00
2C0B6C00
3803B800
3802F800
7401F400
7400B000
00000000
00A00000
00E00000
01C00000
01400000
ENDCHAR
STARTCHAR uni0146
ENCODING 326
SWIDTH 540 0
DWIDTH 10 0
BBX 9 15 0 -5
BITMAP
0DBE00
1F9B40
1D0380
2C0380
280340
380740
340700
740B00
700A00
B00E00
000000
034000
074000
0A0000
090000
ENDCHAR
STARTCHAR Ncaron
ENCODING 327
SWIDTH 696 0
DWIDTH 13 0
BBX 13 17 0 0
BITMAP
001C3400
000AE000
00038000
00000000
07800740
0BC00B00
0BD00B00
0EB00E00
0E740E00
1D381D00
1D1D1D00
2C0E2C00
2C0B6C00
3803B800
3802F800
7401F400
7400B000
ENDCHAR
STARTCHAR ncaron
ENCODING 328
SWIDTH 540 0
DWIDTH 10 0
BBX 9 14 0 0
BITMAP
00D280
00AA00
003800
000000
0DBE00
1F9B40
1D0380
2C0380
280340
380740
340700
740B00
700A00
B00E00
ENDCHAR
STARTCHAR napostrophe
ENCODING 329
SWIDTH 540 0
DWIDTH 10 0
BBX 9 14 0 0
BITMAP
2C0000
380000
740000
600000
0DBE00
1F9B40
1D0380
2C0380
280340
380740
340700
740B00
700A00
B00E00
ENDCHAR
STARTCHAR Eng
ENCODING 330
SWIDTH 676 0
DWIDTH 12 0
BBX 12 17 0 -4
BITMAP
07400B
0BC00B
0BD00E
0EE00E
0E741D
1D382D
1D2C2C
2C0E3C
2C0B38
3807B8
3803F4
7401F4
7400F0
0000B0
0000E0
0006D0
001F40
ENDCHAR
STARTCHAR eng
ENCODING 331
SWIDTH 554 0
DWIDTH 10 0
BBX 9 14 0 -4
BITMAP
0DBE00
1F9B40
1D0380
2C0380
2C0380
380740
380740
740700
740B00
B00A00
000E00
001D00
017C00
02E400
ENDCHAR
STARTCHAR Omacron
ENCODING 332
SWIDTH 671 0
DWIDTH 12 0
BBX 11 17 1 0
BITMAP
005540
01FFE0
000000
000000
01BE40
0BABD0
1E00F0
380070
740074
B00074
B00074
E000B0
E000E0
B001D0
740380
2E6F00
0BF800
ENDCHAR
STARTCHAR omacron
ENCODING 333
SWIDTH 558 0
DWIDTH 10 0
BBX 9 14 0 0
BITMAP
015540
03FFC0
000000
000000
01FD00
0B9B40
1D02C0
3801C0
3401C0
7402C0
740380
380740
1E6E00
07F400
ENDCHAR
STARTCHAR Obreve
ENCODING 334
SWIDTH 671 0
DWIDTH 12 0
BBX 11 16 1 0
BITMAP
00A1D0
002F40
000000
01BE40
0BABD0
1E00F0
380070
740074
B00074
B00074
E000B0
E000E0
B001D0
740380
2E6F00
0BF800
ENDCHAR
STARTCHAR obreve
ENCODING 335
SWIDTH 558 0
DWIDTH 10 0
BBX 9 13 0 0
BITMAP
01C380
00BE00
000000
01FD00
0B9B40
1D02C0
3801C0
3401C0
7402C0
740380
380740
1E6E00
07F400
ENDCHAR
STARTCHAR Ohungarumlaut
ENCODING 336
SWIDTH 671 0
DWIDTH 12 0
BBX 11 17 1 0
BITMAP
001E78
0039E0
007680
000000
01BE40
0BABD0
1E00F0
380070
740074
B00074
B00074
E000B0
E000E0
B001D0
740380
2E6F00
0BF800
ENDCHAR
STARTCHAR ohungarumlaut
ENCODING 337
SWIDTH 558 0
DWIDTH 10 0
BBX 10 14 0 0
BITMAP
003DE0
00B7C0
009B00
000000
01FD00
0B9B40
1D02C0
3801C0
3401C0
7402C0
740380
380740
1E6E00
07F400
ENDCHAR
STARTCHAR OE
ENCODING 338
SWIDTH 929 0
DWIDTH 17 0
BBX 16 13 1 0
BITMAP
01BFFFFE
0B96E554
2D02C000
3802C000
70038000
B0038000
E007FFE0
E0079550
E00B0000
E00F0000
B00E0000
796E5550
1BFFFFE0
ENDCHAR
STARTCHAR oe
ENCODING 339
SWIDTH 885 0
DWIDTH 16 0
BBX 16 10 0 0
BITMAP
01FD0BE0
0B9BAD7C
1D03F01D
3802E01D
3402FFFD
7402D554
7403C000
380BD000
2E6EF5B0
0BE42F90
ENDCHAR
STARTCHAR Racute
ENCODING 340
SWIDTH 602 0
DWIDTH 11 0
BBX 11 17 0 0
BITMAP
0002D0
000740
000A00
000000
07FF80
0B56F0
0B0074
0E0038
0E0074
1D01E0
1FFF80
2D5E00
2C0B00
380740
380380
7402C0
7401D0
ENDCHAR
STARTCHAR racute
ENCODING 341
SWIDTH 333 0
DWIDTH 6 0
BBX 8 14 0 0
BITMAP
002D
00B4
01D0
0000
0EB4
1FA0
1D00
2C00
2800
3800
3400
7400
7000
B000
ENDCHAR
STARTCHAR uni0156
ENCODING 342
SWIDTH 602 0
DWIDTH 11 0
BBX 11 18 0 -5
BITMAP
07FF80
0B56F0
0B0074
0E0038
0E0074
1D01E0
1FFF80
2D5E00
2C0B00
380740
380380
7402C0
7401D0
000000
028000
038000
074000
060000
ENDCHAR
STARTCHAR uni0157
ENCODING 343
SWIDTH 333 0
DWIDTH 6 0
BBX 8 15 -1 -5
BITMAP
03AD
07E8
0740
0B00
0A00
0E00
0D00
1D00
1C00
2C00
0000
2800
3800
7000
9000
ENDCHAR
STARTCHAR Rcaron
ENCODING 344
SWIDTH 602 0
DWIDTH 11 0
BBX 11 17 0 0
BITMAP
0070D0
002B80
000E00
000000
07FF80
0B56F0
0B0074
0E0038
0E0074
1D01E0
1FFF80
2D5E00
2C0B00
380740
380380
7402C0
7401D0
ENDCHAR
STARTCHAR rcaron
ENCODING 345
SWIDTH 333 0
DWIDTH 6 0
BBX 8 14 0 0
BITMAP
0A1D
03B4
01D0
0000
0EB4
1FA0
1D00
2C00
2800
3800
3400
7400
7000
B000
ENDCHAR
STARTCHAR Sacute
ENCODING 346
SWIDTH 580 0
DWIDTH 10 0
BBX 11 17 0 0
BITMAP
0002D0
000780
000A00
000000
01BF40
07E6E0
0F00B4
0E0074
0E0000
0BD000
01FE00
001B80
0002D0
B001D0
7402C0
2E5B40
0BF900
ENDCHAR
STARTCHAR sacute
ENCODING 347
SWIDTH 504 0
DWIDTH 9 0
BBX 9 14 0 0
BITMAP
000B40
001D00
002800
000000
02F800
0F5F00
2C0740
1D0000
0B9000
01BD00
000E00
740E00
3D6D00
1BE400
ENDCHAR
STARTCHAR Scircumflex
ENCODING 348
SWIDTH 580 0
DWIDTH 10 0
BBX 11 17 0 0
BITMAP
000B00
007AC0
00B0D0
000000
01BF40
07E6E0
0F00B4
0E0074
0E0000
0BD000
01FE00
001B80
0002D0
B001D0
7402C0
2E5B40
0BF900
ENDCHAR
STARTCHAR scircumflex
ENCODING 349
SWIDTH 504 0
DWIDTH 9 0
BBX 9 14 0 0
BITMAP
007C00
01EA00
038740
000000
02F800
0F5F00
2C0740
1D0000
0B9000
01BD00
000E00
740E00
3D6D00
1BE400
ENDCHAR
STARTCHAR Scedilla
ENCODING 350
SWIDTH 580 0
DWIDTH 10 0
BBX 11 17 0 -4
BITMAP
01BF40
07E6E0
0F00B4
0E0074
0E0000
0BD000
01FE00
001B80
0002D0
B001D0
7402C0
2E5B40
0BF900
01C000
00A000
00A000
038000
ENDCHAR
STARTCHAR scedilla
ENCODING 351
SWIDTH 504 0
DWIDTH 9 0
BBX 9 14 0 -4
BITMAP
02F800
0F5F00
2C0740
1D0000
0B9000
01BD00
000E00
740E00
3D6D00
1BE400
028000
01D000
01D000
074000
ENDCHAR
STARTCHAR Scaron
ENCODING 352
SWIDTH 580 0
DWIDTH 10 0
BBX 11 17 0 0
BITMAP
0070D0
002A80
000E00
000000
01BF40
07E6E0
0F00B4
0E0074
0E0000
0BD000
01FE00
001B80
0002D0
B001D0
7402C0
2E5B40
0BF900
ENDCHAR
STARTCHAR scaron
ENCODING 353
SWIDTH 504 0
DWIDTH 9 0
BBX 9 14 0 0
BITMAP
01C340
00AE00
003800
000000
02F800
0F5F00
2C0740
1D0000
0B9000
01BD00
000E00
740E00
3D6D00
1BE400
ENDCHAR
STARTCHAR uni0162
ENCODING 354
SWIDTH 583 0
DWIDTH 11 0
BBX 11 17 1 -4
BITMAP
7FFFF4
55B550
00B000
00E000
00E000
01D000
01D000
02C000
02C000
038000
038000
074000
074000
070000
068000
028000
0E0000
ENDCHAR
STARTCHAR uni0163
ENCODING 355
SWIDTH 321 0
DWIDTH 6 0
BBX 6 16 0 -4
BITMAP
0740
0700
7FE0
1F40
0E00
0D00
1D00
1D00
2C00
2C00
2D00
0F40
0A00
0740
0740
1D00
ENDCHAR
STARTCHAR Tcaron
ENCODING 356
SWIDTH 583 0
DWIDTH 11 0
BBX 11 17 1 0
BITMAP
01C340
00AE00
003800
000000
7FFFF4
55B550
00B000
00E000
00E000
01D000
01D000
02C000
02C000
038000
038000
074000
074000
ENDCHAR
STARTCHAR tcaron
ENCODING 357
SWIDTH 341 0
DWIDTH 6 0
BBX 8 15 0 0
BITMAP
000B
000E
001D
0758
0700
7FE0
1F40
0E00
0D00
1D00
1D00
2C00
2C00
2D00
0F40
ENDCHAR
STARTCHAR Tbar
ENCODING 358
SWIDTH 583 0
DWIDTH 11 0
BBX 11 13 1 0
BITMAP
7FFFF4
55B550
00B000
00E000
0FFD00
06E400
01D000
02C000
02C000
038000
038000
074000
074000
ENDCHAR
STARTCHAR tbar
ENCODING 359
SWIDTH 321 0
DWIDTH 6 0
BBX 6 12 0 0
BITMAP
0740
0700
7FE0
1F40
0E00
FFD0
6E40
1D00
2C00
2C00
2D00
0F40
ENDCHAR
STARTCHAR Utilde
ENCODING 360
SWIDTH 633 0
DWIDTH 11 0
BBX 11 17 1 0
BITMAP
000040
01F9D0
028B80
000000
2C0074
2C0074
3800B0
3800B0
7400E0
7400E0
B001D0
B001D0
E002C0
E003C0
B00740
7D6E00
1BE400
ENDCHAR
STARTCHAR utilde
ENCODING 361
SWIDTH 539 0
DWIDTH 10 0
BBX 9 14 1 0
BITMAP
010100
0BD700
0D6D00
000000
340740
740B00
740B00
B00E00
B00E00
E01D00
E01D00
E02C00
B5BC00
2FB800
ENDCHAR
STARTCHAR Umacron
ENCODING 362
SWIDTH 633 0
DWIDTH 11 0
BBX 11 17 1 0
BITMAP
005540
02FFD0
000000
000000
2C0074
2C0074
3800B0
3800B0
7400E0
7400E0
B001D0
B001D0
E002C0
E003C0
B00740
7D6E00
1BE400
ENDCHAR
STARTCHAR umacron
ENCODING 363
SWIDTH 539 0
DWIDTH 10 0
BBX 9 14 1 0
BITMAP
055500
0BFF00
000000
000000
340740
740B00
740B00
B00E00
B00E00
E01D00
E01D00
E02C00
B5BC00
2FB800
ENDCHAR
STARTCHAR Ubreve
ENCODING 364
SWIDTH 633 0
DWIDTH 11 0
BBX 11 16 1 0
BITMAP
00D2C0
007E40
000000
2C0074
2C0074
3800B0
3800B0
7400E0
7400E0
B001D0
B001D0
E002C0
E003C0
B00740
7D6E00
1BE400
ENDCHAR
STARTCHAR ubreve
ENCODING 365
SWIDTH 539 0
DWIDTH 10 0
BBX 9 13 1 0
BITMAP
070E00
02F800
000000
340740
740B00
740B00
B00E00
B00E00
E01D00
E01D00
E02C00
B5BC00
2FB800
ENDCHAR
STARTCHAR Uring
ENCODING 366
SWIDTH 633 0
DWIDTH 11 0
BBX 11 18 1 0
BITMAP
002E00
006240
006200
002D00
000000
2C0074
2C0074
3800B0
3800B0
7400E0
7400E0
B001D0
B001D0
E002C0
E003C0
B00740
7D6E00
1BE400
ENDCHAR
STARTCHAR uring
ENCODING 367
SWIDTH 539 0
DWIDTH 10 0
BBX 9 15 1 0
BITMAP
00B400
024800
025800
01F400
000000
340740
740B00
740B00
B00E00
B00E00
E01D00
E01D00
E02C00
B5BC00
2FB800
ENDCHAR
STARTCHAR Uhungarumlaut
ENCODING 368
SWIDTH 633 0
DWIDTH 11 0
BBX 11 17 1 0
BITMAP
002DB4
007AD0
00A740
000000
2C0074
2C0074
3800B0
3800B0
7400E0
7400E0
B001D0
B001D0
E002C0
E003C0
B00740
7D6E00
1BE400
ENDCHAR
STARTCHAR uhungarumlaut
ENCODING 369
SWIDTH 539 0
DWIDTH 10 0
BBX 9 14 1 0
BITMAP
00B780
02DF00
026C00
000000
340740
740B00
740B00
B00E00
B00E00
E01D00
E01D00
E02C00
B5BC00
2FB800
ENDCHAR
STARTCHAR Uogonek
ENCODING 370
SWIDTH 633 0
DWIDTH 11 0
BBX 11 17 1 -4
BITMAP
1C0038
2C0074
280074
3800B0
3400B0
7400E0
B000D0
B001D0
E002C0
E002C0
B00740
7D6E00
1BF400
01D000
028000
029000
01E000
ENDCHAR
STARTCHAR uogonek
ENCODING 371
SWIDTH 539 0
DWIDTH 10 0
BBX 9 14 1 -4
BITMAP
340740
740B00
740B00
B00E00
B00E00
E01D00
E01D00
E02C00
B5BC00
2F6800
00B000
01C000
02D000
01F000
ENDCHAR
STARTCHAR Wcircumflex
ENCODING 372
SWIDTH 865 0
DWIDTH 16 0
BBX 15 17 1 0
BITMAP
0002D000
000B7400
001D2800
00000000
7403802C
7407C038
340BC074
381EC0B0
382DD0E0
3834D1D0
2870D280
28E0A340
2DD0AB00
2E80AE00
1F407D00
1F007C00
1D007800
ENDCHAR
STARTCHAR wcircumflex
ENCODING 373
SWIDTH 733 0
DWIDTH 13 0
BBX 13 14 1 0
BITMAP
001E0000
00778000
00E1C000
00000000
A02C0740
A03C0A00
B0BD0D00
B0DD2C00
71CD3800
734A7000
770AA000
3E07D000
3C078000
38074000
ENDCHAR
STARTCHAR Ycircumflex
ENCODING 374
SWIDTH 587 0
DWIDTH 11 0
BBX 11 17 1 0
BITMAP
003C00
01EA00
028740
000000
7400B4
3801E0
2C03C0
1D0B40
0E1E00
0B3800
07F400
03D000
02C000
038000
038000
074000
074000
ENDCHAR
STARTCHAR ycircumflex
ENCODING 375
SWIDTH 463 0
DWIDTH 8 0
BBX 10 18 -1 -4
BITMAP
001E00
00B740
01D2C0
000000
0E01E0
0B02C0
0B0380
070B00
074E00
035C00
03B800
02F400
02E000
01D000
028000
074000
6E0000
B80000
ENDCHAR
STARTCHAR Ydieresis
ENCODING 376
SWIDTH 587 0
DWIDTH 11 0
BBX 11 16 1 0
BITMAP
028240
028340
000000
7400B4
3801E0
2C03C0
1D0B40
0E1E00
0B3800
07F400
03D000
02C000
038000
038000
074000
074000
ENDCHAR
STARTCHAR Zacute
ENCODING 377
SWIDTH 585 0
DWIDTH 11 0
BBX 11 17 0 0
BITMAP
0002D0
000780
000A00
000000
0FFFF8
0555B4
0001E0
000780
000F00
002D00
00B400
02D000
078000
1E0000
3C0000
B95540
FFFFC0
ENDCHAR
STARTCHAR zacute
ENCODING 378
SWIDTH 485 0
DWIDTH 9 0
BBX 9 14 0 0
BITMAP
000F00
002D00
007400
000000
2FFF40
155F00
002D00
00B400
01E000
078000
0F0000
3C0000
B95400
FFFD00
ENDCHAR
STARTCHAR Zdotaccent
ENCODING 379
SWIDTH 585 0
DWIDTH 11 0
BBX 11 16 0 0
BITMAP
000A00
000E00
000000
0FFFF8
0555B4
0001E0
000780
000F00
002D00
00B400
02D000
078000
1E0000
3C0000
B95540
FFFFC0
ENDCHAR
STARTCHAR zdotaccent
ENCODING 380
SWIDTH 485 0
DWIDTH 9 0
BBX 9 13 0 0
BITMAP
002400
007400
000000
2FFF40
155F00
002D00
00B400
01E000
078000
0F0000
3C0000
B95400
FFFD00
ENDCHAR
STARTCHAR Zcaron
ENCODING 381
SWIDTH 585 0
DWIDTH 11 0
BBX 11 17 0 0
BITMAP
0070D0
002B80
000E00
000000
0FFFF8
0555B4
0001E0
000780
000F00
002D00
00B400
02D000
078000
1E0000
3C0000
B95540
FFFFC0
ENDCHAR
STARTCHAR zcaron
ENCODING 382
SWIDTH 485 0
DWIDTH 9 0
BBX 9 14 0 0
BITMAP
028700
00ED00
007400
000000
2FFF40
155F00
002D00
00B400
01E000
078000
0F0000
3C0000
B95400
FFFD00
ENDCHAR
STARTCHAR longs
ENCODING 383
SWIDTH 245 0
DWIDTH 4 0
BBX 7 14 0 0
BITMAP
01B8
0394
0B00
0A00
0E00
0D00
1D00
1C00
2C00
2800
3800
3400
7400
7000
ENDCHAR
STARTCHAR uni018F
ENCODING 399
SWIDTH 675 0
DWIDTH 12 0
BBX 11 13 1 0
BITMAP
06FE40
0A9BD0
0000F0
000074
000074
000074
FFFFF4
E555B0
D000F0
E001D0
B00780
3E6E00
0BE400
ENDCHAR
STARTCHAR florin
ENCODING 402
SWIDTH 334 0
DWIDTH 6 0
BBX 9 18 -2 -4
BITMAP
000BC0
002E40
007400
007400
03FE00
01B500
00E000
00E000
00D000
01D000
01C000
02C000
02C000
038000
038000
074000
5B0000
790000
ENDCHAR
STARTCHAR Ohorn
ENCODING 416
SWIDTH 670 0
DWIDTH 12 0
BBX 13 15 1 0
BITMAP
00000140
00000380
01BE4B00
0B9BFD00
1D00F000
3800B000
7400B400
B0007000
E000B000
E000A000
E000E000
E002C000
B4078000
3E6E0000
0BE40000
ENDCHAR
STARTCHAR ohorn
ENCODING 417
SWIDTH 559 0
DWIDTH 10 0
BBX 11 11 0 0
BITMAP
00001C
01FE28
0B9BE0
1D02C0
3801C0
3401C0
7402C0
740380
380740
2E6E00
07E400
ENDCHAR
STARTCHAR Uhorn
ENCODING 431
SWIDTH 679 0
DWIDTH 12 0
BBX 14 14 1 0
BITMAP
00000050
1C0038A0
2C0076C0
28007F40
3800B000
3400B000
7400E000
7000E000
B001D000
A002D000
E002C000
B0074000
7D6E0000
1BE40000
ENDCHAR
STARTCHAR uhorn
ENCODING 432
SWIDTH 604 0
DWIDTH 11 0
BBX 11 11 1 0
BITMAP
000018
380768
740BE0
740B00
B00E00
B00E00
E01D00
E01D00
E02C00
B5BC00
2FA800
ENDCHAR
STARTCHAR uni01F0
ENCODING 496
SWIDTH 249 0
DWIDTH 4 0
BBX 8 18 -2 -4
BITMAP
028B
01EC
00B4
0000
00E0
00E0
01D0
01D0
02C0
02C0
0380
0380
0740
0740
0B00
0B00
6D00
F800
ENDCHAR
STARTCHAR Aringacute
ENCODING 506
SWIDTH 637 0
DWIDTH 11 0
BBX 11 19 -1 0
BITMAP
000028
0000A0
000000
0002D0
000660
0002D0
000380
000BC0
000ED0
002CD0
0074E0
00B0A0
01D0B0
028070
07FFF4
0E5578
1D0028
38002C
74001C
ENDCHAR
STARTCHAR aringacute
ENCODING 507
SWIDTH 532 0
DWIDTH 10 0
BBX 9 16 0 0
BITMAP
000380
000A00
000000
003C00
005900
007800
02F900
0F5B00
1D0740
000740
06FF40
2D4B00
740B00
741E00
79BE00
1F9E00
ENDCHAR
STARTCHAR AEacute
ENCODING 508
SWIDTH 911 0
DWIDTH 16 0
BBX 18 17 -1 0
BITMAP
000002D000
00000B4000
00000D0000
0000000000
00002FFFE0
00007E5550
0001EE0000
00039D0000
000B1D0000
001D1D0000
00742FFF00
00E02D5500
02FFF80000
07AAB80000
1E00340000
3C00795500
B4007FFF40
ENDCHAR
STARTCHAR aeacute
ENCODING 509
SWIDTH 823 0
DWIDTH 15 0
BBX 15 14 0 0
BITMAP
00003C00
0000B400
0001D000
00000000
06F92F80
1F5FE5E0
2C078070
00074074
1BFFFFF0
7D5F5550
B00F0000
B01F4000
79BBD6C0
2F91BF40
ENDCHAR
STARTCHAR Oslashacute
ENCODING 510
SWIDTH 671 0
DWIDTH 12 0
BBX 12 18 0 -1
BITMAP
0000B4
0001D0
000280
000001
006F97
02EABD
07803C
0E00AD
1D029D
2C071D
2C0D1D
38342C
38A038
298074
2F01E0
1F9B80
2AFD00
600000
ENDCHAR
STARTCHAR oslashacute
ENCODING 511
SWIDTH 554 0
DWIDTH 10 0
BBX 9 15 0 -1
BITMAP
000B40
002D00
002400
0000C0
01FF40
0B9B40
1D0EC0
3829C0
7461C0
74D2C0
768380
3B0B40
2E6E00
2FE400
700000
ENDCHAR
STARTCHAR uni0218
ENCODING 536
SWIDTH 580 0
DWIDTH 10 0
BBX 11 18 0 -5
BITMAP
01BF40
07E6E0
0F00B4
0E0074
0E0000
0BD000
01FE00
001B80
0002D0
B001D0
7402C0
2E5B40
0BF900
000000
02C000
028000
074000
060000
ENDCHAR
STARTCHAR uni0219
ENCODING 537
SWIDTH 504 0
DWIDTH 9 0
BBX 9 15 0 -5
BITMAP
02F800
0F5F00
2C0740
1D0000
0B9000
01BD00
000E00
740E00
3D6D00
1BE400
000000
034000
074000
0B0000
090000
ENDCHAR
STARTCHAR uni021A
ENCODING 538
SWIDTH 583 0
DWIDTH 11 0
BBX 11 18 1 -5
BITMAP
7FFFF4
55B550
00B000
00E000
00E000
01D000
01D000
02C000
02C000
038000
038000
074000
074000
000000
0A0000
0E0000
1D0000
180000
ENDCHAR
STARTCHAR uni021B
ENCODING 539
SWIDTH 321 0
DWIDTH 6 0
BBX 6 17 0 -5
BITMAP
0740
0700
7FE0
1F40
0E00
0D00
1D00
1D00
2C00
2C00
2D00
0F40
0000
0D00
1D00
2C00
2400
ENDCHAR
STARTCHAR uni0237
ENCODING 567
SWIDTH 249 0
DWIDTH 4 0
BBX 6 14 -2 -4
BITMAP
00E0
00E0
01D0
01D0
02C0
02C0
0380
0380
0740
0740
0B00
0B00
6D00
F800
ENDCHAR
STARTCHAR uni0259
ENCODING 601
SWIDTH 516 0
DWIDTH 9 0
BBX 9 10 0 0
BITMAP
06F800
0E5F00
000740
000380
000380
3FFF40
795B40
740A00
2D6C00
0BE000
ENDCHAR
STARTCHAR uni02BC
ENCODING 700
SWIDTH 198 0
DWIDTH 4 0
BBX 3 4 1 10
BITMAP
1C
2C
74
60
ENDCHAR
STARTCHAR circumflex
ENCODING 710
SWIDTH 461 0
DWIDTH 8 0
BBX 6 3 2 11
BITMAP
0B40
2DD0
B4E0
ENDCHAR
STARTCHAR caron
ENCODING 711
SWIDTH 435 0
DWIDTH 8 0
BBX 6 3 2 11
BITMAP
74E0
2A80
0E00
ENDCHAR
STARTCHAR uni02C9
ENCODING 713
SWIDTH 449 0
DWIDTH 8 0
BBX 6 2 2 11
BITMAP
BFF0
5550
ENDCHAR
STARTCHAR breve
ENCODING 728
SWIDTH 418 0
DWIDTH 8 0
BBX 6 2 2 11
BITMAP
A1D0
2F40
ENDCHAR
STARTCHAR dotaccent
ENCODING 729
SWIDTH 240 0
DWIDTH 4 0
BBX 2 2 2 11
BITMAP
60
70
ENDCHAR
STARTCHAR ring
ENCODING 730
SWIDTH 329 0
DWIDTH 6 0
BBX 4 4 2 11
BITMAP
2D
92
96
7D
ENDCHAR
STARTCHAR ogonek
ENCODING 731
SWIDTH 267 0
DWIDTH 5 0
BBX 4 5 -1 -4
BITMAP
09
38
B0
B4
7C
ENDCHAR
STARTCHAR tilde
ENCODING 732
SWIDTH 462 0
DWIDTH 8 0
BBX 6 3 2 11
BITMAP
0010
7E70
D2D0
ENDCHAR
STARTCHAR hungarumlaut
ENCODING 733
SWIDTH 366 0
DWIDTH 7 0
BBX 6 3 2 11
BITMAP
2DF0
B7C0
9740
ENDCHAR
STARTCHAR uni02F3
ENCODING 755
SWIDTH 290 0
DWIDTH 5 0
BBX 3 3 0 -4
BITMAP
B4
98
B4
ENDCHAR
STARTCHAR gravecomb
ENCODING 768
SWIDTH 0 0
DWIDTH 0 0
BBX 3 3 -6 11
BITMAP
B4
38
18
ENDCHAR
STARTCHAR acutecomb
ENCODING 769
SWIDTH 0 0
DWIDTH 0 0
BBX 4 3 -5 11
BITMAP
0F
2C
74
ENDCHAR
STARTCHAR tildecomb
ENCODING 771
SWIDTH 0 0
DWIDTH 0 0
BBX 7 3 -7 11
BITMAP
0404
3E64
A1E0
ENDCHAR
STARTCHAR hookabovecomb
ENCODING 777
SWIDTH 0 0
DWIDTH 0 0
BBX 3 4 -5 11
BITMAP
74
1C
6C
A0
ENDCHAR
STARTCHAR uni030F
ENCODING 783
SWIDTH 0 0
DWIDTH 0 0
BBX 6 2 -7 11
BITMAP
BAD0
1DA0
ENDCHAR
STARTCHAR dotbelowcomb
ENCODING 803
SWIDTH 0 0
DWIDTH 0 0
BBX 3 2 -8 -3
BITMAP
34
64
ENDCHAR
STARTCHAR tonos
ENCODING 900
SWIDTH 253 0
DWIDTH 5 0
BBX 3 3 2 11
BITMAP
28
34
60
ENDCHAR
STARTCHAR dieresistonos
ENCODING 901
SWIDTH 495 0
DWIDTH 9 0
BBX 7 3 2 11
BITMAP
02C0
A268
A028
ENDCHAR
STARTCHAR Alphatonos
ENCODING 902
SWIDTH 637 0
DWIDTH 11 0
BBX 11 14 -1 0
BITMAP
00B000
00D380
018BC0
000ED0
002CD0
0074E0
00B0A0
01D0B0
028070
07FFF4
0E5578
1D0028
38002C
74001C
ENDCHAR
STARTCHAR anoteleia
ENCODING 903
SWIDTH 258 0
DWIDTH 5 0
BBX 3 2 1 5
BITMAP
74
74
ENDCHAR
STARTCHAR Epsilontonos
ENCODING 904
SWIDTH 556 0
DWIDTH 10 0
BBX 12 14 -1 0
BITMAP
340000
71FFFD
92D554
02C000
038000
038000
078000
07FFE0
0B5550
0B0000
0E0000
0E0000
1E5550
1FFFE0
ENDCHAR
STARTCHAR Etatonos
ENCODING 905
SWIDTH 696 0
DWIDTH 13 0
BBX 14 14 -1 0
BITMAP
38000000
71D001D0
62C002C0
02C002C0
03C00380
03800380
07800740
07FFFF40
0B555B00
0B000B00
0E000E00
0E000E00
1D001D00
1D001C00
ENDCHAR
STARTCHAR Iotatonos
ENCODING 906
SWIDTH 268 0
DWIDTH 5 0
BBX 6 14 -1 0
BITMAP
3800
71D0
61D0
02C0
02C0
0380
0380
0740
0740
0B00
0B00
0E00
0E00
1D00
ENDCHAR
STARTCHAR Omicrontonos
ENCODING 908
SWIDTH 681 0
DWIDTH 12 0
BBX 11 14 1 0
BITMAP
700000
E1BE40
87E6D0
1E00B0
2C0074
380074
740034
B00074
B00074
B000B0
B001E0
7803C0
2E6F40
0BF800
ENDCHAR
STARTCHAR Upsilontonos
ENCODING 910
SWIDTH 636 0
DWIDTH 11 0
BBX 14 14 -1 0
BITMAP
74000000
A1D002D0
90E00780
00B00E00
00742C00
00387400
002CE000
001FC000
000F4000
000E0000
000E0000
001D0000
001D0000
002C0000
ENDCHAR
STARTCHAR Omegatonos
ENCODING 911
SWIDTH 659 0
DWIDTH 12 0
BBX 11 14 0 0
BITMAP
1C0000
286F80
22E5F0
078038
0E002C
1D002C
1D002C
2C002C
2C0038
2C0074
1C00A0
0D01D0
5F4B90
BF9FE0
ENDCHAR
STARTCHAR iotadieresistonos
ENCODING 912
SWIDTH 318 0
DWIDTH 6 0
BBX 7 14 0 0
BITMAP
01D0
62A8
B028
0000
0B00
0A00
0E00
0D00
1D00
1C00
2C00
2C00
2D00
1F40
ENDCHAR
STARTCHAR Alpha
ENCODING 913
SWIDTH 637 0
DWIDTH 11 0
BBX 11 13 -1 0
BITMAP
000380
000BC0
000ED0
002CD0
0074E0
00B0A0
01D0B0
028070
07FFF4
0E5578
1D0028
38002C
74001C
ENDCHAR
STARTCHAR Beta
ENCODING 914
SWIDTH 608 0
DWIDTH 11 0
BBX 11 13 0 0
BITMAP
07FF80
0B56E0
0B00B4
0E0074
0E00B0
1E02D0
1FFF40
2D57C0
2C00E0
3800E0
3802D0
795B80
7FF900
ENDCHAR
STARTCHAR Gamma
ENCODING 915
SWIDTH 544 0
DWIDTH 10 0
BBX 11 13 0 0
BITMAP
07FFF4
079550
0B0000
0B0000
0E0000
0E0000
1D0000
1D0000
2C0000
2C0000
380000
380000
740000
ENDCHAR
STARTCHAR uni0394
ENCODING 916
SWIDTH 688 0
DWIDTH 12 0
BBX 12 13 -1 0
BITMAP
0002D0
0003E0
000BA0
001DB0
002C74
007434
00E038
02D028
03802C
0B001D
1D001D
2D555E
7FFFFF
ENDCHAR
STARTCHAR Epsilon
ENCODING 917
SWIDTH 556 0
DWIDTH 10 0
BBX 11 13 0 0
BITMAP
07FFF4
0B5550
0B0000
0E0000
0E0000
1E0000
1FFF80
2D5540
2C0000
380000
380000
795540
7FFF80
ENDCHAR
STARTCHAR Zeta
ENCODING 918
SWIDTH 585 0
DWIDTH 11 0
BBX 11 13 0 0
BITMAP
0FFFF8
0555B4
0001E0
000780
000F00
002D00
00B400
02D000
078000
1E0000
3C0000
B95540
FFFFC0
ENDCHAR
STARTCHAR Eta
ENCODING 919
SWIDTH 696 0
DWIDTH 13 0
BBX 13 13 0 0
BITMAP
07400740
0B000B00
0B000B00
0F000E00
0E000E00
1E001D00
1FFFFD00
2D556C00
2C002C00
38003800
38003800
74007400
74007000
ENDCHAR
STARTCHAR Theta
ENCODING 920
SWIDTH 664 0
DWIDTH 12 0
BBX 10 13 1 0
BITMAP
01BE40
0B9BD0
1D00E0
3800B0
740070
B3FD70
E154B0
E000B0
E000E0
A002D0
B40780
3E6E00
0BE400
ENDCHAR
STARTCHAR Iota
ENCODING 921
SWIDTH 268 0
DWIDTH 5 0
BBX 5 13 0 0
BITMAP
0740
0740
0B00
0B00
0E00
0E00
1D00
1D00
2C00
2C00
3800
3800
7400
ENDCHAR
STARTCHAR Kappa
ENCODING 922
SWIDTH 612 0
DWIDTH 11 0
BBX 12 13 0 0
BITMAP
07402D
0B00B4
0B02D0
0E0B40
0E2D00
1DB400
1FF400
2E2C00
2C1D00
380B00
380780
7402C0
7400E0
ENDCHAR
STARTCHAR Lambda
ENCODING 923
SWIDTH 640 0
DWIDTH 12 0
BBX 11 13 -1 0
BITMAP
000380
000BC0
000FC0
002DD0
0038D0
00B0E0
00E0B0
02C0B0
078074
0B0074
1E0038
2C0038
78002C
ENDCHAR
STARTCHAR Mu
ENCODING 924
SWIDTH 851 0
DWIDTH 15 0
BBX 15 13 0 0
BITMAP
07C0007C
0BC000FC
0BD001F8
0EE003B8
0EA00B74
1DB00E74
1D742CB0
2C3474A0
2C38B0E0
3829D0D0
381F81D0
741F42C0
740E02C0
ENDCHAR
STARTCHAR Nu
ENCODING 925
SWIDTH 696 0
DWIDTH 13 0
BBX 13 13 0 0
BITMAP
07800740
0BC00B00
0BD00B00
0EB00E00
0E740E00
1D381D00
1D1D1D00
2C0E2C00
2C0B6C00
3803B800
3802F800
7401F400
7400B000
ENDCHAR
STARTCHAR Xi
ENCODING 926
SWIDTH 558 0
DWIDTH 10 0
BBX 10 13 0 0
BITMAP
0BFFF0
055550
000000
000000
000000
000000
0FFF40
055500
000000
000000
000000
555500
BFFF40
ENDCHAR
STARTCHAR Omicron
ENCODING 927
SWIDTH 671 0
DWIDTH 12 0
BBX 11 13 1 0
BITMAP
01BE40
0BABD0
1E00F0
380070
740074
B00074
B00074
E000B0
E000E0
B001D0
740380
2E6F00
0BF800
ENDCHAR
STARTCHAR Pi
ENCODING 928
SWIDTH 696 0
DWIDTH 13 0
BBX 12 13 0 0
BITMAP
07FFFF
07955B
0B000E
0B000E
0E001D
0E001D
1D002C
1D002C
2C0038
2C0038
380074
380074
7400B0
ENDCHAR
STARTCHAR Rho
ENCODING 929
SWIDTH 616 0
DWIDTH 11 0
BBX 11 13 0 0
BITMAP
07FF90
0B55F4
0B0038
0E002C
0E002C
1E0038
1D01F4
2FFFD0
2D5500
3C0000
380000
740000
740000
ENDCHAR
STARTCHAR Sigma
ENCODING 931
SWIDTH 558 0
DWIDTH 10 0
BBX 11 13 -1 0
BITMAP
07FFFC
03D554
02D000
00F000
007800
002C00
001E00
007800
00E000
03C000
0F0000
3E5550
7FFFD0
ENDCHAR
STARTCHAR Tau
ENCODING 932
SWIDTH 583 0
DWIDTH 11 0
BBX 11 13 1 0
BITMAP
7FFFF4
55B550
00B000
00E000
00E000
01D000
01D000
02C000
02C000
038000
038000
074000
074000
ENDCHAR
STARTCHAR Upsilon
ENCODING 933
SWIDTH 587 0
DWIDTH 11 0
BBX 11 13 1 0
BITMAP
7400B4
3801E0
2C03C0
1D0B40
0E1E00
0B3800
07F400
03D000
02C000
038000
038000
074000
074000
ENDCHAR
STARTCHAR Phi
ENCODING 934
SWIDTH 699 0
DWIDTH 13 0
BBX 11 13 1 0
BITMAP
001D00
001D00
06FF90
1FBEF4
78383C
F0382C
E0742C
E0B03C
F0B0B4
7DFAE0
1BFE40
01D000
01D000
ENDCHAR
STARTCHAR Chi
ENCODING 935
SWIDTH 612 0
DWIDTH 11 0
BBX 12 13 0 0
BITMAP
0F002D
0B4074
0381E0
02C3C0
00EB40
00BD00
007800
01FC00
03DE00
0B4B00
1D0740
7803C0
F001D0
ENDCHAR
STARTCHAR Psi
ENCODING 936
SWIDTH 675 0
DWIDTH 12 0
BBX 12 13 1 0
BITMAP
382C0E
382C1D
74381D
74382C
B0742C
B07438
74B0B4
3DF6D0
1FFF40
01E400
01D000
01D000
02C000
ENDCHAR
STARTCHAR uni03A9
ENCODING 937
SWIDTH 649 0
DWIDTH 12 0
BBX 11 13 0 0
BITMAP
006F80
02E6F0
0B4074
0E0038
1D002C
2C0038
2C0038
380074
380070
2C00E0
1D02C0
5F5B50
BF6FE0
ENDCHAR
STARTCHAR Iotadieresis
ENCODING 938
SWIDTH 268 0
DWIDTH 5 0
BBX 7 16 0 0
BITMAP
1824
2C38
0000
0740
0740
0B00
0B00
0E00
0E00
1D00
1D00
2C00
2C00
3800
3800
7400
ENDCHAR
STARTCHAR Upsilondieresis
ENCODING 939
SWIDTH 587 0
DWIDTH 11 0
BBX 11 16 1 0
BITMAP
028240
028340
000000
7400B4
3801E0
2C03C0
1D0B40
0E1E00
0B3800
07F400
03D000
02C000
038000
038000
074000
074000
ENDCHAR
STARTCHAR alphatonos
ENCODING 940
SWIDTH 552 0
DWIDTH 10 0
BBX 9 14 1 0
BITMAP
001C00
003400
002000
000000
0BE340
2E6F40
740F00
B00B00
E00E00
D00E00
D01D00
E02D00
B9BE00
2F8F00
ENDCHAR
STARTCHAR epsilontonos
ENCODING 941
SWIDTH 527 0
DWIDTH 10 0
BBX 9 14 0 0
BITMAP
000D00
002C00
002400
000000
06F900
1E5B40
2C0280
1D0000
0BF400
2D5000
740000
B00B00
796E00
1BE400
ENDCHAR
STARTCHAR etatonos
ENCODING 942
SWIDTH 554 0
DWIDTH 10 0
BBX 9 18 0 -4
BITMAP
000E00
001C00
001800
000000
0DBE00
1F9B40
1D0380
2C0380
280380
380740
380740
740700
740B00
B00A00
000E00
000D00
001D00
001C00
ENDCHAR
STARTCHAR iotatonos
ENCODING 943
SWIDTH 318 0
DWIDTH 6 0
BBX 4 14 1 0
BITMAP
07
0A
08
00
2C
28
38
34
74
70
B0
B0
B4
7D
ENDCHAR
STARTCHAR upsilondieresistonos
ENCODING 944
SWIDTH 533 0
DWIDTH 10 0
BBX 8 14 1 0
BITMAP
0074
18A6
1C0A
0000
380E
740E
740A
B00A
B00E
A00E
E01D
A038
B5F4
2F80
ENDCHAR
STARTCHAR alpha
ENCODING 945
SWIDTH 552 0
DWIDTH 10 0
BBX 9 10 1 0
BITMAP
0BE340
2E6F40
740F00
B00B00
E00E00
D00E00
D01D00
E02D00
B9BE00
2F8F00
ENDCHAR
STARTCHAR beta
ENCODING 946
SWIDTH 579 0
DWIDTH 10 0
BBX 10 16 0 -3
BITMAP
00BE40
03D6D0
0B00E0
0E01D0
0D06C0
1D7F00
1C1B40
2C02C0
3801C0
3802C0
740780
7E6F00
B6F800
B00000
E00000
E00000
ENDCHAR
STARTCHAR gamma
ENCODING 947
SWIDTH 490 0
DWIDTH 9 0
BBX 8 14 1 -4
BITMAP
A00B
B01D
702C
7434
34B0
38D0
2AC0
2F40
1F00
1D00
1D00
2C00
2C00
3800
ENDCHAR
STARTCHAR delta
ENCODING 948
SWIDTH 554 0
DWIDTH 10 0
BBX 9 14 0 0
BITMAP
00BF80
02E680
038000
038000
01F400
01FE00
0A0B40
2C03C0
3802C0
7402C0
740380
380740
2E6E00
0BE400
ENDCHAR
STARTCHAR epsilon
ENCODING 949
SWIDTH 527 0
DWIDTH 10 0
BBX 9 10 0 0
BITMAP
06F900
1E5B40
2C0280
1D0000
0BF400
2D5000
740000
B00B00
796E00
1BE400
ENDCHAR
STARTCHAR zeta
ENCODING 950
SWIDTH 507 0
DWIDTH 9 0
BBX 9 16 1 -3
BITMAP
3FFF40
155F00
002C00
00B400
02D000
0B4000
1D0000
380000
740000
B00000
B00000
790000
2FD000
01E000
00D000
028000
ENDCHAR
STARTCHAR eta
ENCODING 951
SWIDTH 554 0
DWIDTH 10 0
BBX 9 14 0 -4
BITMAP
0DBE00
1F9B40
1D0380
2C0380
280380
380740
380740
740700
740B00
B00A00
000E00
000D00
001D00
001C00
ENDCHAR
STARTCHAR theta
ENCODING 952
SWIDTH 557 0
DWIDTH 10 0
BBX 9 13 1 0
BITMAP
02F800
0E5E00
280700
340740
700740
BFFF40
A55B00
E00B00
E00E00
E01D00
B02C00
79B400
1F9000
ENDCHAR
STARTCHAR iota
ENCODING 953
SWIDTH 318 0
DWIDTH 6 0
BBX 4 10 1 0
BITMAP
2C
28
38
34
74
70
B0
B0
B4
7D
ENDCHAR
STARTCHAR kappa
ENCODING 954
SWIDTH 544 0
DWIDTH 10 0
BBX 10 10 0 0
BITMAP
0E02D0
1D0B40
1D2D00
2CB400
2FD000
3AE000
38B400
743800
741D00
B00F00
ENDCHAR
STARTCHAR lambda
ENCODING 955
SWIDTH 541 0
DWIDTH 10 0
BBX 10 13 -1 0
BITMAP
01E000
00B400
003800
002C00
003C00
007D00
00EE00
02DE00
038B00
0B0700
1E0740
2C0390
7401D0
ENDCHAR
STARTCHAR uni03BC
ENCODING 956
SWIDTH 554 0
DWIDTH 10 0
BBX 10 14 0 -4
BITMAP
0E01D0
1D02C0
1D02C0
2C0380
2C0380
380740
380740
780B00
7E6F00
BBEA00
B00000
A00000
E00000
D00000
ENDCHAR
STARTCHAR nu
ENCODING 957
SWIDTH 474 0
DWIDTH 9 0
BBX 8 10 1 0
BITMAP
E00E
A02C
B038
7070
74E0
35D0
2A80
2F40
1E00
1D00
ENDCHAR
STARTCHAR xi
ENCODING 958
SWIDTH 480 0
DWIDTH 9 0
BBX 9 16 0 -3
BITMAP
00BF80
03E540
074000
0B0000
078000
01FE00
0B9400
2D0000
380000
740000
380000
1E4000
06F800
002C00
003800
006000
ENDCHAR
STARTCHAR omicron
ENCODING 959
SWIDTH 558 0
DWIDTH 10 0
BBX 9 10 0 0
BITMAP
01FD00
0B9B40
1D02C0
3801C0
3401C0
7402C0
740380
380740
1E6E00
07F400
ENDCHAR
STARTCHAR pi
ENCODING 960
SWIDTH 582 0
DWIDTH 10 0
BBX 10 10 1 0
BITMAP
FFFFD0
7D5F40
380E00
380E00
741D00
741D00
B02C00
B02C00
E02D40
E00B40
ENDCHAR
STARTCHAR rho
ENCODING 961
SWIDTH 554 0
DWIDTH 10 0
BBX 10 14 -1 -4
BITMAP
007F40
01E6D0
0380E0
0700B0
0B00B0
0E00A0
0D00E0
1D02D0
1F9B80
2DBE00
2C0000
380000
380000
740000
ENDCHAR
STARTCHAR sigma1
ENCODING 962
SWIDTH 526 0
DWIDTH 9 0
BBX 8 13 1 -3
BITMAP
07E4
2E6D
740E
B005
E000
D000
E000
B400
7E40
0BE0
00A0
00D0
0180
ENDCHAR
STARTCHAR sigma
ENCODING 963
SWIDTH 554 0
DWIDTH 10 0
BBX 11 10 0 0
BITMAP
02FFF4
0B9B50
2D0380
3802C0
7402C0
7402C0
740380
380B40
2E6D00
0BE400
ENDCHAR
STARTCHAR tau
ENCODING 964
SWIDTH 510 0
DWIDTH 9 0
BBX 8 10 1 0
BITMAP
BFFF
5795
0380
0740
0740
0B00
0B00
0A00
0B40
07D0
ENDCHAR
STARTCHAR upsilon
ENCODING 965
SWIDTH 533 0
DWIDTH 10 0
BBX 8 10 1 0
BITMAP
380E
740E
740A
B00A
B00E
A00E
E01D
A038
B5F4
2F80
ENDCHAR
STARTCHAR phi
ENCODING 966
SWIDTH 688 0
DWIDTH 12 0
BBX 12 14 0 -4
BITMAP
0207E0
0B4E78
1D1D1D
3C1C0E
382C0E
742C0D
38382D
3C3878
1FBAE0
06FE40
00B000
00A000
00E000
00D000
ENDCHAR
STARTCHAR chi
ENCODING 967
SWIDTH 485 0
DWIDTH 9 0
BBX 11 14 -1 -4
BITMAP
0B4074
06D0E0
00E1D0
00A380
007B00
007D00
003800
00B800
01FC00
02DD00
074D00
0E0A00
2D0780
7802C0
ENDCHAR
STARTCHAR psi
ENCODING 968
SWIDTH 684 0
DWIDTH 12 0
BBX 11 14 1 -4
BITMAP
743874
B03438
B07438
E0B038
E0B038
E0E074
E0E0B0
B1D1E0
7EEB80
1BF900
02C000
028000
038000
074000
ENDCHAR
STARTCHAR omega
ENCODING 969
SWIDTH 803 0
DWIDTH 14 0
BBX 13 10 1 0
BITMAP
1D000B00
38000740
74040740
B01C0740
E02C0740
E02C0700
D0380B00
E07C0D00
B5DE7C00
2F47E000
ENDCHAR
STARTCHAR iotadieresis
ENCODING 970
SWIDTH 318 0
DWIDTH 6 0
BBX 6 13 1 0
BITMAP
9190
E1D0
0000
2C00
2800
3800
3400
7400
7000
B000
B000
B400
7D00
ENDCHAR
STARTCHAR upsilondieresis
ENCODING 971
SWIDTH 533 0
DWIDTH 10 0
BBX 8 13 1 0
BITMAP
0A09
0A1D
0000
380E
740E
740A
B00A
B00E
A00E
E01D
A038
B5F4
2F80
ENDCHAR
STARTCHAR omicrontonos
ENCODING 972
SWIDTH 558 0
DWIDTH 10 0
BBX 9 14 0 0
BITMAP
000D00
001C00
002400
000000
01FD00
0B9B40
1D02C0
3801C0
3401C0
7402C0
740380
380740
1E6E00
07F400
ENDCHAR
STARTCHAR upsilontonos
ENCODING 973
SWIDTH 533 0
DWIDTH 10 0
BBX 8 14 1 0
BITMAP
0074
00A0
0090
0000
380E
740E
740A
B00A
B00E
A00E
E01D
A038
B5F4
2F80
ENDCHAR
STARTCHAR omegatonos
ENCODING 974
SWIDTH 803 0
DWIDTH 14 0
BBX 13 14 1 0
BITMAP
0002C000
00034000
00060000
00000000
1D000B00
38000740
74040740
B01C0740
E02C0740
E02C0700
D0380B00
E07C0D00
B5DE7C00
2F47E000
ENDCHAR
STARTCHAR theta1
ENCODING 977
SWIDTH 565 0
DWIDTH 10 0
BBX 9 13 1 0
BITMAP
00BD00
02DB00
074740
074740
074B00
02DB00
A0BFC0
E01E40
E00D00
D01D00
E02C00
B9B400
2F9000
ENDCHAR
STARTCHAR Upsilon1
ENCODING 978
SWIDTH 520 0
DWIDTH 9 0
BBX 10 13 1 0
BITMAP
F002E0
B80790
2C0E00
1D2D00
0D3800
0AB000
0BD000
078000
074000
074000
0B0000
0B0000
0E0000
ENDCHAR
STARTCHAR omega1
ENCODING 982
SWIDTH 766 0
DWIDTH 14 0
BBX 13 10 1 0
BITMAP
BFFFFFC0
79555E40
74000E00
B0280E00
E0380E00
E0380E00
E0781D00
E0B82C00
B6DDB400
2E4BD000
ENDCHAR
STARTCHAR uni0400
ENCODING 1024
SWIDTH 556 0
DWIDTH 10 0
BBX 11 17 0 0
BITMAP
003800
002C00
000900
000000
07FFF4
0B5550
0B0000
0E0000
0E0000
1E0000
1FFF80
2D5540
2C0000
380000
380000
795540
7FFF80
ENDCHAR
STARTCHAR uni0401
ENCODING 1025
SWIDTH 556 0
DWIDTH 10 0
BBX 11 16 0 0
BITMAP
006090
00A0E0
000000
07FFF4
0B5550
0B0000
0E0000
0E0000
1E0000
1FFF80
2D5540
2C0000
380000
380000
795540
7FFF80
ENDCHAR
STARTCHAR uni0402
ENCODING 1026
SWIDTH 731 0
DWIDTH 13 0
BBX 12 13 1 0
BITMAP
7FFFF4
55E550
01D000
01D000
02C000
02EFD0
03EAB8
03802C
07402D
07402C
0B0038
0B06F4
0E0B80
ENDCHAR
STARTCHAR uni0403
ENCODING 1027
SWIDTH 544 0
DWIDTH 10 0
BBX 11 17 0 0
BITMAP
0001E0
000780
000A00
000000
07FFF4
079550
0B0000
0B0000
0E0000
0E0000
1D0000
1D0000
2C0000
2C0000
380000
380000
740000
ENDCHAR
STARTCHAR uni0404
ENCODING 1028
SWIDTH 658 0
DWIDTH 12 0
BBX 10 13 1 0
BITMAP
01BE40
0796D0
1E00F0
3C00B0
740010
B00000
BFF800
F55400
E00040
A002C0
740780
3E6F00
0BF800
ENDCHAR
STARTCHAR uni0405
ENCODING 1029
SWIDTH 580 0
DWIDTH 10 0
BBX 11 13 0 0
BITMAP
01BF40
07E6E0
0F00B4
0E0074
0E0000
0BD000
01FE00
001B80
0002D0
B001D0
7402C0
2E5B40
0BF900
ENDCHAR
STARTCHAR uni0406
ENCODING 1030
SWIDTH 268 0
DWIDTH 5 0
BBX 5 13 0 0
BITMAP
0740
0740
0B00
0B00
0E00
0E00
1D00
1D00
2C00
2C00
3800
3800
7400
ENDCHAR
STARTCHAR uni0407
ENCODING 1031
SWIDTH 268 0
DWIDTH 5 0
BBX 7 16 0 0
BITMAP
1824
2C38
0000
0740
0740
0B00
0B00
0E00
0E00
1D00
1D00
2C00
2C00
3800
3800
7400
ENDCHAR
STARTCHAR uni0408
ENCODING 1032
SWIDTH 540 0
DWIDTH 10 0
BBX 10 13 0 0
BITMAP
0000E0
0001D0
0001D0
0002C0
0002C0
000380
000380
000740
000740
A00B00
B01E00
79BC00
1BE000
ENDCHAR
STARTCHAR uni0409
ENCODING 1033
SWIDTH 1043 0
DWIDTH 19 0
BBX 19 13 -1 0
BITMAP
002FFFC000
002D578000
0038038000
0074074000
0074074000
00B00BFF90
00E00B55F0
00E00E0038
01D00E0038
02C01D0038
03801D00B4
2F002D56E0
78002FFE40
ENDCHAR
STARTCHAR uni040A
ENCODING 1034
SWIDTH 1052 0
DWIDTH 19 0
BBX 18 13 0 0
BITMAP
07400B0000
07400B0000
0B000A0000
0B000E0000
0E000D0000
0E001FFE40
1FFFFD57D0
1E556C00E0
2C002800B0
2C003800E0
38007402D0
3800796B80
7400BFF900
ENDCHAR
STARTCHAR uni040B
ENCODING 1035
SWIDTH 793 0
DWIDTH 14 0
BBX 12 13 1 0
BITMAP
7FFFF4
15E550
00E000
01D000
01C000
02EFE4
02E5BC
03801D
03801D
07401D
07401D
0B002C
0E002C
ENDCHAR
STARTCHAR uni040C
ENCODING 1036
SWIDTH 612 0
DWIDTH 11 0
BBX 12 17 0 0
BITMAP
0002D0
000B40
000A00
000000
07402D
0B00B4
0B02D0
0E0B40
0E2D00
1DB400
1FF400
2E2C00
2C1D00
380B00
380780
7402C0
7400E0
ENDCHAR
STARTCHAR uni040D
ENCODING 1037
SWIDTH 696 0
DWIDTH 13 0
BBX 12 17 0 0
BITMAP
001E00
000B00
000240
000000
07400B
07402F
0B007E
0B00EE
0E039D
0E0B1D
1D1D2C
1D742C
2CE038
2EC038
3F4074
3D0074
7800B0
ENDCHAR
STARTCHAR uni040E
ENCODING 1038
SWIDTH 614 0
DWIDTH 11 0
BBX 11 16 1 0
BITMAP
00D280
007E00
000000
3C0078
2C00F0
1D02D0
0E0380
0B0B40
075E00
076C00
03F400
02F000
02D000
038000
5F0000
B90000
ENDCHAR
STARTCHAR uni040F
ENCODING 1039
SWIDTH 696 0
DWIDTH 13 0
BBX 12 16 0 -3
BITMAP
07400B
07400B
0B000E
0B000E
0E001D
0E001D
1D002C
1D002C
2C0038
2C0038
380074
7955B4
7FFFF0
00B000
00B000
00E000
ENDCHAR
STARTCHAR uni0410
ENCODING 1040
SWIDTH 637 0
DWIDTH 11 0
BBX 11 13 -1 0
BITMAP
000380
000BC0
000ED0
002CD0
0074E0
00B0A0
01D0B0
028070
07FFF4
0E5578
1D0028
38002C
74001C
ENDCHAR
STARTCHAR uni0411
ENCODING 1041
SWIDTH 616 0
DWIDTH 11 0
BBX 11 13 0 0
BITMAP
07FFF4
0B5550
0B0000
0E0000
0E0000
1FFE40
1D56D0
2C00F0
2C00B0
3800F0
3801E0
795B80
7FFE00
ENDCHAR
STARTCHAR uni0412
ENCODING 1042
SWIDTH 608 0
DWIDTH 11 0
BBX 11 13 0 0
BITMAP
07FF80
0B56E0
0B00B4
0E0074
0E00B0
1E02D0
1FFF40
2D57C0
2C00E0
3800E0
3802D0
795B80
7FF900
ENDCHAR
STARTCHAR uni0413
ENCODING 1043
SWIDTH 544 0
DWIDTH 10 0
BBX 11 13 0 0
BITMAP
07FFF4
079550
0B0000
0B0000
0E0000
0E0000
1D0000
1D0000
2C0000
2C0000
380000
380000
740000
ENDCHAR
STARTCHAR uni0414
ENCODING 1044
SWIDTH 734 0
DWIDTH 13 0
BBX 14 16 -1 -3
BITMAP
001FFFD0
001D56C0
002C02C0
00380380
00380380
00740740
00B00740
00E00B00
01D00B00
02C00E00
07400E00
1F556E40
7FFFFF80
B0000380
B0000740
E0000740
ENDCHAR
STARTCHAR uni0415
ENCODING 1045
SWIDTH 556 0
DWIDTH 10 0
BBX 11 13 0 0
BITMAP
07FFF4
0B5550
0B0000
0E0000
0E0000
1E0000
1FFF80
2D5540
2C0000
380000
380000
795540
7FFF80
ENDCHAR
STARTCHAR uni0416
ENCODING 1046
SWIDTH 885 0
DWIDTH 16 0
BBX 18 13 -1 0
BITMAP
03C02C02D0
01D02C0780
00E0380F00
00B0382D00
0034747400
002C75E000
002FFFC000
0079F6D000
00F0E1E000
02D0E0B000
0B41D07800
2E01D03C00
7802C01E00
ENDCHAR
STARTCHAR uni0417
ENCODING 1047
SWIDTH 580 0
DWIDTH 10 0
BBX 11 13 0 0
BITMAP
01BE40
07D6E0
0E00B0
090074
0000B0
0002D0
00FF40
005B80
0001D0
6001D0
7402C0
3E6F40
0BF900
ENDCHAR
STARTCHAR uni0418
ENCODING 1048
SWIDTH 696 0
DWIDTH 13 0
BBX 12 13 0 0
BITMAP
07400B
07402F
0B007E
0B00EE
0E039D
0E0B1D
1D1D2C
1D742C
2CE038
2EC038
3F4074
3D0074
7800B0
ENDCHAR
STARTCHAR uni0419
ENCODING 1049
SWIDTH 696 0
DWIDTH 13 0
BBX 12 16 0 0
BITMAP
001C34
000BE0
000000
07400B
07402F
0B007E
0B00EE
0E039D
0E0B1D
1D1D2C
1D742C
2CE038
2EC038
3F4074
3D0074
7800B0
ENDCHAR
STARTCHAR uni041A
ENCODING 1050
SWIDTH 628 0
DWIDTH 11 0
BBX 12 13 0 0
BITMAP
07401E
074078
0B01F0
0B03C0
0E0F40
0E2D00
1FF800
1E7800
2C2D00
2C0F00
380780
3802D0
7400F0
ENDCHAR
STARTCHAR uni041B
ENCODING 1051
SWIDTH 691 0
DWIDTH 12 0
BBX 13 13 -1 0
BITMAP
002FFFC0
003D57C0
00380380
00740380
00700740
00B00740
00E00B00
00E00B00
01D00E00
02C00E00
07801D00
2F001D00
79002C00
ENDCHAR
STARTCHAR uni041C
ENCODING 1052
SWIDTH 851 0
DWIDTH 15 0
BBX 15 13 0 0
BITMAP
07C0007C
0BC000FC
0BD001F8
0EE003B8
0EA00B74
1DB00E74
1D742CB0
2C3474A0
2C38B0E0
3829D0D0
381F81D0
741F42C0
740E02C0
ENDCHAR
STARTCHAR uni041D
ENCODING 1053
SWIDTH 696 0
DWIDTH 13 0
BBX 13 13 0 0
BITMAP
07400740
0B000B00
0B000B00
0F000E00
0E000E00
1E001D00
1FFFFD00
2D556C00
2C002C00
38003800
38003800
74007400
74007000
ENDCHAR
STARTCHAR uni041E
ENCODING 1054
SWIDTH 671 0
DWIDTH 12 0
BBX 11 13 1 0
BITMAP
01BE40
0BABD0
1E00F0
380070
740074
B00074
B00074
E000B0
E000E0
B001D0
740380
2E6F00
0BF800
ENDCHAR
STARTCHAR uni041F
ENCODING 1055
SWIDTH 696 0
DWIDTH 13 0
BBX 12 13 0 0
BITMAP
07FFFF
07955B
0B000E
0B000E
0E001D
0E001D
1D002C
1D002C
2C0038
2C0038
380074
380074
7400B0
ENDCHAR
STARTCHAR uni0420
ENCODING 1056
SWIDTH 616 0
DWIDTH 11 0
BBX 11 13 0 0
BITMAP
07FF90
0B55F4
0B0038
0E002C
0E002C
1E0038
1D01F4
2FFFD0
2D5500
3C0000
380000
740000
740000
ENDCHAR
STARTCHAR uni0421
ENCODING 1057
SWIDTH 636 0
DWIDTH 11 0
BBX 10 13 1 0
BITMAP
01BE40
0B96D0
1E00E0
3800B0
740010
B00000
B00000
E00000
E00040
B002C0
B40780
3E6E00
0BF800
ENDCHAR
STARTCHAR uni0422
ENCODING 1058
SWIDTH 583 0
DWIDTH 11 0
BBX 11 13 1 0
BITMAP
7FFFF4
55B550
00B000
00E000
00E000
01D000
01D000
02C000
02C000
038000
038000
074000
074000
ENDCHAR
STARTCHAR uni0423
ENCODING 1059
SWIDTH 614 0
DWIDTH 11 0
BBX 11 13 1 0
BITMAP
3C0078
2C00F0
1D02D0
0E0380
0B0B40
075E00
076C00
03F400
02F000
02D000
038000
5F0000
B90000
ENDCHAR
STARTCHAR uni0424
ENCODING 1060
SWIDTH 753 0
DWIDTH 14 0
BBX 12 14 1 -1
BITMAP
000B00
000E00
02FFE0
1F9E7C
381D0E
B02C0B
E02C0B
E0380B
E0380E
B0742C
3DB6F4
0BFF80
00B000
00E000
ENDCHAR
STARTCHAR uni0425
ENCODING 1061
SWIDTH 612 0
DWIDTH 11 0
BBX 12 13 0 0
BITMAP
0F002D
0B4074
0381E0
02C3C0
00EB40
00BD00
007800
01FC00
03DE00
0B4B00
1D0740
7803C0
F001D0
ENDCHAR
STARTCHAR uni0426
ENCODING 1062
SWIDTH 713 0
DWIDTH 13 0
BBX 12 16 0 -3
BITMAP
07400B
07400B
0B000E
0B000E
0E001D
0E001D
1D002C
1D002C
2C0038
280038
380074
7955B9
7FFFFD
00001C
00002C
000028
ENDCHAR
STARTCHAR uni0427
ENCODING 1063
SWIDTH 668 0
DWIDTH 12 0
BBX 10 13 2 0
BITMAP
7400E0
B000E0
B001D0
E002D0
E002C0
B407C0
7FFF80
055780
000740
000740
000B00
000B00
000E00
ENDCHAR
STARTCHAR uni0428
ENCODING 1064
SWIDTH 917 0
DWIDTH 17 0
BBX 16 13 0 0
BITMAP
07407407
0740B00B
0B00B00E
0B00E00E
0E00E01D
0E01D01D
1D01D02C
1D02C02C
2C02C038
2C038038
38038074
795B95B4
7FFFFFF0
ENDCHAR
STARTCHAR uni0429
ENCODING 1065
SWIDTH 944 0
DWIDTH 17 0
BBX 16 16 0 -3
BITMAP
07407407
0740B00B
0B00B00E
0B00E00E
0E00E01D
0E01D01D
1D01D02C
1D02C02C
2C02C038
2C038038
38038074
795B95B8
7FFFFFFD
0000001C
0000002C
00000028
ENDCHAR
STARTCHAR uni042A
ENCODING 1066
SWIDTH 740 0
DWIDTH 13 0
BBX 12 13 1 0
BITMAP
BFE000
56D000
01C000
02C000
038000
03FFE0
0795B8
07402C
0B001D
0B002C
0E0078
0E56F4
1FFF80
ENDCHAR
STARTCHAR uni042B
ENCODING 1067
SWIDTH 843 0
DWIDTH 15 0
BBX 15 13 0 0
BITMAP
07400038
07400038
0B000074
0B000074
0E0000B0
0FFF40B0
1E56E0E0
1C00B0E0
2C00B1D0
2800B1D0
3801E2C0
395BC2C0
7FFE0380
ENDCHAR
STARTCHAR uni042C
ENCODING 1068
SWIDTH 613 0
DWIDTH 11 0
BBX 10 13 0 0
BITMAP
074000
0B0000
0B0000
0E0000
0E0000
1FFE40
1D56D0
2C00F0
2C00B0
3800F0
3801E0
795B80
7FFE00
ENDCHAR
STARTCHAR uni042D
ENCODING 1069
SWIDTH 658 0
DWIDTH 12 0
BBX 10 13 1 0
BITMAP
01BE40
0B9BD0
1D00E0
2C00B0
1000B0
0000B0
01FFF0
0155F0
5000E0
E001D0
B00780
3E6E00
0BE400
ENDCHAR
STARTCHAR uni042E
ENCODING 1070
SWIDTH 872 0
DWIDTH 16 0
BBX 16 13 0 0
BITMAP
07406F90
0742EAF4
0B0B8038
0A1E002C
0E2D001D
0FFC001D
1D78001C
1C38002C
2C380038
282C0074
381D01E0
340B9B80
7402FD00
ENDCHAR
STARTCHAR uni042F
ENCODING 1071
SWIDTH 622 0
DWIDTH 11 0
BBX 11 13 0 0
BITMAP
00BFF8
03E578
0B4074
0E0074
0E0070
0E00B0
0B40A0
02FFE0
02D5D0
0B41D0
1D02C0
3802C0
B00380
ENDCHAR
STARTCHAR uni0430
ENCODING 1072
SWIDTH 532 0
DWIDTH 10 0
BBX 9 10 0 0
BITMAP
02F900
0F5B00
1D0740
000740
06FF40
2D4B00
740B00
741E00
79BE00
1F9E00
ENDCHAR
STARTCHAR uni0431
ENCODING 1073
SWIDTH 541 0
DWIDTH 10 0
BBX 10 14 0 0
BITMAP
0000A0
001BD0
01FE40
079000
0E0000
1DBD00
2F5B40
3C03C0
3802C0
7402C0
740380
380740
2E6E00
07F400
ENDCHAR
STARTCHAR uni0432
ENCODING 1074
SWIDTH 559 0
DWIDTH 10 0
BBX 9 10 0 0
BITMAP
0FFE00
1E57C0
1D02C0
2C0780
2FFE00
395B40
380380
340340
795F00
7FF900
ENDCHAR
STARTCHAR uni0433
ENCODING 1075
SWIDTH 411 0
DWIDTH 7 0
BBX 8 10 0 0
BITMAP
0FFE
1E55
1D00
2C00
2C00
3800
3800
7400
7400
B000
ENDCHAR
STARTCHAR uni0434
ENCODING 1076
SWIDTH 590 0
DWIDTH 11 0
BBX 11 13 -1 -3
BITMAP
00BFF4
00BAB4
00E070
00D0B0
01D0A0
02C0E0
0380D0
0B01D0
2E56D0
7FFFF4
B000B0
A000B0
E000E0
ENDCHAR
STARTCHAR uni0435
ENCODING 1077
SWIDTH 518 0
DWIDTH 9 0
BBX 9 10 0 0
BITMAP
01F900
0B9B00
1D0340
380380
3FFF80
795540
740000
380100
1E6E00
07F400
ENDCHAR
STARTCHAR uni0436
ENCODING 1078
SWIDTH 747 0
DWIDTH 13 0
BBX 15 10 -1 0
BITMAP
0741C0B4
0382C2D0
02C28780
00E38E00
00BFFC00
01EBAC00
03870E00
0B0B0B00
2D0A0740
780E03C0
ENDCHAR
STARTCHAR uni0437
ENCODING 1079
SWIDTH 497 0
DWIDTH 9 0
BBX 8 10 0 0
BITMAP
06F9
1E5F
2807
001E
03F8
016D
000E
B01D
797C
1BE0
ENDCHAR
STARTCHAR uni0438
ENCODING 1080
SWIDTH 564 0
DWIDTH 10 0
BBX 10 10 0 0
BITMAP
0E02D0
1D07D0
1D0FC0
2C2EC0
2CB780
39D380
3B8740
7F0740
7D0B00
B40B00
ENDCHAR
STARTCHAR uni0439
ENCODING 1081
SWIDTH 564 0
DWIDTH 10 0
BBX 10 13 0 0
BITMAP
00D280
007E00
000000
0E02D0
1D07D0
1D0FC0
2C2EC0
2CB780
39D380
3B8740
7F0740
7D0B00
B40B00
ENDCHAR
STARTCHAR uni043A
ENCODING 1082
SWIDTH 528 0
DWIDTH 10 0
BBX 10 10 0 0
BITMAP
0E02D0
1D0B40
1D2D00
2CB400
2FD000
39E000
387400
743C00
741D00
B00F00
ENDCHAR
STARTCHAR uni043B
ENCODING 1083
SWIDTH 565 0
DWIDTH 10 0
BBX 11 10 -1 0
BITMAP
00FFF4
00E5B4
01D0B0
01C0B0
02C0E0
0280E0
0341D0
0701D0
2E02C0
7802C0
ENDCHAR
STARTCHAR uni043C
ENCODING 1084
SWIDTH 724 0
DWIDTH 13 0
BBX 13 10 0 0
BITMAP
0F400F40
1F402F00
1F803F00
2EC0BE00
2DC1DE00
38D28D00
38A75D00
34BE1C00
747C2C00
70342800
ENDCHAR
STARTCHAR uni043D
ENCODING 1085
SWIDTH 564 0
DWIDTH 10 0
BBX 10 10 0 0
BITMAP
0E01D0
1D01D0
1D02C0
2C02C0
2FFF80
395780
380740
740740
740B00
B00B00
ENDCHAR
STARTCHAR uni043E
ENCODING 1086
SWIDTH 558 0
DWIDTH 10 0
BBX 9 10 0 0
BITMAP
01FD00
0B9B40
1D02C0
3801C0
3401C0
7402C0
740380
380740
1E6E00
07F400
ENDCHAR
STARTCHAR uni043F
ENCODING 1087
SWIDTH 564 0
DWIDTH 10 0
BBX 10 10 0 0
BITMAP
0FFFD0
1E56D0
1D02C0
2C02C0
2C0380
380380
380740
740740
740B00
B00B00
ENDCHAR
STARTCHAR uni0440
ENCODING 1088
SWIDTH 549 0
DWIDTH 10 0
BBX 10 14 -1 -4
BITMAP
036F40
07E6D0
0740E0
0B00B0
0A00B0
0E00A0
0D00E0
1D02C0
1F5B80
2DBD00
280000
380000
340000
740000
ENDCHAR
STARTCHAR uni0441
ENCODING 1089
SWIDTH 512 0
DWIDTH 9 0
BBX 9 10 0 0
BITMAP
02F900
0B9B40
2D0380
380140
340000
740000
740100
380B00
2E6D00
0BE400
ENDCHAR
STARTCHAR uni0442
ENCODING 1090
SWIDTH 470 0
DWIDTH 8 0
BBX 8 10 1 0
BITMAP
FFFE
5795
0740
0700
0B00
0A00
0E00
0D00
1D00
1C00
ENDCHAR
STARTCHAR uni0443
ENCODING 1091
SWIDTH 463 0
DWIDTH 8 0
BBX 10 14 -1 -4
BITMAP
0E01E0
0B02C0
0B0380
070B00
074E00
035C00
03B800
02F400
02E000
01D000
028000
074000
6E0000
B80000
ENDCHAR
STARTCHAR uni0444
ENCODING 1092
SWIDTH 708 0
DWIDTH 13 0
BBX 12 18 0 -4
BITMAP
000740
000740
000B00
000B00
02FFF4
0F5E6D
2D1D0E
381D0E
342C0E
742C0E
74381D
74382C
3DB9B4
1BFFD0
00B000
00B000
00E000
00E000
ENDCHAR
STARTCHAR uni0445
ENCODING 1093
SWIDTH 485 0
DWIDTH 9 0
BBX 10 10 -1 0
BITMAP
0B01E0
034380
02CB00
01ED00
00B400
00F400
02E800
0B5D00
1D0E00
780B40
ENDCHAR
STARTCHAR uni0446
ENCODING 1094
SWIDTH 579 0
DWIDTH 10 0
BBX 10 13 0 -3
BITMAP
0E01D0
1D01D0
1D02C0
2C02C0
2C0380
380380
380740
740740
795B40
BFFFC0
000280
000380
000340
ENDCHAR
STARTCHAR uni0447
ENCODING 1095
SWIDTH 532 0
DWIDTH 10 0
BBX 8 10 1 0
BITMAP
740B
B00E
B00E
B01D
B42D
2FFC
056C
0038
0038
0074
ENDCHAR
STARTCHAR uni0448
ENCODING 1096
SWIDTH 789 0
DWIDTH 14 0
BBX 14 10 0 0
BITMAP
0E0380D0
1D0741D0
1D0741C0
2C0B02C0
2C0B02C0
380E0380
380E0380
741D0740
796D5B40
BFFFFF00
ENDCHAR
STARTCHAR uni0449
ENCODING 1097
SWIDTH 807 0
DWIDTH 15 0
BBX 14 13 0 -3
BITMAP
0D0341D0
1D0741D0
1C0702C0
2C0B02C0
280A0380
380E0380
340D0740
741D0740
756D5B40
BFFFFFD0
000002C0
00000280
00000380
ENDCHAR
STARTCHAR uni044A
ENCODING 1098
SWIDTH 606 0
DWIDTH 11 0
BBX 9 10 1 0
BITMAP
FF4000
5B0000
0B0000
0FFE00
0E5B80
1D02C0
1D02C0
2C0380
2D5B40
3FF900
ENDCHAR
STARTCHAR uni044B
ENCODING 1099
SWIDTH 757 0
DWIDTH 14 0
BBX 13 10 0 0
BITMAP
0E000380
1D000340
1D000740
2FF80700
2D5F0B00
38074A00
38074E00
340B0D00
796E1D00
7FE41C00
ENDCHAR
STARTCHAR uni044C
ENCODING 1100
SWIDTH 531 0
DWIDTH 10 0
BBX 9 10 0 0
BITMAP
0E0000
1D0000
1D0000
2FF800
2D5F00
380740
380740
340B00
796E00
7FE400
ENDCHAR
STARTCHAR uni044D
ENCODING 1101
SWIDTH 526 0
DWIDTH 9 0
BBX 9 10 0 0
BITMAP
02F800
0F5E00
2C0740
000340
02FF40
015B40
500B00
741E00
3D7C00
0BE000
ENDCHAR
STARTCHAR uni044E
ENCODING 1102
SWIDTH 796 0
DWIDTH 14 0
BBX 14 10 0 0
BITMAP
0E01BE00
1D079B80
1D1E01C0
2C2C01D0
2FF801D0
397801D0
383802C0
342C0780
741E5E00
7006F800
ENDCHAR
STARTCHAR uni044F
ENCODING 1103
SWIDTH 537 0
DWIDTH 10 0
BBX 10 10 -1 0
BITMAP
01BFF0
0795E0
0B00E0
0E01D0
0B41D0
07FFC0
02D6C0
0B4280
1D0380
780740
ENDCHAR
STARTCHAR uni0450
ENCODING 1104
SWIDTH 518 0
DWIDTH 9 0
BBX 9 14 0 0
BITMAP
01E000
00B000
002400
000000
01F900
0B9B00
1D0340
380380
3FFF80
795540
740000
380100
1E6E00
07F400
ENDCHAR
STARTCHAR uni0451
ENCODING 1105
SWIDTH 518 0
DWIDTH 9 0
BBX 9 13 0 0
BITMAP
028240
028340
000000
01F900
0B9B00
1D0340
380380
3FFF80
795540
740000
380100
1E6E00
07F400
ENDCHAR
STARTCHAR uni0452
ENCODING 1106
SWIDTH 539 0
DWIDTH 10 0
BBX 9 18 0 -4
BITMAP
070000
0B0000
3FF400
1E5000
0DBE00
1F9B40
1D0380
2C0380
280340
380740
340700
740B00
700A00
B00E00
000D00
001D00
017C00
02E000
ENDCHAR
STARTCHAR uni0453
ENCODING 1107
SWIDTH 411 0
DWIDTH 7 0
BBX 8 14 0 0
BITMAP
002D
0074
00A0
0000
0FFE
1E55
1D00
2C00
2C00
3800
3800
7400
7400
B000
ENDCHAR
STARTCHAR uni0454
ENCODING 1108
SWIDTH 526 0
DWIDTH 9 0
BBX 8 10 1 0
BITMAP
07F4
2E6D
740A
A005
FFC0
E540
D004
E02C
79B8
1F90
ENDCHAR
STARTCHAR uni0455
ENCODING 1109
SWIDTH 504 0
DWIDTH 9 0
BBX 9 10 0 0
BITMAP
02F800
0F5F00
2C0740
1D0000
0B9000
01BD00
000E00
740E00
3D6D00
1BE400
ENDCHAR
STARTCHAR uni0456
ENCODING 1110
SWIDTH 240 0
DWIDTH 4 0
BBX 4 14 0 0
BITMAP
06
07
00
00
0E
1D
1D
2C
2C
38
38
74
74
B0
ENDCHAR
STARTCHAR uni0457
ENCODING 1111
SWIDTH 244 0
DWIDTH 4 0
BBX 6 13 0 0
BITMAP
6460
74B0
0000
0E00
1D00
1D00
2C00
2C00
3800
3800
7400
7400
B000
ENDCHAR
STARTCHAR uni0458
ENCODING 1112
SWIDTH 236 0
DWIDTH 4 0
BBX 6 18 -2 -4
BITMAP
0060
00A0
0000
0000
00D0
01D0
01C0
02C0
02C0
0380
0380
0740
0740
0B00
0B00
0E00
6D00
F800
ENDCHAR
STARTCHAR uni0459
ENCODING 1113
SWIDTH 827 0
DWIDTH 15 0
BBX 15 10 -1 0
BITMAP
00FFF000
00E5B000
01D0E000
01C0E000
02C0FFE0
0381E5B8
0341C028
0B02C038
6E02D5B4
7803FF90
ENDCHAR
STARTCHAR uni045A
ENCODING 1114
SWIDTH 840 0
DWIDTH 15 0
BBX 14 10 0 0
BITMAP
0E01D000
1D01D000
1D02C000
2C02C000
2FFFFF80
395795E0
380740B0
740740B0
740B56D0
B00BFE40
ENDCHAR
STARTCHAR uni045B
ENCODING 1115
SWIDTH 554 0
DWIDTH 10 0
BBX 9 14 0 0
BITMAP
070000
0B0000
3FF400
1E5000
0DBE00
1F9B40
1D0380
2C0380
280340
380740
340700
740B00
700A00
B00E00
ENDCHAR
STARTCHAR uni045C
ENCODING 1116
SWIDTH 528 0
DWIDTH 10 0
BBX 10 14 0 0
BITMAP
000B40
002D00
002400
000000
0E02D0
1D0B40
1D2D00
2CB400
2FD000
39E000
387400
743C00
741D00
B00F00
ENDCHAR
STARTCHAR uni045D
ENCODING 1117
SWIDTH 564 0
DWIDTH 10 0
BBX 10 14 0 0
BITMAP
00F000
007400
002800
000000
0E02D0
1D07D0
1D0FC0
2C2EC0
2CB780
39D380
3B8740
7F0740
7D0B00
B40B00
ENDCHAR
STARTCHAR uni045E
ENCODING 1118
SWIDTH 463 0
DWIDTH 8 0
BBX 10 17 -1 -4
BITMAP
00A1C0
006F40
000000
0E01E0
0B02C0
0B0380
070B00
074E00
035C00
03B800
02F400
02E000
01D000
028000
074000
6E0000
B80000
ENDCHAR
STARTCHAR uni045F
ENCODING 1119
SWIDTH 564 0
DWIDTH 10 0
BBX 10 13 0 -3
BITMAP
0E01D0
1D01D0
1D02C0
2C02C0
2C0380
380380
380740
740740
795B00
BFFF00
02C000
038000
034000
ENDCHAR
STARTCHAR uni0460
ENCODING 1120
SWIDTH 857 0
DWIDTH 15 0
BBX 15 13 1 0
BITMAP
1D03C074
2C038074
2C0780B0
380740B0
380B40E0
740B00E0
740F01D0
B00E01D0
B01E02C0
E01D02C0
B02E0780
79BB5F00
2F92F800
ENDCHAR
STARTCHAR uni0461
ENCODING 1121
SWIDTH 752 0
DWIDTH 14 0
BBX 12 10 1 0
BITMAP
341D07
741C0B
702C0A
B0280E
A0380D
E0341D
D0741C
D0B42C
F6FDB4
2F5BD0
ENDCHAR
STARTCHAR uni0462
ENCODING 1122
SWIDTH 613 0
DWIDTH 11 0
BBX 10 13 0 0
BITMAP
074000
0B0000
7FF000
5E5000
0E0000
1FFE40
1D56D0
2C00F0
2C00B0
3800F0
3801E0
795B80
7FFE00
ENDCHAR
STARTCHAR uni0463
ENCODING 1123
SWIDTH 530 0
DWIDTH 10 0
BBX 9 14 0 0
BITMAP
074000
070000
0B0000
7FF800
5E5000
0D0000
1D0000
1FF800
2D5F00
280740
380740
740B00
796E00
BFF400
ENDCHAR
STARTCHAR uni0464
ENCODING 1124
SWIDTH 874 0
DWIDTH 16 0
BBX 15 13 0 0
BITMAP
07406F90
0742E5F4
0B074038
0B0E002C
0E1D0014
0E2C0000
1FFFFD00
1E795400
2C380010
2C3800B0
382C01E0
381F5B80
7406F900
ENDCHAR
STARTCHAR uni0465
ENCODING 1125
SWIDTH 728 0
DWIDTH 13 0
BBX 13 10 0 0
BITMAP
0E06F800
1D1E5F00
1D380740
2C740100
2FFFE000
39B55000
38B00100
74740E00
743D7C00
B00BE000
ENDCHAR
STARTCHAR uni0466
ENCODING 1126
SWIDTH 589 0
DWIDTH 11 0
BBX 11 13 -1 0
BITMAP
000780
000B80
001FC0
002DC0
0075D0
00B0D0
01E0E0
02C0A0
07FFF0
0B6DB0
1E2874
2C3834
743438
ENDCHAR
STARTCHAR uni0467
ENCODING 1127
SWIDTH 522 0
DWIDTH 9 0
BBX 9 10 -1 0
BITMAP
002C00
007D00
00BD00
01DE00
03CB00
074700
0FFF40
1DB780
38E280
B0E2C0
ENDCHAR
STARTCHAR uni0468
ENCODING 1128
SWIDTH 858 0
DWIDTH 15 0
BBX 13 13 1 0
BITMAP
0E002C00
1D003D00
1D00BD00
2C00DE00
2C02CA00
38038B00
380B0700
740E0740
7FFFFF40
B5BAE780
B0B1D280
E1D1C2C0
E2C2C1C0
ENDCHAR
STARTCHAR uni0469
ENCODING 1129
SWIDTH 737 0
DWIDTH 13 0
BBX 12 10 0 0
BITMAP
0B00F0
0E01F0
0E03B4
1D0778
1D0E38
2C2D2C
2FFFFC
39B79D
39E38E
76C74A
ENDCHAR
STARTCHAR uni046A
ENCODING 1130
SWIDTH 831 0
DWIDTH 15 0
BBX 14 13 0 0
BITMAP
00FFFFE0
00B95B80
00740B00
00381D00
002C7800
001EB000
02FFFE00
0F9B9B80
2C0742D0
380B01D0
740B02C0
740E02C0
B01D0380
ENDCHAR
STARTCHAR uni046B
ENCODING 1131
SWIDTH 717 0
DWIDTH 13 0
BBX 11 10 0 0
BITMAP
02FFFC
01E5B4
00A1D0
007780
06FFD0
1E6DB4
382C38
74382C
703828
B07438
ENDCHAR
STARTCHAR uni046C
ENCODING 1132
SWIDTH 1098 0
DWIDTH 20 0
BBX 19 13 0 0
BITMAP
07407FFFF4
07403D56E0
0B001D03C0
0B000E0B40
0E000B1E00
0E00077800
1FFFFFFE40
1D5BE6E6E0
2C0E02C0B0
2C1D0280B0
381D0380B0
382C0740E0
742C0740E0
ENDCHAR
STARTCHAR uni046D
ENCODING 1133
SWIDTH 952 0
DWIDTH 17 0
BBX 16 10 0 0
BITMAP
0E01FFFD
1D00F5B4
1D00B1E0
2C003780
2FFFFFE0
395E6DB8
382C1C2C
74382C1C
7474282C
B074382C
ENDCHAR
STARTCHAR uni046E
ENCODING 1134
SWIDTH 506 0
DWIDTH 9 0
BBX 10 21 -1 -4
BITMAP
0028B0
000EC0
000B40
000000
02FE00
0157C0
0001D0
0000D0
0001D0
000780
01FD00
015F00
000380
000380
000740
016E00
2FE400
740000
700000
380000
180000
ENDCHAR
STARTCHAR uni046F
ENCODING 1135
SWIDTH 472 0
DWIDTH 9 0
BBX 9 18 -1 -4
BITMAP
00D280
007B00
002C00
000000
07F900
015B40
000380
000B40
02FD00
016E00
000B00
000B00
016E00
2FE400
740000
700000
380000
180000
ENDCHAR
STARTCHAR uni0470
ENCODING 1136
SWIDTH 675 0
DWIDTH 12 0
BBX 12 13 1 0
BITMAP
382C0E
382C1D
74381D
74382C
B0742C
B07438
74B0B4
3DF6D0
1FFF40
01E400
01D000
01D000
02C000
ENDCHAR
STARTCHAR uni0471
ENCODING 1137
SWIDTH 684 0
DWIDTH 12 0
BBX 11 14 1 -4
BITMAP
743874
B03438
B07438
E0B038
E0B038
E0E074
E0E0B0
B1D1E0
7EEB80
1BF900
02C000
028000
038000
074000
ENDCHAR
STARTCHAR uni0472
ENCODING 1138
SWIDTH 664 0
DWIDTH 12 0
BBX 10 13 1 0
BITMAP
01BE40
0BABD0
1D00E0
3400B0
700070
BFFFF0
E555B0
E000F0
E001E0
B002D0
B40780
3E6E00
0BE400
ENDCHAR
STARTCHAR uni0473
ENCODING 1139
SWIDTH 555 0
DWIDTH 10 0
BBX 9 10 0 0
BITMAP
01FD00
0B9B40
1D02C0
3801C0
3FFFC0
7956C0
740380
380B40
2E6E00
07E400
ENDCHAR
STARTCHAR uni0474
ENCODING 1140
SWIDTH 615 0
DWIDTH 11 0
BBX 11 13 1 0
BITMAP
740028
7400F4
3801D0
380380
2C0740
2C0E00
1C1D00
1D2800
0D7400
0EA000
0BD000
0B8000
074000
ENDCHAR
STARTCHAR uni0475
ENCODING 1141
SWIDTH 491 0
DWIDTH 9 0
BBX 9 10 1 0
BITMAP
A00B40
B02E00
703800
707400
34E000
35D000
2A8000
2B4000
1E0000
1D0000
ENDCHAR
STARTCHAR uni0476
ENCODING 1142
SWIDTH 615 0
DWIDTH 11 0
BBX 11 16 1 0
BITMAP
0B7800
029D00
000000
740028
7400F4
3801D0
380380
2C0740
2C0E00
1C1D00
1D2800
0D7400
0EA000
0BD000
0B8000
074000
ENDCHAR
STARTCHAR uni0477
ENCODING 1143
SWIDTH 491 0
DWIDTH 9 0
BBX 9 13 1 0
BITMAP
7AD000
1EA000
000000
A00B40
B02E00
703800
707400
34E000
35D000
2A8000
2B4000
1E0000
1D0000
ENDCHAR
STARTCHAR uni0478
ENCODING 1144
SWIDTH 1135 0
DWIDTH 20 0
BBX 20 17 1 -4
BITMAP
01BE400000
0BABD00000
1E00F00000
380070E00E
740074B02D
B00074B038
B000747474
E000B074E0
E000E039D0
B001D03A80
7403802F40
2E6F002E00
0BF8001D00
0000002800
0000007400
000006E000
00000B8000
ENDCHAR
STARTCHAR uni0479
ENCODING 1145
SWIDTH 1021 0
DWIDTH 18 0
BBX 19 14 0 -4
BITMAP
01FD038038
0B9B42C0B0
1D02C2C0E0
3801C1D1D0
3401C1D380
7402C0D740
740380EE00
380740BD00
1E6E00B800
07F4007400
000000A000
000001D000
00001B8000
00002E0000
ENDCHAR
STARTCHAR uni047A
ENCODING 1146
SWIDTH 664 0
DWIDTH 12 0
BBX 10 15 1 -1
BITMAP
001C00
01BE40
0BBFD0
1D14E0
3800B0
740070
B00070
E000B0
E000B0
E000E0
E002D0
B04780
3EEE00
1BF400
038000
ENDCHAR
STARTCHAR uni047B
ENCODING 1147
SWIDTH 554 0
DWIDTH 10 0
BBX 10 12 0 -1
BITMAP
003800
01FE00
0BBB40
1D12C0
2801C0
3401D0
7402C0
740380
384740
2EEE00
0BF400
02C000
ENDCHAR
STARTCHAR uni047C
ENCODING 1148
SWIDTH 854 0
DWIDTH 15 0
BBX 14 16 1 0
BITMAP
000BE400
001C1B40
0000D000
02C1C740
0F4242D0
2D0000E0
380000E0
380000E0
740501D0
740E01D0
B00E02C0
B01D02C0
E01D0380
B02D0740
79BF5E00
2F92F800
ENDCHAR
STARTCHAR uni047D
ENCODING 1149
SWIDTH 749 0
DWIDTH 13 0
BBX 12 14 1 0
BITMAP
003F90
00606C
000700
000A00
0A0834
3D002D
74000D
B0000E
E0140D
E0341D
D0741C
E0B42C
B6FDB4
2F5BD0
ENDCHAR
STARTCHAR uni047E
ENCODING 1150
SWIDTH 857 0
DWIDTH 15 0
BBX 15 16 1 0
BITMAP
003FFF00
0001C000
00000000
1D03C074
2C038074
2C0780B0
380740B0
380B40E0
740B00E0
740F01D0
B00E01D0
B01E02C0
E01D02C0
B02E0780
79BB5F00
2F92F800
ENDCHAR
STARTCHAR uni047F
ENCODING 1151
SWIDTH 752 0
DWIDTH 14 0
BBX 12 13 1 0
BITMAP
01FFF8
000E00
000000
341D07
741C0B
702C0A
B0280E
A0380D
E0341D
D0741C
D0B42C
F6FDB4
2F5BD0
ENDCHAR
STARTCHAR uni0480
ENCODING 1152
SWIDTH 634 0
DWIDTH 11 0
BBX 10 16 1 -3
BITMAP
01BE40
0B97D0
1D00E0
3800B0
740050
B00000
B00000
E00000
E00000
E00000
B00000
3D4000
1BC000
038000
038000
074000
ENDCHAR
STARTCHAR uni0481
ENCODING 1153
SWIDTH 523 0
DWIDTH 9 0
BBX 9 13 0 -3
BITMAP
01F900
0B9B00
1D0380
380140
380000
740000
740000
380000
2D4000
0BC000
028000
038000
074000
ENDCHAR
STARTCHAR uni0482
ENCODING 1154
SWIDTH 609 0
DWIDTH 11 0
BBX 10 12 1 0
BITMAP
0001D0
010380
02DA00
00BD00
003F40
00A2C0
A2C000
7F4000
0F4000
2DE000
741000
D00000
ENDCHAR
STARTCHAR uni0483
ENCODING 1155
SWIDTH 0 0
DWIDTH 0 0
BBX 7 3 -7 11
BITMAP
0034
BFF4
E000
ENDCHAR
STARTCHAR uni0484
ENCODING 1156
SWIDTH 0 0
DWIDTH 0 0
BBX 7 2 -7 11
BITMAP
17F4
B918
ENDCHAR
STARTCHAR uni0485
ENCODING 1157
SWIDTH 0 0
DWIDTH 0 0
BBX 3 3 -5 11
BITMAP
74
34
14
ENDCHAR
STARTCHAR uni0486
ENCODING 1158
SWIDTH 0 0
DWIDTH 0 0
BBX 3 3 -4 11
BITMAP
74
70
80
ENDCHAR
STARTCHAR uni0488
ENCODING 1160
SWIDTH 0 0
DWIDTH 0 0
BBX 17 16 -13 -3
BITMAP
0000B40000
0001880000
0000000000
03D0007D00
0960009600
0000000000
0000000000
7800001E00
9900002540
0000000000
0000000000
0000000000
2E0002D000
6200063000
001F400000
0025800000
ENDCHAR
STARTCHAR uni0489
ENCODING 1161
SWIDTH 0 0
DWIDTH 0 0
BBX 16 17 -13 -4
BITMAP
00002400
00003000
0140A000
00C00018
00D000E0
00400000
00000000
A8000024
1800001A
00000000
00000000
00000100
0B400700
28000240
00070140
00090000
00080000
ENDCHAR
STARTCHAR uni048A
ENCODING 1162
SWIDTH 736 0
DWIDTH 13 0
BBX 12 20 0 -4
BITMAP
001C74
000BE0
000000
07400B
07402F
0B007E
0B00EE
0E039D
0E0B1D
1D1D2C
1D742C
2CE038
2EC038
3F4074
3D0074
7800BE
00000E
00001D
00002C
000024
ENDCHAR
STARTCHAR uni048B
ENCODING 1163
SWIDTH 602 0
DWIDTH 11 0
BBX 10 17 0 -4
BITMAP
01D280
00BE00
000000
0E02D0
1D07D0
1D0FC0
2C2EC0
2CB780
39D380
3B8740
7F0740
7D0B00
B40BD0
0001D0
0001C0
000380
000600
ENDCHAR
STARTCHAR uni048C
ENCODING 1164
SWIDTH 613 0
DWIDTH 11 0
BBX 10 13 0 0
BITMAP
074000
0B0000
7FF000
5E5000
0E0000
1FFE40
1D56D0
2C00F0
2C00B0
3800F0
3801E0
795B80
7FFE00
ENDCHAR
STARTCHAR uni048D
ENCODING 1165
SWIDTH 530 0
DWIDTH 10 0
BBX 9 15 0 0
BITMAP
024000
074000
3FFC00
1B5400
0A0000
0E0000
0D0000
1D0000
1FF800
2D5F00
280740
380740
740B00
796E00
BFF400
ENDCHAR
STARTCHAR uni048E
ENCODING 1166
SWIDTH 624 0
DWIDTH 11 0
BBX 11 13 0 0
BITMAP
07FF90
0B55B4
0B003C
0E002C
0E0278
1D02F4
1FFFF0
2D5534
2C0000
380000
380000
740000
740000
ENDCHAR
STARTCHAR uni048F
ENCODING 1167
SWIDTH 554 0
DWIDTH 10 0
BBX 10 14 -1 -4
BITMAP
036F40
07E6D0
0740E0
0B00B0
0A00B0
0E00E0
0D05E0
1D0FC0
1F5F80
2DBEC0
280040
380000
340000
740000
ENDCHAR
STARTCHAR uni0490
ENCODING 1168
SWIDTH 536 0
DWIDTH 10 0
BBX 11 16 0 0
BITMAP
000028
000038
000034
07FFF4
0B5550
0B0000
0E0000
0E0000
1D0000
1D0000
2C0000
2C0000
380000
380000
740000
740000
ENDCHAR
STARTCHAR uni0491
ENCODING 1169
SWIDTH 437 0
DWIDTH 8 0
BBX 9 12 0 0
BITMAP
000740
000B00
0FFE00
1E5500
1C0000
2C0000
280000
380000
340000
740000
700000
B00000
ENDCHAR
STARTCHAR uni0492
ENCODING 1170
SWIDTH 544 0
DWIDTH 10 0
BBX 11 13 0 0
BITMAP
07FFF4
079550
0B0000
0B0000
0E0000
0E0000
BFE000
6D5000
2C0000
2C0000
380000
380000
740000
ENDCHAR
STARTCHAR uni0493
ENCODING 1171
SWIDTH 411 0
DWIDTH 7 0
BBX 8 10 0 0
BITMAP
0FFE
1E55
1D00
2C00
FFD0
7940
3800
7400
7400
B000
ENDCHAR
STARTCHAR uni0494
ENCODING 1172
SWIDTH 593 0
DWIDTH 11 0
BBX 11 16 0 -3
BITMAP
07FFF4
079550
0B0000
0B0000
0E0000
0E0000
1FF900
1E6F40
2C03C0
2C01D0
3801D0
3801D0
7402C0
000780
002E00
007800
ENDCHAR
STARTCHAR uni0495
ENCODING 1173
SWIDTH 492 0
DWIDTH 9 0
BBX 8 13 0 -3
BITMAP
0FFE
1E55
1C00
2C00
2FE0
39B8
341D
740D
700D
B01D
003C
01F4
0180
ENDCHAR
STARTCHAR uni0496
ENCODING 1174
SWIDTH 930 0
DWIDTH 17 0
BBX 18 17 -1 -4
BITMAP
03C02C02D0
01D02C0780
00E0380F00
00B0382D00
0034747400
002C75E000
002FFFC000
0079F6D000
00F0E1E000
02D0E0B000
0B41D07800
2E01D03C00
7802C01F80
0000000340
0000000740
0000000740
0000000B00
ENDCHAR
STARTCHAR uni0497
ENCODING 1175
SWIDTH 778 0
DWIDTH 14 0
BBX 15 14 -1 -4
BITMAP
0741C0B4
0382C2D0
02C28780
00E38E00
00BFFC00
01EBAC00
03870E00
0B0B0B00
2D0A0740
780E03F0
000000E0
000000E0
000001D0
000001D0
ENDCHAR
STARTCHAR uni0498
ENCODING 1176
SWIDTH 580 0
DWIDTH 10 0
BBX 11 18 0 -5
BITMAP
01BE40
07D6E0
0E00B0
090074
0000B0
0002D0
00FF40
005B80
0001D0
6001D0
7402C0
3E6F40
0BF900
01C000
02C000
028000
038000
038000
ENDCHAR
STARTCHAR uni0499
ENCODING 1177
SWIDTH 497 0
DWIDTH 9 0
BBX 8 15 0 -5
BITMAP
06F9
1E5F
2807
001E
03F8
016D
000E
B01D
797C
1BE0
0740
0740
0B00
0B00
0E00
ENDCHAR
STARTCHAR uni049A
ENCODING 1178
SWIDTH 684 0
DWIDTH 12 0
BBX 12 17 0 -4
BITMAP
07401E
074078
0B01F0
0B03C0
0E0F40
0E2D00
1FF800
1E7800
2C2D00
2C0F00
380780
3802D0
7400F8
000038
000074
000074
000070
ENDCHAR
STARTCHAR uni049B
ENCODING 1179
SWIDTH 577 0
DWIDTH 10 0
BBX 10 14 0 -4
BITMAP
0E02D0
1D0B40
1D2D00
2CB400
2FD000
39E000
387400
743C00
741D00
B00FC0
0002C0
000380
000380
000340
ENDCHAR
STARTCHAR uni049C
ENCODING 1180
SWIDTH 615 0
DWIDTH 11 0
BBX 12 13 0 0
BITMAP
07401E
0B0038
0B00B4
0E11D0
0E6380
1DAB00
1FFD00
2DEE00
2DCB00
398780
3803C0
7402D0
7401E0
ENDCHAR
STARTCHAR uni049D
ENCODING 1181
SWIDTH 549 0
DWIDTH 10 0
BBX 10 10 0 0
BITMAP
0E00F0
1D02C0
1DDB40
2CDD00
2FF800
3AEC00
3A9D00
740E00
740B40
B00780
ENDCHAR
STARTCHAR uni049E
ENCODING 1182
SWIDTH 638 0
DWIDTH 11 0
BBX 12 13 0 0
BITMAP
03801F
07407C
7FF4F4
1B53D0
0B0B40
0E2D00
0FF800
1E7C00
1D1E00
2C0B40
2C0380
3801D0
3800B0
ENDCHAR
STARTCHAR uni049F
ENCODING 1183
SWIDTH 508 0
DWIDTH 9 0
BBX 9 14 0 0
BITMAP
074000
074000
7FF000
5B5000
0E03C0
0E0B40
1D2D00
1D7400
2FE000
2DE000
387400
383800
741D00
740F00
ENDCHAR
STARTCHAR uni04A0
ENCODING 1184
SWIDTH 798 0
DWIDTH 14 0
BBX 14 13 1 0
BITMAP
7FF401E0
15B407C0
00740F00
00B03D00
00F0B400
00E2D000
01FF8000
01E7C000
02C1E000
02C0B400
03803800
03802D00
07400F00
ENDCHAR
STARTCHAR uni04A1
ENCODING 1185
SWIDTH 673 0
DWIDTH 12 0
BBX 11 10 1 0
BITMAP
BFD03C
56C0F0
02C3C0
028B00
03FD00
03AD00
074B00
070780
0B02C0
0A00E0
ENDCHAR
STARTCHAR uni04A2
ENCODING 1186
SWIDTH 731 0
DWIDTH 13 0
BBX 13 17 0 -4
BITMAP
07400740
0B000B00
0B000B00
0F000E00
0E000E00
1E001D00
1FFFFD00
2D556C00
2C002C00
38003800
38003800
74007400
74007E00
00000D00
00001D00
00001C00
00002C00
ENDCHAR
STARTCHAR uni04A3
ENCODING 1187
SWIDTH 592 0
DWIDTH 11 0
BBX 10 14 0 -4
BITMAP
0E01D0
1D01D0
1D02C0
2C02C0
2FFF80
395780
380740
740740
740B00
B00BD0
0001D0
0002C0
0002C0
000380
ENDCHAR
STARTCHAR uni04A4
ENCODING 1188
SWIDTH 951 0
DWIDTH 17 0
BBX 18 13 0 0
BITMAP
074007FFE0
0B000B5550
0B000B0000
0F000E0000
0E000E0000
1E001D0000
1FFFFD0000
2D556C0000
2C00280000
3800380000
3800340000
7400740000
7400700000
ENDCHAR
STARTCHAR uni04A5
ENCODING 1189
SWIDTH 696 0
DWIDTH 13 0
BBX 13 10 0 0
BITMAP
0D01FF40
1D01D500
1C02C000
2C038000
2FFF8000
39574000
34074000
74070000
700B0000
B00A0000
ENDCHAR
STARTCHAR uni04A6
ENCODING 1190
SWIDTH 998 0
DWIDTH 18 0
BBX 17 16 0 -3
BITMAP
07FFFF0000
07555F0000
0B000E0000
0B000E0000
0E001E0000
0E001D0000
1D002FE400
1C002D6E00
2C00380B40
2800380740
3800740380
7400740740
7400B00700
0000000E00
0000007C00
000001E000
ENDCHAR
STARTCHAR uni04A7
ENCODING 1191
SWIDTH 848 0
DWIDTH 15 0
BBX 14 13 0 -3
BITMAP
0FFFD000
1E56C000
1C02C000
2C028000
2803FE40
38039BD0
340740E0
740700B0
700B00B0
B00A00E0
000001D0
00000B80
00000900
ENDCHAR
STARTCHAR uni04A8
ENCODING 1192
SWIDTH 723 0
DWIDTH 13 0
BBX 12 13 1 0
BITMAP
02C6F4
0F8F6D
2C2C0E
38380E
74740E
B0700E
B0B01D
E0B02C
E0B038
B078B4
742FD0
2E7FE4
0BF5B4
ENDCHAR
STARTCHAR uni04A9
ENCODING 1193
SWIDTH 589 0
DWIDTH 11 0
BBX 9 10 1 0
BITMAP
0A6E00
3DE740
B1D380
E2C380
E2C380
D2C740
E2DB00
A0FD00
79FE00
1F9640
ENDCHAR
STARTCHAR uni04AA
ENCODING 1194
SWIDTH 636 0
DWIDTH 11 0
BBX 10 18 1 -5
BITMAP
01BE40
0B96D0
1E00E0
3800B0
740010
B00000
B00000
E00000
E00040
B002C0
B40780
3E6E00
0BF800
038000
038000
074000
074000
070000
ENDCHAR
STARTCHAR uni04AB
ENCODING 1195
SWIDTH 512 0
DWIDTH 9 0
BBX 9 15 0 -5
BITMAP
02F900
0B9B40
2D0380
380140
340000
740000
740100
380B00
2E6D00
0BE400
038000
074000
074000
0B0000
0B0000
ENDCHAR
STARTCHAR uni04AC
ENCODING 1196
SWIDTH 583 0
DWIDTH 11 0
BBX 11 17 1 -4
BITMAP
7FFFF4
55B550
00B000
00E000
00E000
01D000
01D000
02C000
02C000
038000
038000
074000
07E000
00D000
01D000
01C000
02C000
ENDCHAR
STARTCHAR uni04AD
ENCODING 1197
SWIDTH 470 0
DWIDTH 8 0
BBX 8 14 1 -4
BITMAP
FFFE
5795
0740
0700
0B00
0A00
0E00
0D00
1D00
1F80
0740
0740
0700
0B00
ENDCHAR
STARTCHAR uni04AE
ENCODING 1198
SWIDTH 587 0
DWIDTH 11 0
BBX 11 13 1 0
BITMAP
7400B4
3801E0
2C03C0
1D0B40
0E1E00
0B3800
07F400
03D000
02C000
038000
038000
074000
074000
ENDCHAR
STARTCHAR uni04AF
ENCODING 1199
SWIDTH 490 0
DWIDTH 9 0
BBX 8 14 1 -4
BITMAP
A00B
B01D
702C
7434
34B0
38D0
2AC0
2F40
1F00
1D00
1D00
2C00
2C00
3800
ENDCHAR
STARTCHAR uni04B0
ENCODING 1200
SWIDTH 587 0
DWIDTH 11 0
BBX 11 13 1 0
BITMAP
7400B4
3801E0
2C03C0
1D0B40
0E1E00
0B3800
07F400
1FFC00
17D400
038000
038000
074000
074000
ENDCHAR
STARTCHAR uni04B1
ENCODING 1201
SWIDTH 490 0
DWIDTH 9 0
BBX 8 14 1 -4
BITMAP
A00B
B01D
702C
7474
34B0
39D0
2AC0
1F40
6F40
FFD0
1D00
2C00
2C00
3800
ENDCHAR
STARTCHAR uni04B2
ENCODING 1202
SWIDTH 622 0
DWIDTH 11 0
BBX 12 17 0 -4
BITMAP
0F002D
0B4074
0381E0
02C3C0
00EB40
00BD00
007800
01FC00
03DE00
0B4B00
1D0740
7803C0
F001F0
0000B0
0000A0
0000E0
0000D0
ENDCHAR
STARTCHAR uni04B3
ENCODING 1203
SWIDTH 509 0
DWIDTH 9 0
BBX 10 14 -1 -4
BITMAP
0B01E0
034380
02CB00
01ED00
00B400
00F400
02E800
0B5D00
1D0E00
780BC0
0002C0
000380
000380
000740
ENDCHAR
STARTCHAR uni04B4
ENCODING 1204
SWIDTH 874 0
DWIDTH 16 0
BBX 14 16 1 -3
BITMAP
7FFF81D0
16E542C0
01C002C0
02C00380
02800380
03800740
07400740
07400B00
0B000B00
0B000E00
0E000E00
0E556E40
1FFFFF40
00000740
00000700
00000B00
ENDCHAR
STARTCHAR uni04B5
ENCODING 1205
SWIDTH 654 0
DWIDTH 12 0
BBX 10 13 1 -3
BITMAP
FFF0E0
5E50E0
0D01D0
1D01D0
1D02C0
2C02C0
2C0380
380380
395780
7FFFD0
0001C0
0002C0
000280
ENDCHAR
STARTCHAR uni04B6
ENCODING 1206
SWIDTH 700 0
DWIDTH 13 0
BBX 10 17 2 -4
BITMAP
7400E0
B000E0
B001D0
E002D0
E002C0
B407C0
7FFF80
055780
000740
000740
000B00
000B00
000FC0
0002C0
000380
000380
000740
ENDCHAR
STARTCHAR uni04B7
ENCODING 1207
SWIDTH 561 0
DWIDTH 10 0
BBX 8 14 1 -4
BITMAP
740B
B00E
B00E
B01D
B42D
2FFC
056C
0038
0038
007E
000E
000D
001D
001D
ENDCHAR
STARTCHAR uni04B8
ENCODING 1208
SWIDTH 663 0
DWIDTH 12 0
BBX 10 13 2 0
BITMAP
B000E0
B001D0
E001D0
E092C0
E0C2C0
F5C780
7FFF80
069740
024740
010B00
000B00
000E00
000E00
ENDCHAR
STARTCHAR uni04B9
ENCODING 1209
SWIDTH 540 0
DWIDTH 10 0
BBX 8 10 1 0
BITMAP
3407
740B
714A
728E
769D
2FFD
076C
022C
0028
0038
ENDCHAR
STARTCHAR uni04BA
ENCODING 1210
SWIDTH 663 0
DWIDTH 12 0
BBX 10 13 0 0
BITMAP
0B0000
0B0000
0E0000
0D0000
1D0000
1EFF80
2E96E0
2C00B0
3800B0
3800B0
7400A0
7000E0
B000D0
ENDCHAR
STARTCHAR uni04BB
ENCODING 1211
SWIDTH 539 0
DWIDTH 10 0
BBX 9 14 0 0
BITMAP
070000
0B0000
0A0000
0E0000
0DBE00
1F9B40
1D0380
2C0380
280340
380740
340700
740B00
700A00
B00E00
ENDCHAR
STARTCHAR uni04BC
ENCODING 1212
SWIDTH 754 0
DWIDTH 14 0
BBX 12 13 1 0
BITMAP
001BE4
00797C
00E00E
02C00A
A3800B
77400B
2FFFFF
0B5555
0B0000
0B0000
074000
02E5B0
006FA0
ENDCHAR
STARTCHAR uni04BD
ENCODING 1213
SWIDTH 579 0
DWIDTH 10 0
BBX 10 10 0 0
BITMAP
00BE40
02D6C0
9B40D0
AE00E0
7FFFE0
1D5540
1D0000
0E0140
0B9B80
02F900
ENDCHAR
STARTCHAR uni04BE
ENCODING 1214
SWIDTH 754 0
DWIDTH 14 0
BBX 12 18 1 -5
BITMAP
001BE4
00797C
00E00E
02C00A
A3800B
77400B
2FFFFF
0B5555
0B0000
0B0000
074000
02E5B0
006FA0
001D00
002C00
002C00
003800
003800
ENDCHAR
STARTCHAR uni04BF
ENCODING 1215
SWIDTH 579 0
DWIDTH 10 0
BBX 10 15 0 -5
BITMAP
00BE40
02D6C0
9B40D0
AE00E0
7FFFE0
1D5540
1D0000
0E0140
0B9B80
02F900
00B000
00B000
00E000
00E000
01D000
ENDCHAR
STARTCHAR uni04C0
ENCODING 1216
SWIDTH 268 0
DWIDTH 5 0
BBX 5 13 0 0
BITMAP
0740
0740
0B00
0B00
0E00
0E00
1D00
1D00
2C00
2C00
3800
3800
7400
ENDCHAR
STARTCHAR uni04C1
ENCODING 1217
SWIDTH 885 0
DWIDTH 16 0
BBX 18 16 -1 0
BITMAP
0000A1C000
00002F4000
0000000000
03C02C02D0
01D02C0780
00E0380F00
00B0382D00
0034747400
002C75E000
002FFFC000
0079F6D000
00F0E1E000
02D0E0B000
0B41D07800
2E01D03C00
7802C01E00
ENDCHAR
STARTCHAR uni04C2
ENCODING 1218
SWIDTH 747 0
DWIDTH 13 0
BBX 15 13 -1 0
BITMAP
000A1D00
0002F800
00000000
0741C0B4
0382C2D0
02C28780
00E38E00
00BFFC00
01EBAC00
03870E00
0B0B0B00
2D0A0740
780E03C0
ENDCHAR
STARTCHAR uni04C3
ENCODING 1219
SWIDTH 615 0
DWIDTH 11 0
BBX 12 16 0 -3
BITMAP
07402D
0B00B4
0B01E0
0E0780
0E1E00
1D3800
1FFE00
2EABC0
2C01E0
3800F0
3800B0
7400E0
7400E0
0002D0
001B40
003900
ENDCHAR
STARTCHAR uni04C4
ENCODING 1220
SWIDTH 532 0
DWIDTH 10 0
BBX 10 12 0 -2
BITMAP
0E02D0
1D0B40
1D1E00
2C7800
2CF000
3FF400
396E00
740B00
740740
B00B00
007D00
00A000
ENDCHAR
STARTCHAR uni04C5
ENCODING 1221
SWIDTH 731 0
DWIDTH 13 0
BBX 13 17 -1 -4
BITMAP
002FFFC0
003D57C0
00380380
00740380
00700740
00B00740
00E00B00
00E00B00
01D00E00
02C00E00
07801D00
2F001D00
79002F80
00000340
00000740
00000E00
00000800
ENDCHAR
STARTCHAR uni04C6
ENCODING 1222
SWIDTH 603 0
DWIDTH 11 0
BBX 11 14 -1 -4
BITMAP
00FFF4
00E5B4
01D0B0
01C0B0
02C0E0
0280E0
0341D0
0701D0
2E02C0
7802F8
000074
000070
0000E0
000180
ENDCHAR
STARTCHAR uni04C7
ENCODING 1223
SWIDTH 695 0
DWIDTH 13 0
BBX 12 17 0 -4
BITMAP
07400B
07400B
0B000E
0B000E
0E001D
0E001D
1FFFFC
1D557C
2C0038
2C0038
380074
380074
7400B0
0000B0
0000E0
0006D0
001F40
ENDCHAR
STARTCHAR uni04C8
ENCODING 1224
SWIDTH 554 0
DWIDTH 10 0
BBX 10 14 0 -4
BITMAP
0D01D0
1D01C0
1C02C0
2C0380
2FFF80
395740
340740
740700
700B00
B00B00
000E00
001D00
006C00
01E400
ENDCHAR
STARTCHAR uni04C9
ENCODING 1225
SWIDTH 740 0
DWIDTH 13 0
BBX 13 17 0 -4
BITMAP
07400740
0B000B00
0B000B00
0F000E00
0E000E00
1E001D00
1FFFFD00
2D556C00
2C002C00
38003800
38003800
74007400
74007E00
00000E00
00001D00
00002C00
00002400
ENDCHAR
STARTCHAR uni04CA
ENCODING 1226
SWIDTH 601 0
DWIDTH 11 0
BBX 10 14 0 -4
BITMAP
0E01D0
1D01D0
1D02C0
2C02C0
2FFF80
395780
380740
740740
740B00
B00BD0
0001D0
0002C0
000380
000600
ENDCHAR
STARTCHAR uni04CB
ENCODING 1227
SWIDTH 668 0
DWIDTH 12 0
BBX 10 17 2 -4
BITMAP
7400E0
B000E0
B001D0
E002D0
E002C0
B407C0
7FFF80
055780
000740
000740
000B00
000B00
007E00
00B000
00B000
00A000
00E000
ENDCHAR
STARTCHAR uni04CC
ENCODING 1228
SWIDTH 532 0
DWIDTH 10 0
BBX 8 14 1 -4
BITMAP
740B
B00E
B00E
B01D
B42D
2FFC
056C
0038
0038
02F4
0280
0380
0380
0740
ENDCHAR
STARTCHAR uni04CD
ENCODING 1229
SWIDTH 891 0
DWIDTH 16 0
BBX 15 17 0 -4
BITMAP
07C0007C
0BC000FC
0BD001F8
0EE003B8
0EA00B74
1DB00E74
1D742CB0
2C3474A0
2C38B0E0
3829D0D0
381F81D0
741F42C0
740E02F4
00000074
000000B0
000000E0
00000180
ENDCHAR
STARTCHAR uni04CE
ENCODING 1230
SWIDTH 761 0
DWIDTH 14 0
BBX 13 14 0 -4
BITMAP
0F400F40
1F402F00
1F803F00
2EC0BE00
2DC1DE00
38D28D00
38A75D00
34BE1C00
747C2C00
70342F40
00000740
00000B00
00000E00
00001800
ENDCHAR
STARTCHAR uni04CF
ENCODING 1231
SWIDTH 268 0
DWIDTH 5 0
BBX 5 13 0 0
BITMAP
0740
0740
0B00
0B00
0E00
0E00
1D00
1D00
2C00
2C00
3800
3800
7400
ENDCHAR
STARTCHAR uni04D0
ENCODING 1232
SWIDTH 637 0
DWIDTH 11 0
BBX 11 16 -1 0
BITMAP
000D2C
0007E4
000000
000380
000BC0
000ED0
002CD0
0074E0
00B0A0
01D0B0
028070
07FFF4
0E5578
1D0028
38002C
74001C
ENDCHAR
STARTCHAR uni04D1
ENCODING 1233
SWIDTH 532 0
DWIDTH 10 0
BBX 9 13 0 0
BITMAP
00D280
007E00
000000
02F900
0F5B00
1D0740
000740
06FF40
2D4B00
740B00
741E00
79BE00
1F9E00
ENDCHAR
STARTCHAR uni04D2
ENCODING 1234
SWIDTH 637 0
DWIDTH 11 0
BBX 11 16 -1 0
BITMAP
000918
001D2C
000000
000380
000BC0
000ED0
002CD0
0074E0
00B0A0
01D0B0
028070
07FFF4
0E5578
1D0028
38002C
74001C
ENDCHAR
STARTCHAR uni04D3
ENCODING 1235
SWIDTH 532 0
DWIDTH 10 0
BBX 9 13 0 0
BITMAP
018280
01C280
000000
02F900
0F5B00
1D0740
000740
06FF40
2D4B00
740B00
741E00
79BE00
1F9E00
ENDCHAR
STARTCHAR uni04D4
ENCODING 1236
SWIDTH 911 0
DWIDTH 16 0
BBX 18 13 -1 0
BITMAP
00002FFFE0
00007E5550
0001EE0000
00039D0000
000B1D0000
001D1D0000
00742FFF00
00E02D5500
02FFF80000
07AAB80000
1E00340000
3C00795500
B4007FFF40
ENDCHAR
STARTCHAR uni04D5
ENCODING 1237
SWIDTH 823 0
DWIDTH 15 0
BBX 15 10 0 0
BITMAP
06F92F80
1E5FE5E0
2C078070
00074074
1BFFFFF0
7D5F5550
B00F0000
B01F4000
79BBD6C0
2F91BE40
ENDCHAR
STARTCHAR uni04D6
ENCODING 1238
SWIDTH 556 0
DWIDTH 10 0
BBX 11 16 0 0
BITMAP
0070D0
002F80
000000
07FFF4
0B5550
0B0000
0E0000
0E0000
1E0000
1FFF80
2D5540
2C0000
380000
380000
795540
7FFF80
ENDCHAR
STARTCHAR uni04D7
ENCODING 1239
SWIDTH 518 0
DWIDTH 9 0
BBX 9 13 0 0
BITMAP
01C740
00BE00
000000
01F900
0B9B00
1D0340
380380
3FFF80
795540
740000
380100
1E6E00
07F400
ENDCHAR
STARTCHAR uni04D8
ENCODING 1240
SWIDTH 675 0
DWIDTH 12 0
BBX 11 13 1 0
BITMAP
06FE40
0A9BD0
0000F0
000074
000074
000074
FFFFF4
E555B0
D000F0
E001D0
B00780
3E6E00
0BE400
ENDCHAR
STARTCHAR uni04D9
ENCODING 1241
SWIDTH 516 0
DWIDTH 9 0
BBX 9 10 0 0
BITMAP
06F800
0E5F00
000740
000380
000380
3FFF40
795B40
740A00
2D6C00
0BE000
ENDCHAR
STARTCHAR uni04DA
ENCODING 1242
SWIDTH 675 0
DWIDTH 12 0
BBX 11 16 1 0
BITMAP
018240
02C380
000000
06FE40
0A9BD0
0000F0
000074
000074
000074
FFFFF4
E555B0
D000F0
E001D0
B00780
3E6E00
0BE400
ENDCHAR
STARTCHAR uni04DB
ENCODING 1243
SWIDTH 516 0
DWIDTH 9 0
BBX 9 13 0 0
BITMAP
018240
028340
000000
06F800
0E5F00
000740
000380
000380
3FFF40
795B40
740A00
2D6C00
0BE000
ENDCHAR
STARTCHAR uni04DC
ENCODING 1244
SWIDTH 885 0
DWIDTH 16 0
BBX 18 16 -1 0
BITMAP
0000919000
0000D1D000
0000000000
03C02C02D0
01D02C0780
00E0380F00
00B0382D00
0034747400
002C75E000
002FFFC000
0079F6D000
00F0E1E000
02D0E0B000
0B41D07800
2E01D03C00
7802C01E00
ENDCHAR
STARTCHAR uni04DD
ENCODING 1245
SWIDTH 747 0
DWIDTH 13 0
BBX 15 13 -1 0
BITMAP
000A0900
000A1D00
00000000
0741C0B4
0382C2D0
02C28780
00E38E00
00BFFC00
01EBAC00
03870E00
0B0B0B00
2D0A0740
780E03C0
ENDCHAR
STARTCHAR uni04DE
ENCODING 1246
SWIDTH 580 0
DWIDTH 10 0
BBX 11 16 0 0
BITMAP
00A090
00A0D0
000000
01BE40
07D6E0
0E00B0
090074
0000B0
0002D0
00FF40
005B80
0001D0
6001D0
7402C0
3E6F40
0BF900
ENDCHAR
STARTCHAR uni04DF
ENCODING 1247
SWIDTH 497 0
DWIDTH 9 0
BBX 9 13 0 0
BITMAP
024600
034740
000000
06F900
1E5F00
280700
001E00
03F800
016D00
000E00
B01D00
797C00
1BE000
ENDCHAR
STARTCHAR uni04E0
ENCODING 1248
SWIDTH 569 0
DWIDTH 10 0
BBX 10 13 0 0
BITMAP
07FFF0
0556E0
000740
001D00
00B400
00F900
005B40
000380
0002C0
640380
780740
2E6E00
0BE400
ENDCHAR
STARTCHAR uni04E1
ENCODING 1249
SWIDTH 569 0
DWIDTH 10 0
BBX 10 13 0 -3
BITMAP
0FFFD0
055780
000E00
007800
01E000
02E400
016E00
000B00
000740
A00740
B00F00
797D00
1BE400
ENDCHAR
STARTCHAR uni04E2
ENCODING 1250
SWIDTH 696 0
DWIDTH 13 0
BBX 12 17 0 0
BITMAP
001554
003FF8
000000
000000
07400B
07402F
0B007E
0B00EE
0E039D
0E0B1D
1D1D2C
1D742C
2CE038
2EC038
3F4074
3D0074
7800B0
ENDCHAR
STARTCHAR uni04E3
ENCODING 1251
SWIDTH 564 0
DWIDTH 10 0
BBX 10 14 0 0
BITMAP
005540
02FFC0
000000
000000
0E02D0
1D07D0
1D0FC0
2C2EC0
2CB780
39D380
3B8740
7F0740
7D0B00
B40B00
ENDCHAR
STARTCHAR uni04E4
ENCODING 1252
SWIDTH 696 0
DWIDTH 13 0
BBX 12 16 0 0
BITMAP
001824
002834
000000
07400B
07402F
0B007E
0B00EE
0E039D
0E0B1D
1D1D2C
1D742C
2CE038
2EC038
3F4074
3D0074
7800B0
ENDCHAR
STARTCHAR uni04E5
ENCODING 1253
SWIDTH 564 0
DWIDTH 10 0
BBX 10 13 0 0
BITMAP
018280
01C280
000000
0E02D0
1D07D0
1D0FC0
2C2EC0
2CB780
39D380
3B8740
7F0740
7D0B00
B40B00
ENDCHAR
STARTCHAR uni04E6
ENCODING 1254
SWIDTH 671 0
DWIDTH 12 0
BBX 11 16 1 0
BITMAP
009190
00E1D0
000000
01BE40
0BABD0
1E00F0
380070
740074
B00074
B00074
E000B0
E000E0
B001D0
740380
2E6F00
0BF800
ENDCHAR
STARTCHAR uni04E7
ENCODING 1255
SWIDTH 558 0
DWIDTH 10 0
BBX 9 13 0 0
BITMAP
018240
028380
000000
01FD00
0B9B40
1D02C0
3801C0
3401C0
7402C0
740380
380740
1E6E00
07F400
ENDCHAR
STARTCHAR uni04E8
ENCODING 1256
SWIDTH 664 0
DWIDTH 12 0
BBX 10 13 1 0
BITMAP
01BE40
0BABD0
1D00E0
3400B0
700070
BFFFF0
E555B0
E000F0
E001E0
B002D0
B40780
3E6E00
0BE400
ENDCHAR
STARTCHAR uni04E9
ENCODING 1257
SWIDTH 555 0
DWIDTH 10 0
BBX 9 10 0 0
BITMAP
01FD00
0B9B40
1D02C0
3801C0
3FFFC0
7956C0
740380
380B40
2E6E00
07E400
ENDCHAR
STARTCHAR uni04EA
ENCODING 1258
SWIDTH 664 0
DWIDTH 12 0
BBX 10 16 1 0
BITMAP
00A090
00A1D0
000000
01BE40
0BABD0
1D00E0
3400B0
700070
BFFFF0
E555B0
E000F0
E001E0
B002D0
B40780
3E6E00
0BE400
ENDCHAR
STARTCHAR uni04EB
ENCODING 1259
SWIDTH 555 0
DWIDTH 10 0
BBX 9 13 0 0
BITMAP
018240
028380
000000
01FD00
0B9B40
1D02C0
3801C0
3FFFC0
7956C0
740380
380B40
2E6E00
07E400
ENDCHAR
STARTCHAR uni04EC
ENCODING 1260
SWIDTH 658 0
DWIDTH 12 0
BBX 10 16 1 0
BITMAP
009190
00D1D0
000000
01BE40
0B9BD0
1D00E0
2C00B0
1000B0
0000B0
01FFF0
0155F0
5000E0
E001D0
B00780
3E6E00
0BE400
ENDCHAR
STARTCHAR uni04ED
ENCODING 1261
SWIDTH 526 0
DWIDTH 9 0
BBX 9 13 0 0
BITMAP
028240
028340
000000
02F800
0F5E00
2C0740
000340
02FF40
015B40
500B00
741E00
3D7C00
0BE000
ENDCHAR
STARTCHAR uni04EE
ENCODING 1262
SWIDTH 614 0
DWIDTH 11 0
BBX 11 17 1 0
BITMAP
005540
02FFC0
000000
000000
3C0078
2C00F0
1D02D0
0E0380
0B0B40
075E00
076C00
03F400
02F000
02D000
038000
5F0000
B90000
ENDCHAR
STARTCHAR uni04EF
ENCODING 1263
SWIDTH 463 0
DWIDTH 8 0
BBX 10 18 -1 -4
BITMAP
005540
01FFD0
000000
000000
0E01E0
0B02C0
0B0380
070B00
074E00
035C00
03B800
02F400
02E000
01D000
028000
074000
6E0000
B80000
ENDCHAR
STARTCHAR uni04F0
ENCODING 1264
SWIDTH 614 0
DWIDTH 11 0
BBX 11 16 1 0
BITMAP
018280
01C280
000000
3C0078
2C00F0
1D02D0
0E0380
0B0B40
075E00
076C00
03F400
02F000
02D000
038000
5F0000
B90000
ENDCHAR
STARTCHAR uni04F1
ENCODING 1265
SWIDTH 463 0
DWIDTH 8 0
BBX 10 17 -1 -4
BITMAP
009180
00D1C0
000000
0E01E0
0B02C0
0B0380
070B00
074E00
035C00
03B800
02F400
02E000
01D000
028000
074000
6E0000
B80000
ENDCHAR
STARTCHAR uni04F2
ENCODING 1266
SWIDTH 614 0
DWIDTH 11 0
BBX 11 17 1 0
BITMAP
002DB0
0076D0
00A740
000000
3C0078
2C00F0
1D02D0
0E0380
0B0B40
075E00
076C00
03F400
02F000
02D000
038000
5F0000
B90000
ENDCHAR
STARTCHAR uni04F3
ENCODING 1267
SWIDTH 463 0
DWIDTH 8 0
BBX 11 18 -1 -4
BITMAP
001DB4
003AD0
006680
000000
0E01E0
0B02C0
0B0380
070B00
074E00
035C00
03B800
02F400
02E000
01D000
028000
074000
6E0000
B80000
ENDCHAR
STARTCHAR uni04F4
ENCODING 1268
SWIDTH 668 0
DWIDTH 12 0
BBX 10 16 2 0
BITMAP
024600
034700
000000
7400E0
B000E0
B001D0
E002D0
E002C0
B407C0
7FFF80
055780
000740
000740
000B00
000B00
000E00
ENDCHAR
STARTCHAR uni04F5
ENCODING 1269
SWIDTH 532 0
DWIDTH 10 0
BBX 8 13 1 0
BITMAP
0919
0D1D
0000
740B
B00E
B00E
B01D
B42D
2FFC
056C
0038
0038
0074
ENDCHAR
STARTCHAR uni04F6
ENCODING 1270
SWIDTH 544 0
DWIDTH 10 0
BBX 11 17 0 -4
BITMAP
07FFF4
079550
0B0000
0B0000
0E0000
0E0000
1D0000
1D0000
2C0000
2C0000
380000
380000
7E0000
0E0000
1D0000
1D0000
1C0000
ENDCHAR
STARTCHAR uni04F7
ENCODING 1271
SWIDTH 411 0
DWIDTH 7 0
BBX 8 14 0 -4
BITMAP
0FFE
1E55
1D00
2C00
2C00
3800
3800
7400
7400
BE00
1D00
1D00
2C00
2C00
ENDCHAR
STARTCHAR uni04F8
ENCODING 1272
SWIDTH 843 0
DWIDTH 15 0
BBX 15 16 0 0
BITMAP
00064600
00074A00
00000000
07400038
07400038
0B000074
0B000074
0E0000B0
0FFF40B0
1E56E0E0
1C00B0E0
2C00B1D0
2800B1D0
3801E2C0
395BC2C0
7FFE0380
ENDCHAR
STARTCHAR uni04F9
ENCODING 1273
SWIDTH 757 0
DWIDTH 14 0
BBX 13 13 0 0
BITMAP
00282400
00283400
00000000
0E000380
1D000340
1D000740
2FF80700
2D5F0B00
38074B00
38074E00
340B0E00
796E1D00
7FE41D00
ENDCHAR
STARTCHAR uni04FA
ENCODING 1274
SWIDTH 576 0
DWIDTH 10 0
BBX 11 17 0 -4
BITMAP
02FFFC
03D554
038000
074000
074000
7FF400
1F5000
0E0000
0E0000
1D0000
1D0000
2C0000
2F4000
074000
0B0000
6E0000
F80000
ENDCHAR
STARTCHAR uni04FB
ENCODING 1275
SWIDTH 449 0
DWIDTH 8 0
BBX 9 14 0 -4
BITMAP
07FF40
0B5500
0B0000
0E0000
7FF000
6E5000
1D0000
2C0000
2C0000
3F4000
0B0000
0B0000
6D0000
F80000
ENDCHAR
STARTCHAR uni04FC
ENCODING 1276
SWIDTH 632 0
DWIDTH 11 0
BBX 12 17 0 -4
BITMAP
0F002D
0B4074
0381E0
02C3C0
00EB40
00BD00
007800
01FC00
03DE00
0B4B00
1D0740
7803C0
F001F4
000070
0000B0
0006E0
000F80
ENDCHAR
STARTCHAR uni04FD
ENCODING 1277
SWIDTH 520 0
DWIDTH 9 0
BBX 10 14 -1 -4
BITMAP
0B01E0
034380
02CB00
01ED00
00B400
00F400
02E800
0B5D00
1D0E00
780BD0
0002C0
0002C0
001B40
003D00
ENDCHAR
STARTCHAR uni04FE
ENCODING 1278
SWIDTH 612 0
DWIDTH 11 0
BBX 12 13 0 0
BITMAP
0F002D
0740B4
0381D0
01D380
00EA00
03FF40
01FD00
02FD00
07DE00
0F4B40
2E0780
7803C0
F001D0
ENDCHAR
STARTCHAR uni04FF
ENCODING 1279
SWIDTH 485 0
DWIDTH 9 0
BBX 10 10 -1 0
BITMAP
0B01D0
034380
02CB00
01ED00
07FF00
06F900
03EC00
0B5D00
1D0E00
780B40
ENDCHAR
STARTCHAR uni0500
ENCODING 1280
SWIDTH 606 0
DWIDTH 11 0
BBX 11 13 0 0
BITMAP
00002C
000038
000038
000074
000074
06FFF0
1F95F0
3C00E0
7400E0
7401D0
7401D0
2E56C0
0BFFC0
ENDCHAR
STARTCHAR uni0501
ENCODING 1281
SWIDTH 551 0
DWIDTH 10 0
BBX 10 14 0 0
BITMAP
0000B0
0000A0
0000E0
0001D0
02F9D0
0F9BC0
2D03C0
380380
340380
740740
740740
380B00
2E6F00
0BEA00
ENDCHAR
STARTCHAR uni0502
ENCODING 1282
SWIDTH 802 0
DWIDTH 14 0
BBX 14 13 0 0
BITMAP
00002C00
00003800
00003800
00007400
00007400
06FFF000
1F95F0A0
3C00E0A0
7400E0A0
7401D0E0
7801D1D0
2E56DB80
0BFFFE00
ENDCHAR
STARTCHAR uni0503
ENCODING 1283
SWIDTH 840 0
DWIDTH 15 0
BBX 14 14 0 0
BITMAP
0000B000
0000E000
0000E000
0001D000
02F9D000
0B9BC050
1D03C0B0
380380B0
340380B0
740740A0
740740E0
380B42C0
2E6B9B40
0BD2F900
ENDCHAR
STARTCHAR uni0504
ENCODING 1284
SWIDTH 772 0
DWIDTH 14 0
BBX 12 13 1 0
BITMAP
7FE000
55BC00
001D00
001D00
002D05
00780E
2FD00E
16E00E
00B40D
00741D
007438
0079B4
001F90
ENDCHAR
STARTCHAR uni0505
ENCODING 1285
SWIDTH 631 0
DWIDTH 11 0
BBX 10 10 1 0
BITMAP
FE4000
56D000
00E000
00E0D0
02C0D0
FF40D0
5781D0
0282C0
02DB40
01F900
ENDCHAR
STARTCHAR uni0506
ENCODING 1286
SWIDTH 524 0
DWIDTH 9 0
BBX 7 16 1 -3
BITMAP
3F90
15B4
0038
002C
0038
01B0
7F80
16D0
00E0
00A0
00E0
00FC
00FC
0038
00B0
0090
ENDCHAR
STARTCHAR uni0507
ENCODING 1287
SWIDTH 493 0
DWIDTH 9 0
BBX 7 13 1 -3
BITMAP
7F80
15F0
0074
0074
01E0
7F80
56D0
00E0
00F8
00F8
0074
00B0
0090
ENDCHAR
STARTCHAR uni0508
ENCODING 1288
SWIDTH 944 0
DWIDTH 17 0
BBX 18 13 -1 0
BITMAP
001FFFC000
002D578000
0038038000
0038074000
0074074040
00700B01C0
00B00B01D0
00E00E01C0
00D00E02C0
01D01D0380
03801D0740
1F400F6E00
790006E400
ENDCHAR
STARTCHAR uni0509
ENCODING 1289
SWIDTH 787 0
DWIDTH 14 0
BBX 15 10 -1 0
BITMAP
00BFF400
00E5B000
00D0B034
01D0E034
01C0E034
02C1D074
0381D070
0741D0E0
2E00E6D0
78007E40
ENDCHAR
STARTCHAR uni050A
ENCODING 1290
SWIDTH 972 0
DWIDTH 18 0
BBX 17 13 0 0
BITMAP
07400B0000
0B000E0000
0B000E0000
0E001D0000
0E001D0500
1D002C0700
1FFFFC0740
2D55780700
2C00380B00
3800740E00
3800741D00
74003DB800
74001F9000
ENDCHAR
STARTCHAR uni050B
ENCODING 1291
SWIDTH 808 0
DWIDTH 15 0
BBX 14 10 0 0
BITMAP
0D01D000
1D01D000
1D02C0E0
2C02C0E0
2C0280E0
3FFF80E0
395741D0
740742C0
7403DB40
B001F900
ENDCHAR
STARTCHAR uni050C
ENCODING 1292
SWIDTH 606 0
DWIDTH 11 0
BBX 9 13 1 0
BITMAP
01BE40
0B9680
1D0000
380000
740000
B00000
B002C0
E002C0
E002C0
E00380
B40740
3E6E00
0BE400
ENDCHAR
STARTCHAR uni050D
ENCODING 1293
SWIDTH 503 0
DWIDTH 9 0
BBX 8 10 0 0
BITMAP
01FE
0B96
1D00
3800
3800
740B
740B
380A
1E6D
07F4
ENDCHAR
STARTCHAR uni050E
ENCODING 1294
SWIDTH 692 0
DWIDTH 12 0
BBX 11 13 1 0
BITMAP
7FFFF4
55B550
00B000
00E000
00E010
01D034
01D034
02C034
02C074
0380B0
0381E0
02DBC0
00BE00
ENDCHAR
STARTCHAR uni050F
ENCODING 1295
SWIDTH 626 0
DWIDTH 11 0
BBX 9 10 1 0
BITMAP
BFFF00
579500
038000
0742C0
0741C0
0B02C0
0B02C0
0B0380
079F00
02F800
ENDCHAR
STARTCHAR uni0510
ENCODING 1296
SWIDTH 658 0
DWIDTH 12 0
BBX 11 13 1 0
BITMAP
01BF80
0B96E0
1E0074
2C0024
2C0000
1E0000
0BFC00
2E5400
B40000
E00090
F002D0
7D5F80
1BF900
ENDCHAR
STARTCHAR uni0511
ENCODING 1297
SWIDTH 527 0
DWIDTH 10 0
BBX 9 10 0 0
BITMAP
06F900
1E5B40
2C0280
1D0000
0BF400
2D5000
740000
B00B00
796E00
1BE400
ENDCHAR
STARTCHAR uni0512
ENCODING 1298
SWIDTH 733 0
DWIDTH 13 0
BBX 13 17 -1 -4
BITMAP
002FFFC0
003D57C0
00380380
00740380
00700740
00B00740
00E00B00
00E00B00
01D00E00
02C00E00
07801D00
2F001D00
79002F80
00000340
00000740
00005F00
0000B800
ENDCHAR
STARTCHAR uni0513
ENCODING 1299
SWIDTH 604 0
DWIDTH 11 0
BBX 11 14 -1 -4
BITMAP
00FFF4
00E5B4
01D0B0
01C0B0
02C0E0
0280E0
0341D0
0701D0
2E02C0
7802F8
000074
000074
0005E0
000B80
ENDCHAR
STARTCHAR uni1E00
ENCODING 7680
SWIDTH 637 0
DWIDTH 11 0
BBX 11 17 -1 -4
BITMAP
000380
000BC0
000ED0
002CD0
0074E0
00B0A0
01D0B0
028070
07FFF4
0E5578
1D0028
38002C
74001C
000000
007800
008C00
00B800
ENDCHAR
STARTCHAR uni1E01
ENCODING 7681
SWIDTH 532 0
DWIDTH 10 0
BBX 9 14 0 -4
BITMAP
02F900
0F5B00
1D0740
000740
06FF40
2D4B00
740B00
741E00
79BE00
1F9E00
000000
0F0000
164000
1E0000
ENDCHAR
STARTCHAR uni1E3E
ENCODING 7742
SWIDTH 851 0
DWIDTH 15 0
BBX 15 17 0 0
BITMAP
00001E00
00003800
00006000
00000000
07C0007C
0BC000FC
0BD001F8
0EE003B8
0EA00B74
1DB00E74
1D742CB0
2C3474A0
2C38B0E0
3829D0D0
381F81D0
741F42C0
740E02C0
ENDCHAR
STARTCHAR uni1E3F
ENCODING 7743
SWIDTH 854 0
DWIDTH 15 0
BBX 15 14 0 0
BITMAP
00002D00
00007800
0000A000
00000000
0DBE1B90
1F9BB5F0
1D03C074
2C038074
28074070
380740B0
340B00A0
740B00E0
700A00D0
B00E01D0
ENDCHAR
STARTCHAR Wgrave
ENCODING 7808
SWIDTH 865 0
DWIDTH 16 0
BBX 15 17 1 0
BITMAP
000B0000
00038000
00018000
00000000
7403802C
7407C038
340BC074
381EC0B0
382DD0E0
3834D1D0
2870D280
28E0A340
2DD0AB00
2E80AE00
1F407D00
1F007C00
1D007800
ENDCHAR
STARTCHAR wgrave
ENCODING 7809
SWIDTH 733 0
DWIDTH 13 0
BBX 13 14 1 0
BITMAP
00740000
002C0000
00180000
00000000
A02C0740
A03C0A00
B0BD0D00
B0DD2C00
71CD3800
734A7000
770AA000
3E07D000
3C078000
38074000
ENDCHAR
STARTCHAR Wacute
ENCODING 7810
SWIDTH 865 0
DWIDTH 16 0
BBX 15 17 1 0
BITMAP
00003800
0000F000
0001C000
00000000
7403802C
7407C038
340BC074
381EC0B0
382DD0E0
3834D1D0
2870D280
28E0A340
2DD0AB00
2E80AE00
1F407D00
1F007C00
1D007800
ENDCHAR
STARTCHAR wacute
ENCODING 7811
SWIDTH 733 0
DWIDTH 13 0
BBX 13 14 1 0
BITMAP
0002D000
000B4000
000D0000
00000000
A02C0740
A03C0A00
B0BD0D00
B0DD2C00
71CD3800
734A7000
770AA000
3E07D000
3C078000
38074000
ENDCHAR
STARTCHAR Wdieresis
ENCODING 7812
SWIDTH 865 0
DWIDTH 16 0
BBX 15 16 1 0
BITMAP
00091800
001D2C00
00000000
7403802C
7407C038
340BC074
381EC0B0
382DD0E0
3834D1D0
2870D280
28E0A340
2DD0AB00
2E80AE00
1F407D00
1F007C00
1D007800
ENDCHAR
STARTCHAR wdieresis
ENCODING 7813
SWIDTH 733 0
DWIDTH 13 0
BBX 13 13 1 0
BITMAP
00A09000
00E1D000
00000000
A02C0740
A03C0A00
B0BD0D00
B0DD2C00
71CD3800
734A7000
770AA000
3E07D000
3C078000
38074000
ENDCHAR
STARTCHAR uni1EA0
ENCODING 7840
SWIDTH 637 0
DWIDTH 11 0
BBX 11 16 -1 -3
BITMAP
000380
000BC0
000ED0
002CD0
0074E0
00B0A0
01D0B0
028070
07FFF4
0E5578
1D0028
38002C
74001C
000000
007400
006400
ENDCHAR
STARTCHAR uni1EA1
ENCODING 7841
SWIDTH 532 0
DWIDTH 10 0
BBX 9 13 0 -3
BITMAP
02F900
0F5B00
1D0740
000740
06FF40
2D4B00
740B00
741E00
79BE00
1F9E00
000000
0A0000
0A0000
ENDCHAR
STARTCHAR uni1EA2
ENCODING 7842
SWIDTH 637 0
DWIDTH 11 0
BBX 11 18 -1 0
BITMAP
0000E0
000034
0000B4
0001C0
000000
000380
000BC0
000ED0
002CD0
0074E0
00B0A0
01D0B0
028070
07FFF4
0E5578
1D0028
38002C
74001C
ENDCHAR
STARTCHAR uni1EA3
ENCODING 7843
SWIDTH 532 0
DWIDTH 10 0
BBX 9 15 0 0
BITMAP
001E00
000700
001B00
002800
000000
02F900
0F5B00
1D0740
000740
06FF40
2D4B00
740B00
741E00
79BE00
1F9E00
ENDCHAR
STARTCHAR uni1EA4
ENCODING 7844
SWIDTH 637 0
DWIDTH 11 0
BBX 14 18 -1 0
BITMAP
000000E0
00000280
0006E000
001E2800
00000000
00038000
000BC000
000ED000
002CD000
0074E000
00B0A000
01D0B000
02807000
07FFF400
0E557800
1D002800
38002C00
74001C00
ENDCHAR
STARTCHAR uni1EA5
ENCODING 7845
SWIDTH 532 0
DWIDTH 10 0
BBX 12 15 0 0
BITMAP
00001E
000024
007E00
02D740
000000
02F900
0F5B00
1D0740
000740
06FF40
2D4B00
740B00
741E00
79BE00
1F9E00
ENDCHAR
STARTCHAR uni1EA6
ENCODING 7846
SWIDTH 637 0
DWIDTH 11 0
BBX 11 18 -1 0
BITMAP
01D000
00A000
0006E0
001E28
000000
000380
000BC0
000ED0
002CD0
0074E0
00B0A0
01D0B0
028070
07FFF4
0E5578
1D0028
38002C
74001C
ENDCHAR
STARTCHAR uni1EA7
ENCODING 7847
SWIDTH 532 0
DWIDTH 10 0
BBX 9 15 0 0
BITMAP
1C0000
090000
007E00
02D740
000000
02F900
0F5B00
1D0740
000740
06FF40
2D4B00
740B00
741E00
79BE00
1F9E00
ENDCHAR
STARTCHAR uni1EA8
ENCODING 7848
SWIDTH 637 0
DWIDTH 11 0
BBX 13 19 -1 0
BITMAP
00000380
000001C0
00000340
0007E000
001D2800
00000000
00038000
000BC000
000ED000
002CD000
0074E000
00B0A000
01D0B000
02807000
07FFF400
0E557800
1D002800
38002C00
74001C00
ENDCHAR
STARTCHAR uni1EA9
ENCODING 7849
SWIDTH 532 0
DWIDTH 10 0
BBX 11 16 0 0
BITMAP
000034
00001C
000060
007E00
029240
000000
02F900
0F5B00
1D0740
000740
06FF40
2D4B00
740B00
741E00
79BE00
1F9E00
ENDCHAR
STARTCHAR uni1EAA
ENCODING 7850
SWIDTH 637 0
DWIDTH 11 0
BBX 11 19 -1 0
BITMAP
000388
000974
000000
0006E0
001D28
000000
000380
000BC0
000ED0
002CD0
0074E0
00B0A0
01D0B0
028070
07FFF4
0E5578
1D0028
38002C
74001C
ENDCHAR
STARTCHAR uni1EAB
ENCODING 7851
SWIDTH 532 0
DWIDTH 10 0
BBX 9 16 0 0
BITMAP
007580
008B40
000000
007D00
029240
000000
02F900
0F5B00
1D0740
000740
06FF40
2D4B00
740B00
741E00
79BE00
1F9E00
ENDCHAR
STARTCHAR uni1EAC
ENCODING 7852
SWIDTH 637 0
DWIDTH 11 0
BBX 11 20 -1 -3
BITMAP
0002D0
000B74
001D28
000000
000380
000BC0
000ED0
002CD0
0074E0
00B0A0
01D0B0
028070
07FFF4
0E5578
1D0028
38002C
74001C
000000
007400
006400
ENDCHAR
STARTCHAR uni1EAD
ENCODING 7853
SWIDTH 532 0
DWIDTH 10 0
BBX 9 17 0 -3
BITMAP
002D00
00FB40
02C380
000000
02F900
0F5B00
1D0740
000740
06FF40
2D4B00
740B00
741E00
79BE00
1F9E00
000000
0A0000
0A0000
ENDCHAR
STARTCHAR uni1EAE
ENCODING 7854
SWIDTH 637 0
DWIDTH 11 0
BBX 11 19 -1 0
BITMAP
000034
000090
000040
000D2C
0007E4
000000
000380
000BC0
000ED0
002CD0
0074E0
00B0A0
01D0B0
028070
07FFF4
0E5578
1D0028
38002C
74001C
ENDCHAR
STARTCHAR uni1EAF
ENCODING 7855
SWIDTH 532 0
DWIDTH 10 0
BBX 9 16 0 0
BITMAP
000700
000800
000000
01C280
00BE00
000000
02F900
0F5B00
1D0740
000740
06FF40
2D4B00
740B00
741E00
79BE00
1F9E00
ENDCHAR
STARTCHAR uni1EB0
ENCODING 7856
SWIDTH 637 0
DWIDTH 11 0
BBX 11 18 -1 0
BITMAP
000280
000080
000D2C
0007E4
000000
000380
000BC0
000ED0
002CD0
0074E0
00B0A0
01D0B0
028070
07FFF4
0E5578
1D0028
38002C
74001C
ENDCHAR
STARTCHAR uni1EB1
ENCODING 7857
SWIDTH 532 0
DWIDTH 10 0
BBX 9 15 0 0
BITMAP
002400
001800
01C280
00BE00
000000
02F900
0F5B00
1D0740
000740
06FF40
2D4B00
740B00
741E00
79BE00
1F9E00
ENDCHAR
STARTCHAR uni1EB2
ENCODING 7858
SWIDTH 637 0
DWIDTH 11 0
BBX 11 19 -1 0
BITMAP
0000A4
000068
0000D0
000D28
0007E0
000000
000380
000BC0
000ED0
002CD0
0074E0
00B0A0
01D0B0
028070
07FFF4
0E5578
1D0028
38002C
74001C
ENDCHAR
STARTCHAR uni1EB3
ENCODING 7859
SWIDTH 532 0
DWIDTH 10 0
BBX 9 16 0 0
BITMAP
000E00
000740
001D00
01C340
00BE00
000000
02F900
0F5B00
1D0740
000740
06FF40
2D4B00
740B00
741E00
79BE00
1F9E00
ENDCHAR
STARTCHAR uni1EB4
ENCODING 7860
SWIDTH 637 0
DWIDTH 11 0
BBX 12 19 -1 0
BITMAP
000789
000978
000000
000D28
0007E0
000000
000380
000BC0
000ED0
002CD0
0074E0
00B0A0
01D0B0
028070
07FFF4
0E5578
1D0028
38002C
74001C
ENDCHAR
STARTCHAR uni1EB5
ENCODING 7861
SWIDTH 532 0
DWIDTH 10 0
BBX 9 16 0 0
BITMAP
007880
008740
000000
01C380
007E00
000000
02F900
0F5B00
1D0740
000740
06FF40
2D4B00
740B00
741E00
79BE00
1F9E00
ENDCHAR
STARTCHAR uni1EB6
ENCODING 7862
SWIDTH 637 0
DWIDTH 11 0
BBX 11 19 -1 -3
BITMAP
000D2C
0007E4
000000
000380
000BC0
000ED0
002CD0
0074E0
00B0A0
01D0B0
028070
07FFF4
0E5578
1D0028
38002C
74001C
000000
007400
006400
ENDCHAR
STARTCHAR uni1EB7
ENCODING 7863
SWIDTH 532 0
DWIDTH 10 0
BBX 9 16 0 -3
BITMAP
00D280
007E00
000000
02F900
0F5B00
1D0740
000740
06FF40
2D4B00
740B00
741E00
79BE00
1F9E00
000000
0A0000
0A0000
ENDCHAR
STARTCHAR uni1EB8
ENCODING 7864
SWIDTH 556 0
DWIDTH 10 0
BBX 11 16 0 -3
BITMAP
07FFF4
0B5550
0B0000
0E0000
0E0000
1E0000
1FFF80
2D5540
2C0000
380000
380000
795540
7FFF80
000000
028000
028000
ENDCHAR
STARTCHAR uni1EB9
ENCODING 7865
SWIDTH 518 0
DWIDTH 9 0
BBX 9 13 0 -3
BITMAP
01F900
0B9B00
1D0340
380380
3FFF80
795540
740000
380100
1E6E00
07F400
000000
034000
024000
ENDCHAR
STARTCHAR uni1EBA
ENCODING 7866
SWIDTH 556 0
DWIDTH 10 0
BBX 11 18 0 0
BITMAP
000740
0001C0
000780
000A00
000000
07FFF4
0B5550
0B0000
0E0000
0E0000
1E0000
1FFF80
2D5540
2C0000
380000
380000
795540
7FFF80
ENDCHAR
STARTCHAR uni1EBB
ENCODING 7867
SWIDTH 518 0
DWIDTH 9 0
BBX 9 15 0 0
BITMAP
001D00
000700
001E00
002800
000000
01F900
0B9B00
1D0340
380380
3FFF80
795540
740000
380100
1E6E00
07F400
ENDCHAR
STARTCHAR uni1EBC
ENCODING 7868
SWIDTH 556 0
DWIDTH 10 0
BBX 11 17 0 0
BITMAP
001010
00BD70
00D6D0
000000
07FFF4
0B5550
0B0000
0E0000
0E0000
1E0000
1FFF80
2D5540
2C0000
380000
380000
795540
7FFF80
ENDCHAR
STARTCHAR uni1EBD
ENCODING 7869
SWIDTH 518 0
DWIDTH 9 0
BBX 9 14 0 0
BITMAP
004040
02F6C0
035B40
000000
01F900
0B9B00
1D0340
380380
3FFF80
795540
740000
380100
1E6E00
07F400
ENDCHAR
STARTCHAR uni1EBE
ENCODING 7870
SWIDTH 556 0
DWIDTH 10 0
BBX 13 18 0 0
BITMAP
00000740
00001D00
002F4000
00B5D000
00000000
07FFF400
0B555000
0B000000
0E000000
0E000000
1E000000
1FFF8000
2D554000
2C000000
38000000
38000000
79554000
7FFF8000
ENDCHAR
STARTCHAR uni1EBF
ENCODING 7871
SWIDTH 518 0
DWIDTH 9 0
BBX 12 15 0 0
BITMAP
00002D
000074
00BD00
02D740
000000
01F900
0B9B00
1D0340
380380
3FFF80
795540
740000
380100
1E6E00
07F400
ENDCHAR
STARTCHAR uni1EC0
ENCODING 7872
SWIDTH 556 0
DWIDTH 10 0
BBX 11 18 0 0
BITMAP
0B0000
024000
002F40
00B5D0
000000
07FFF4
0B5550
0B0000
0E0000
0E0000
1E0000
1FFF80
2D5540
2C0000
380000
380000
795540
7FFF80
ENDCHAR
STARTCHAR uni1EC1
ENCODING 7873
SWIDTH 518 0
DWIDTH 9 0
BBX 9 15 0 0
BITMAP
2C0000
080000
00BD00
029740
000000
01F900
0B9B00
1D0340
380380
3FFF80
795540
740000
380100
1E6E00
07F400
ENDCHAR
STARTCHAR uni1EC2
ENCODING 7874
SWIDTH 556 0
DWIDTH 10 0
BBX 12 19 0 0
BITMAP
00001D
00000A
000028
002F40
00A0D0
000000
07FFF4
0B5550
0B0000
0E0000
0E0000
1E0000
1FFF80
2D5540
2C0000
380000
380000
795540
7FFF80
ENDCHAR
STARTCHAR uni1EC3
ENCODING 7875
SWIDTH 518 0
DWIDTH 9 0
BBX 11 16 0 0
BITMAP
000074
000028
0000A0
00BD00
028740
000000
01F900
0B9B00
1D0340
380380
3FFF80
795540
740000
380100
1E6E00
07F400
ENDCHAR
STARTCHAR uni1EC4
ENCODING 7876
SWIDTH 556 0
DWIDTH 10 0
BBX 11 19 0 0
BITMAP
001D50
0022C0
000000
002F40
00A1D0
000000
07FFF4
0B5550
0B0000
0E0000
0E0000
1E0000
1FFF80
2D5540
2C0000
380000
380000
795540
7FFF80
ENDCHAR
STARTCHAR uni1EC5
ENCODING 7877
SWIDTH 518 0
DWIDTH 9 0
BBX 9 16 0 0
BITMAP
00B540
008B00
000000
00BD00
028740
000000
01F900
0B9B00
1D0340
380380
3FFF80
795540
740000
380100
1E6E00
07F400
ENDCHAR
STARTCHAR uni1EC6
ENCODING 7878
SWIDTH 556 0
DWIDTH 10 0
BBX 11 20 0 -3
BITMAP
000B00
007AC0
00B0D0
000000
07FFF4
0B5550
0B0000
0E0000
0E0000
1E0000
1FFF80
2D5540
2C0000
380000
380000
795540
7FFF80
000000
028000
028000
ENDCHAR
STARTCHAR uni1EC7
ENCODING 7879
SWIDTH 518 0
DWIDTH 9 0
BBX 9 17 0 -3
BITMAP
003C00
01EA00
038740
000000
01F900
0B9B00
1D0340
380380
3FFF80
795540
740000
380100
1E6E00
07F400
000000
034000
024000
ENDCHAR
STARTCHAR uni1EC8
ENCODING 7880
SWIDTH 268 0
DWIDTH 5 0
BBX 6 18 0 0
BITMAP
01D0
0070
01B0
0280
0000
0740
0740
0B00
0B00
0E00
0E00
1D00
1D00
2C00
2C00
3800
3800
7400
ENDCHAR
STARTCHAR uni1EC9
ENCODING 7881
SWIDTH 244 0
DWIDTH 4 0
BBX 6 15 0 0
BITMAP
0380
00D0
02D0
0700
0000
0E00
1D00
1D00
2C00
2C00
3800
3800
7400
7400
B000
ENDCHAR
STARTCHAR uni1ECA
ENCODING 7882
SWIDTH 268 0
DWIDTH 5 0
BBX 5 16 0 -3
BITMAP
0740
0740
0B00
0B00
0E00
0E00
1D00
1D00
2C00
2C00
3800
3800
7400
0000
A000
A000
ENDCHAR
STARTCHAR uni1ECB
ENCODING 7883
SWIDTH 240 0
DWIDTH 4 0
BBX 4 17 0 -3
BITMAP
06
07
00
00
0E
1D
1D
2C
2C
38
38
74
74
B0
00
E0
90
ENDCHAR
STARTCHAR uni1ECC
ENCODING 7884
SWIDTH 671 0
DWIDTH 12 0
BBX 11 16 1 -3
BITMAP
01BE40
0BABD0
1E00F0
380070
740074
B00074
B00074
E000B0
E000E0
B001D0
740380
2E6F00
0BF800
000000
034000
024000
ENDCHAR
STARTCHAR uni1ECD
ENCODING 7885
SWIDTH 558 0
DWIDTH 10 0
BBX 9 13 0 -3
BITMAP
01FD00
0B9B40
1D02C0
3801C0
3401C0
7402C0
740380
380740
1E6E00
07F400
000000
034000
024000
ENDCHAR
STARTCHAR uni1ECE
ENCODING 7886
SWIDTH 671 0
DWIDTH 12 0
BBX 11 18 1 0
BITMAP
000A40
000280
000B40
000D00
000000
01BE40
0BABD0
1E00F0
380070
740074
B00074
B00074
E000B0
E000E0
B001D0
740380
2E6F00
0BF800
ENDCHAR
STARTCHAR uni1ECF
ENCODING 7887
SWIDTH 558 0
DWIDTH 10 0
BBX 9 15 0 0
BITMAP
001D00
000700
001A00
002800
000000
01FD00
0B9B40
1D02C0
3801C0
3401C0
7402C0
740380
380740
1E6E00
07F400
ENDCHAR
STARTCHAR uni1ED0
ENCODING 7888
SWIDTH 671 0
DWIDTH 12 0
BBX 13 18 1 0
BITMAP
00000B40
00001C00
002F4000
01A28000
00000000
01BE4000
0BABD000
1E00F000
38007000
74007400
B0007400
B0007400
E000B000
E000E000
B001D000
74038000
2E6F0000
0BF80000
ENDCHAR
STARTCHAR uni1ED1
ENCODING 7889
SWIDTH 558 0
DWIDTH 10 0
BBX 12 15 0 0
BITMAP
00001D
000074
00BD00
02D740
000000
01FD00
0B9B40
1D02C0
3801C0
3401C0
7402C0
740380
380740
1E6E00
07F400
ENDCHAR
STARTCHAR uni1ED2
ENCODING 7890
SWIDTH 671 0
DWIDTH 12 0
BBX 11 18 1 0
BITMAP
0E0000
060000
002F40
01E280
000000
01BE40
0BABD0
1E00F0
380070
740074
B00074
B00074
E000B0
E000E0
B001D0
740380
2E6F00
0BF800
ENDCHAR
STARTCHAR uni1ED3
ENCODING 7891
SWIDTH 558 0
DWIDTH 10 0
BBX 9 15 0 0
BITMAP
2C0000
090000
00BD00
02D740
000000
01FD00
0B9B40
1D02C0
3801C0
3401C0
7402C0
740380
380740
1E6E00
07F400
ENDCHAR
STARTCHAR uni1ED4
ENCODING 7892
SWIDTH 671 0
DWIDTH 12 0
BBX 12 19 1 0
BITMAP
000028
000009
000034
006F40
01E1C0
000000
01BE40
0BABD0
1E00F0
380070
740074
B00074
B00074
E000B0
E000E0
B001D0
740380
2E6F00
0BF800
ENDCHAR
STARTCHAR uni1ED5
ENCODING 7893
SWIDTH 558 0
DWIDTH 10 0
BBX 11 16 0 0
BITMAP
000074
000028
0000A0
00BE00
028340
000000
01FD00
0B9B40
1D02C0
3801C0
3401C0
7402C0
740380
380740
1E6E00
07F400
ENDCHAR
STARTCHAR uni1ED6
ENCODING 7894
SWIDTH 671 0
DWIDTH 12 0
BBX 11 19 1 0
BITMAP
002890
006280
000000
006E40
01E180
000000
01BE40
0BABD0
1E00F0
380070
740074
B00074
B00074
E000B0
E000E0
B001D0
740380
2E6F00
0BF800
ENDCHAR
STARTCHAR uni1ED7
ENCODING 7895
SWIDTH 558 0
DWIDTH 10 0
BBX 9 16 0 0
BITMAP
007540
008B00
000000
00BD00
028740
000000
01FD00
0B9B40
1D02C0
3801C0
3401C0
7402C0
740380
380740
1E6E00
07F400
ENDCHAR
STARTCHAR uni1ED8
ENCODING 7896
SWIDTH 671 0
DWIDTH 12 0
BBX 11 20 1 -3
BITMAP
001E00
007780
00E1C0
000000
01BE40
0BABD0
1E00F0
380070
740074
B00074
B00074
E000B0
E000E0
B001D0
740380
2E6F00
0BF800
000000
034000
024000
ENDCHAR
STARTCHAR uni1ED9
ENCODING 7897
SWIDTH 558 0
DWIDTH 10 0
BBX 9 17 0 -3
BITMAP
002C00
01EB00
02C340
000000
01FD00
0B9B40
1D02C0
3801C0
3401C0
7402C0
740380
380740
1E6E00
07F400
000000
034000
024000
ENDCHAR
STARTCHAR uni1EDA
ENCODING 7898
SWIDTH 670 0
DWIDTH 12 0
BBX 13 17 1 0
BITMAP
0002D000
000B4000
001D0140
00000380
01BE4B00
0B9BFD00
1D00F000
3800B000
7400B400
B0007000
E000B000
E000A000
E000E000
E002C000
B4078000
3E6E0000
0BE40000
ENDCHAR
STARTCHAR uni1EDB
ENCODING 7899
SWIDTH 559 0
DWIDTH 10 0
BBX 11 14 0 0
BITMAP
000780
001E00
002800
00001C
01FE28
0B9BE0
1D02C0
3801C0
3401C0
7402C0
740380
380740
2E6E00
07E400
ENDCHAR
STARTCHAR uni1EDC
ENCODING 7900
SWIDTH 670 0
DWIDTH 12 0
BBX 13 17 1 0
BITMAP
00740000
00380000
00180140
00000380
01BE4B00
0B9BFD00
1D00F000
3800B000
7400B400
B0007000
E000B000
E000A000
E000E000
E002C000
B4078000
3E6E0000
0BE40000
ENDCHAR
STARTCHAR uni1EDD
ENCODING 7901
SWIDTH 559 0
DWIDTH 10 0
BBX 11 14 0 0
BITMAP
00E000
007400
002400
00001C
01FE28
0B9BE0
1D02C0
3801C0
3401C0
7402C0
740380
380740
2E6E00
07E400
ENDCHAR
STARTCHAR uni1EDE
ENCODING 7902
SWIDTH 670 0
DWIDTH 12 0
BBX 13 18 1 0
BITMAP
000A0000
00028000
000B4000
000D0140
00000380
01BE4B00
0B9BFD00
1D00F000
3800B000
7400B400
B0007000
E000B000
E000A000
E000E000
E002C000
B4078000
3E6E0000
0BE40000
ENDCHAR
STARTCHAR uni1EDF
ENCODING 7903
SWIDTH 559 0
DWIDTH 10 0
BBX 11 15 0 0
BITMAP
001E00
000700
001B00
002800
00001C
01FE28
0B9BE0
1D02C0
3801C0
3401C0
7402C0
740380
380740
2E6E00
07E400
ENDCHAR
STARTCHAR uni1EE0
ENCODING 7904
SWIDTH 670 0
DWIDTH 12 0
BBX 13 17 1 0
BITMAP
00101000
00F9A000
01878140
00000380
01BE4B00
0B9BFD00
1D00F000
3800B000
7400B400
B0007000
E000B000
E000A000
E000E000
E002C000
B4078000
3E6E0000
0BE40000
ENDCHAR
STARTCHAR uni1EE1
ENCODING 7905
SWIDTH 559 0
DWIDTH 10 0
BBX 11 14 0 0
BITMAP
000040
01F9C0
034B40
00001C
01FE28
0B9BE0
1D02C0
3801C0
3401C0
7402C0
740380
380740
2E6E00
07E400
ENDCHAR
STARTCHAR uni1EE2
ENCODING 7906
SWIDTH 670 0
DWIDTH 12 0
BBX 13 18 1 -3
BITMAP
00000140
00000380
01BE4B00
0B9BFD00
1D00F000
3800B000
7400B400
B0007000
E000B000
E000A000
E000E000
E002C000
B4078000
3E6E0000
0BE40000
00000000
03400000
06400000
ENDCHAR
STARTCHAR uni1EE3
ENCODING 7907
SWIDTH 559 0
DWIDTH 10 0
BBX 11 14 0 -3
BITMAP
00001C
01FE28
0B9BE0
1D02C0
3801C0
3401C0
7402C0
740380
380740
2E6E00
07E400
000000
034000
024000
ENDCHAR
STARTCHAR uni1EE4
ENCODING 7908
SWIDTH 633 0
DWIDTH 11 0
BBX 11 16 1 -3
BITMAP
2C0074
2C0074
3800B0
3800B0
7400E0
7400E0
B001D0
B001D0
E002C0
E003C0
B00740
7D6E00
1BE400
000000
070000
060000
ENDCHAR
STARTCHAR uni1EE5
ENCODING 7909
SWIDTH 539 0
DWIDTH 10 0
BBX 9 13 1 -3
BITMAP
340740
740B00
740B00
B00E00
B00E00
E01D00
E01D00
E02C00
B5BC00
2FB800
000000
280000
280000
ENDCHAR
STARTCHAR uni1EE6
ENCODING 7910
SWIDTH 633 0
DWIDTH 11 0
BBX 11 18 1 0
BITMAP
000E00
000340
000B40
001C00
000000
2C0074
2C0074
3800B0
3800B0
7400E0
7400E0
B001D0
B001D0
E002C0
E003C0
B00740
7D6E00
1BE400
ENDCHAR
STARTCHAR uni1EE7
ENCODING 7911
SWIDTH 539 0
DWIDTH 10 0
BBX 9 15 1 0
BITMAP
007400
001C00
006800
00A000
000000
340740
740B00
740B00
B00E00
B00E00
E01D00
E01D00
E02C00
B5BC00
2FB800
ENDCHAR
STARTCHAR uni1EE8
ENCODING 7912
SWIDTH 679 0
DWIDTH 12 0
BBX 14 17 1 0
BITMAP
0003C000
000B4000
001D0000
00000050
1C0038A0
2C0076C0
28007F40
3800B000
3400B000
7400E000
7000E000
B001D000
A002D000
E002C000
B0074000
7D6E0000
1BE40000
ENDCHAR
STARTCHAR uni1EE9
ENCODING 7913
SWIDTH 604 0
DWIDTH 11 0
BBX 11 14 1 0
BITMAP
001E00
007800
00A000
000018
380768
740BE0
740B00
B00E00
B00E00
E01D00
E01D00
E02C00
B5BC00
2FA800
ENDCHAR
STARTCHAR uni1EEA
ENCODING 7914
SWIDTH 679 0
DWIDTH 12 0
BBX 14 17 1 0
BITMAP
00B40000
00380000
00180000
00000050
1C0038A0
2C0076C0
28007F40
3800B000
3400B000
7400E000
7000E000
B001D000
A002D000
E002C000
B0074000
7D6E0000
1BE40000
ENDCHAR
STARTCHAR uni1EEB
ENCODING 7915
SWIDTH 604 0
DWIDTH 11 0
BBX 11 14 1 0
BITMAP
038000
01D000
009000
000018
380768
740BE0
740B00
B00E00
B00E00
E01D00
E01D00
E02C00
B5BC00
2FA800
ENDCHAR
STARTCHAR uni1EEC
ENCODING 7916
SWIDTH 679 0
DWIDTH 12 0
BBX 14 18 1 0
BITMAP
000A0000
00028000
000B4000
000D0000
00000050
1C0038A0
2C0076C0
28007F40
3800B000
3400B000
7400E000
7000E000
B001D000
A002D000
E002C000
B0074000
7D6E0000
1BE40000
ENDCHAR
STARTCHAR uni1EED
ENCODING 7917
SWIDTH 604 0
DWIDTH 11 0
BBX 11 15 1 0
BITMAP
007400
001C00
006C00
00A000
000018
380768
740BE0
740B00
B00E00
B00E00
E01D00
E01D00
E02C00
B5BC00
2FA800
ENDCHAR
STARTCHAR uni1EEE
ENCODING 7918
SWIDTH 679 0
DWIDTH 12 0
BBX 14 17 1 0
BITMAP
00101000
00F9A000
01878000
00000050
1C0038A0
2C0076C0
28007F40
3800B000
3400B000
7400E000
7000E000
B001D000
A002D000
E002C000
B0074000
7D6E0000
1BE40000
ENDCHAR
STARTCHAR uni1EEF
ENCODING 7919
SWIDTH 604 0
DWIDTH 11 0
BBX 11 14 1 0
BITMAP
000100
07D700
0D2D00
000018
380768
740BE0
740B00
B00E00
B00E00
E01D00
E01D00
E02C00
B5BC00
2FA800
ENDCHAR
STARTCHAR uni1EF0
ENCODING 7920
SWIDTH 679 0
DWIDTH 12 0
BBX 14 17 1 -3
BITMAP
00000050
1C0038A0
2C0076C0
28007F40
3800B000
3400B000
7400E000
7000E000
B001D000
A002D000
E002C000
B0074000
7D6E0000
1BE40000
00000000
07400000
06400000
ENDCHAR
STARTCHAR uni1EF1
ENCODING 7921
SWIDTH 604 0
DWIDTH 11 0
BBX 11 14 1 -3
BITMAP
000018
380768
740BE0
740B00
B00E00
B00E00
E01D00
E01D00
E02C00
B5BC00
2FA800
000000
1D0000
180000
ENDCHAR
STARTCHAR Ygrave
ENCODING 7922
SWIDTH 587 0
DWIDTH 11 0
BBX 11 17 1 0
BITMAP
01E000
00B000
002400
000000
7400B4
3801E0
2C03C0
1D0B40
0E1E00
0B3800
07F400
03D000
02C000
038000
038000
074000
074000
ENDCHAR
STARTCHAR ygrave
ENCODING 7923
SWIDTH 463 0
DWIDTH 8 0
BBX 10 18 -1 -4
BITMAP
00B400
003800
001800
000000
0E01E0
0B02C0
0B0380
070B00
074E00
035C00
03B800
02F400
02E000
01D000
028000
074000
6E0000
B80000
ENDCHAR
STARTCHAR uni1EF4
ENCODING 7924
SWIDTH 587 0
DWIDTH 11 0
BBX 11 16 1 -3
BITMAP
7400B4
3801E0
2C03C0
1D0B40
0E1E00
0B3800
07F400
03D000
02C000
038000
038000
074000
074000
000000
0A0000
090000
ENDCHAR
STARTCHAR uni1EF5
ENCODING 7925
SWIDTH 463 0
DWIDTH 8 0
BBX 10 14 -1 -4
BITMAP
0E01E0
0B02C0
0B0380
070B00
074E00
035C00
03B800
02F400
02E000
01D000
028000
074000
6E7400
B86400
ENDCHAR
STARTCHAR uni1EF6
ENCODING 7926
SWIDTH 587 0
DWIDTH 11 0
BBX 11 18 1 0
BITMAP
001D00
000700
001E00
002800
000000
7400B4
3801E0
2C03C0
1D0B40
0E1E00
0B3800
07F400
03D000
02C000
038000
038000
074000
074000
ENDCHAR
STARTCHAR uni1EF7
ENCODING 7927
SWIDTH 463 0
DWIDTH 8 0
BBX 10 19 -1 -4
BITMAP
000A00
000280
000B40
000D00
000000
0E01E0
0B02C0
0B0380
070B00
074E00
035C00
03B800
02F400
02E000
01D000
028000
074000
6E0000
B80000
ENDCHAR
STARTCHAR uni1EF8
ENCODING 7928
SWIDTH 587 0
DWIDTH 11 0
BBX 11 17 1 0
BITMAP
004040
02F6C0
035B40
000000
7400B4
3801E0
2C03C0
1D0B40
0E1E00
0B3800
07F400
03D000
02C000
038000
038000
074000
074000
ENDCHAR
STARTCHAR uni1EF9
ENCODING 7929
SWIDTH 463 0
DWIDTH 8 0
BBX 10 18 -1 -4
BITMAP
001010
00F990
028780
000000
0E01E0
0B02C0
0B0380
070B00
074E00
035C00
03B800
02F400
02E000
01D000
028000
074000
6E0000
B80000
ENDCHAR
STARTCHAR uni1F4D
ENCODING 8013
SWIDTH 706 0
DWIDTH 13 0
BBX 15 13 -3 0
BITMAP
A1D07F80
A342E6F0
260B4074
001D0038
002C002C
0038002C
00740028
00740038
00740074
003800B0
002C01D0
001F9B80
0006F900
ENDCHAR
STARTCHAR uni2000
ENCODING 8192
SWIDTH 499 0
DWIDTH 9 0
BBX 1 1 0 0
BITMAP
00
ENDCHAR
STARTCHAR uni2001
ENCODING 8193
SWIDTH 994 0
DWIDTH 18 0
BBX 1 1 0 0
BITMAP
00
ENDCHAR
STARTCHAR uni2002
ENCODING 8194
SWIDTH 499 0
DWIDTH 9 0
BBX 1 1 0 0
BITMAP
00
ENDCHAR
STARTCHAR uni2003
ENCODING 8195
SWIDTH 994 0
DWIDTH 18 0
BBX 1 1 0 0
BITMAP
00
ENDCHAR
STARTCHAR uni2004
ENCODING 8196
SWIDTH 334 0
DWIDTH 6 0
BBX 1 1 0 0
BITMAP
00
ENDCHAR
STARTCHAR uni2005
ENCODING 8197
SWIDTH 251 0
DWIDTH 5 0
BBX 1 1 0 0
BITMAP
00
ENDCHAR
STARTCHAR uni2006
ENCODING 8198
SWIDTH 169 0
DWIDTH 3 0
BBX 1 1 0 0
BITMAP
00
ENDCHAR
STARTCHAR uni2007
ENCODING 8199
SWIDTH 549 0
DWIDTH 10 0
BBX 1 1 0 0
BITMAP
00
ENDCHAR
STARTCHAR uni2008
ENCODING 8200
SWIDTH 270 0
DWIDTH 5 0
BBX 1 1 0 0
BITMAP
00
ENDCHAR
STARTCHAR uni2009
ENCODING 8201
SWIDTH 202 0
DWIDTH 4 0
BBX 1 1 0 0
BITMAP
00
ENDCHAR
STARTCHAR uni200A
ENCODING 8202
SWIDTH 104 0
DWIDTH 2 0
BBX 1 1 0 0
BITMAP
00
ENDCHAR
STARTCHAR uni200B
ENCODING 8203
SWIDTH 0 0
DWIDTH 0 0
BBX 1 1 0 0
BITMAP
00
ENDCHAR
STARTCHAR uni2010
ENCODING 8208
SWIDTH 271 0
DWIDTH 5 0
BBX 5 2 0 4
BITMAP
BF80
5500
ENDCHAR
STARTCHAR uni2011
ENCODING 8209
SWIDTH 271 0
DWIDTH 5 0
BBX 5 2 0 4
BITMAP
BF80
5500
ENDCHAR
STARTCHAR endash
ENCODING 8211
SWIDTH 641 0
DWIDTH 12 0
BBX 10 2 1 5
BITMAP
7FFFD0
155540
ENDCHAR
STARTCHAR emdash
ENCODING 8212
SWIDTH 762 0
DWIDTH 14 0
BBX 12 2 1 5
BITMAP
7FFFFF
555555
ENDCHAR
STARTCHAR uni2015
ENCODING 8213
SWIDTH 762 0
DWIDTH 14 0
BBX 12 2 1 5
BITMAP
7FFFFF
555555
ENDCHAR
STARTCHAR underscoredbl
ENCODING 8215
SWIDTH 446 0
DWIDTH 8 0
BBX 9 4 -2 -4
BITMAP
3FFFC0
155540
7FFF80
155500
ENDCHAR
STARTCHAR quoteleft
ENCODING 8216
SWIDTH 198 0
DWIDTH 4 0
BBX 4 4 1 10
BITMAP
09
2C
34
74
ENDCHAR
STARTCHAR quoteright
ENCODING 8217
SWIDTH 198 0
DWIDTH 4 0
BBX 3 4 1 10
BITMAP
1C
2C
74
60
ENDCHAR
STARTCHAR quotesinglbase
ENCODING 8218
SWIDTH 197 0
DWIDTH 4 0
BBX 3 4 -1 -2
BITMAP
18
28
74
A0
ENDCHAR
STARTCHAR quotereversed
ENCODING 8219
SWIDTH 198 0
DWIDTH 4 0
BBX 2 4 2 10
BITMAP
E0
D0
E0
60
ENDCHAR
STARTCHAR quotedblleft
ENCODING 8220
SWIDTH 347 0
DWIDTH 6 0
BBX 6 4 1 10
BITMAP
0960
2CE0
39D0
76C0
ENDCHAR
STARTCHAR quotedblright
ENCODING 8221
SWIDTH 351 0
DWIDTH 6 0
BBX 6 4 1 10
BITMAP
1DB0
2CE0
39D0
6240
ENDCHAR
STARTCHAR quotedblbase
ENCODING 8222
SWIDTH 338 0
DWIDTH 6 0
BBX 6 5 -1 -3
BITMAP
2CE0
2DD0
39D0
7780
9600
ENDCHAR
STARTCHAR dagger
ENCODING 8224
SWIDTH 539 0
DWIDTH 10 0
BBX 9 13 1 0
BITMAP
00E000
00E000
01D000
BFFF80
56D540
02C000
038000
038000
034000
074000
070000
0B0000
0B0000
ENDCHAR
STARTCHAR daggerdbl
ENCODING 8225
SWIDTH 557 0
DWIDTH 10 0
BBX 10 17 0 -4
BITMAP
002800
003800
003400
2FFFE0
15B550
00B000
00B000
00E000
00E000
01D000
01D000
56D540
FFFF40
028000
038000
038000
074000
ENDCHAR
STARTCHAR bullet
ENCODING 8226
SWIDTH 331 0
DWIDTH 6 0
BBX 4 4 1 5
BITMAP
2D
BF
BE
29
ENDCHAR
STARTCHAR twodotenleader
ENCODING 8229
SWIDTH 461 0
DWIDTH 8 0
BBX 6 2 0 0
BITMAP
74B0
74B0
ENDCHAR
STARTCHAR ellipsis
ENCODING 8230
SWIDTH 653 0
DWIDTH 12 0
BBX 10 2 0 0
BITMAP
74B0E0
74B0D0
ENDCHAR
STARTCHAR uni2027
ENCODING 8231
SWIDTH 186 0
DWIDTH 3 0
BBX 2 2 1 4
BITMAP
D0
90
ENDCHAR
STARTCHAR perthousand
ENCODING 8240
SWIDTH 934 0
DWIDTH 17 0
BBX 15 13 1 0
BITMAP
1F800000
74D05000
A0A1D000
A0934000
71CA0000
2F5C0000
00740000
00D6E6E0
028D2D24
071C1828
1D182828
241D7C74
0007DBD0
ENDCHAR
STARTCHAR minute
ENCODING 8242
SWIDTH 173 0
DWIDTH 3 0
BBX 3 4 1 10
BITMAP
34
34
70
60
ENDCHAR
STARTCHAR second
ENCODING 8243
SWIDTH 314 0
DWIDTH 6 0
BBX 4 5 2 9
BITMAP
A7
96
DA
C9
8C
ENDCHAR
STARTCHAR guilsinglleft
ENCODING 8249
SWIDTH 295 0
DWIDTH 5 0
BBX 4 7 1 1
BITMAP
0A
1C
74
E0
A0
34
18
ENDCHAR
STARTCHAR guilsinglright
ENCODING 8250
SWIDTH 295 0
DWIDTH 5 0
BBX 5 7 0 1
BITMAP
1800
0D00
0B00
0740
0E00
2800
A000
ENDCHAR
STARTCHAR exclamdbl
ENCODING 8252
SWIDTH 508 0
DWIDTH 9 0
BBX 9 13 0 0
BITMAP
0742C0
0B0380
0B0340
0E0740
0E0700
1D0B00
1C0A00
2C0E00
280D00
000000
000000
241800
742800
ENDCHAR
STARTCHAR fraction
ENCODING 8260
SWIDTH 445 0
DWIDTH 8 0
BBX 9 11 0 1
BITMAP
000240
000A00
001C00
003400
00A000
028000
070000
0D0000
280000
A00000
800000
ENDCHAR
STARTCHAR uni2074
ENCODING 8308
SWIDTH 360 0
DWIDTH 6 0
BBX 6 7 1 6
BITMAP
02D0
0BC0
1EC0
7280
FFD0
0340
0340
ENDCHAR
STARTCHAR uni207F
ENCODING 8319
SWIDTH 414 0
DWIDTH 7 0
BBX 7 7 1 6
BITMAP
2AE0
3DB4
3474
7470
7070
B0A0
A0A0
ENDCHAR
STARTCHAR franc
ENCODING 8355
SWIDTH 541 0
DWIDTH 10 0
BBX 12 13 -1 0
BITMAP
01FFFD
02D554
02C000
038000
038000
074000
07FFE0
0B5540
0B0000
7FF400
1F5000
1D0000
1D0000
ENDCHAR
STARTCHAR lira
ENCODING 8356
SWIDTH 568 0
DWIDTH 10 0
BBX 10 13 0 0
BITMAP
006F80
00F6E0
02C0B0
038050
074000
074000
3FFC00
0B0000
7FF800
0E0000
1D0000
7D5540
FFFF80
ENDCHAR
STARTCHAR uni20A6
ENCODING 8358
SWIDTH 772 0
DWIDTH 14 0
BBX 14 13 0 0
BITMAP
02D002C0
03E00380
03F40740
07B80740
7FFFFFF0
1B5F5B50
0B0B0E00
BFFFFFE0
5E56EE40
1D01ED00
1D00FC00
2C00BC00
2C003800
ENDCHAR
STARTCHAR peseta
ENCODING 8359
SWIDTH 800 0
DWIDTH 14 0
BBX 14 13 0 0
BITMAP
07FE0000
0B5BC740
0B02D740
0E01FFE0
0E01DF40
1D028E00
1D0B4E00
2FFD1D00
2D501D00
38002C00
38002C00
74002D00
74000F40
ENDCHAR
STARTCHAR uni20A8
ENCODING 8360
SWIDTH 1030 0
DWIDTH 19 0
BBX 18 13 0 0
BITMAP
07FF800000
0B56F00000
0B00740000
0E00387F40
0E0076E6D0
1D01E380E0
1FFF838000
2D5E01F900
2C0B001B80
38074002C0
38038E02C0
7402CB9B80
7401D1FE00
ENDCHAR
STARTCHAR uni20A9
ENCODING 8361
SWIDTH 722 0
DWIDTH 13 0
BBX 14 13 0 0
BITMAP
0D0781D0
0D0B82C0
0D0F8380
0D1E8740
7FFFFFC0
1E7A9E40
0E729C00
BFFFFF80
5ED6B940
0EC2B000
0B82E000
0B42D000
0B02C000
ENDCHAR
STARTCHAR uni20AA
ENCODING 8362
SWIDTH 752 0
DWIDTH 14 0
BBX 13 10 0 0
BITMAP
0FFE02C0
1D578280
1C02C380
2C66C340
2872C740
38B38700
34A24B00
74E00E00
70E56D00
B1FFF400
ENDCHAR
STARTCHAR dong
ENCODING 8363
SWIDTH 566 0
DWIDTH 10 0
BBX 12 17 0 -3
BITMAP
0000B0
0000A0
000FFD
0006E4
02F9D0
0F9BC0
2D03C0
380380
340380
740740
740740
380B00
2E6F00
0BEA00
000000
FFFF00
555500
ENDCHAR
STARTCHAR Euro
ENCODING 8364
SWIDTH 549 0
DWIDTH 10 0
BBX 10 13 0 0
BITMAP
001BF0
00B960
01E000
02C000
038000
2FFE00
0B4000
7FFD00
0B0000
0B0000
0B4000
03E600
00BF00
ENDCHAR
STARTCHAR uni20B1
ENCODING 8369
SWIDTH 714 0
DWIDTH 13 0
BBX 14 13 0 0
BITMAP
03FFE000
0395BC00
3FFFFFD0
1B555E40
7FFFFFC0
1F55B940
0FFFE000
0E550000
1D000000
1D000000
2C000000
2C000000
38000000
ENDCHAR
STARTCHAR uni20B9
ENCODING 8377
SWIDTH 505 0
DWIDTH 9 0
BBX 10 13 0 0
BITMAP
1FFFE0
157E50
001E00
2FFFD0
156E40
007C00
7FE400
3D4000
1E0000
0F0000
078000
02D000
00F000
ENDCHAR
STARTCHAR uni20BA
ENCODING 8378
SWIDTH 544 0
DWIDTH 10 0
BBX 9 13 0 0
BITMAP
01D000
02D800
02F800
2F9000
7B9800
07F400
6F82C0
AF02C0
4A0380
0E0740
0D1E00
1EB800
1F9000
ENDCHAR
STARTCHAR uni20BC
ENCODING 8380
SWIDTH 645 0
DWIDTH 12 0
BBX 10 10 0 0
BITMAP
001D00
002C00
01BE40
0BBED0
1D38E0
3874B0
747470
B0B070
E0B0B0
E0E0B0
ENDCHAR
STARTCHAR uni20BD
ENCODING 8381
SWIDTH 648 0
DWIDTH 12 0
BBX 12 13 0 0
BITMAP
02FFE0
0395BC
03801D
07400E
0B001D
0B007C
BFFFE0
5E5500
1D0000
FFF400
6D5000
2C0000
280000
ENDCHAR
STARTCHAR uni2105
ENCODING 8453
SWIDTH 720 0
DWIDTH 13 0
BBX 10 13 2 0
BITMAP
2E0000
A28180
D04340
C10A00
D76800
7D7000
00D000
029B80
0A3490
1C70A0
3460A0
6075D0
002F40
ENDCHAR
STARTCHAR uni2113
ENCODING 8467
SWIDTH 466 0
DWIDTH 8 0
BBX 9 14 0 0
BITMAP
002E00
00EB40
01D740
01C740
02CB00
028E00
03AD00
03B400
07E000
7F4000
1B0000
0B0000
078000
01D000
ENDCHAR
STARTCHAR uni2116
ENCODING 8470
SWIDTH 1002 0
DWIDTH 18 0
BBX 18 13 0 0
BITMAP
07802C1F80
0BC028B5D0
0BD038D0A0
0EE034D0A0
0EB074D0D0
1D7470E6C0
1C38B06E40
2C2CA00000
281DE2FF80
380ED15500
340BD00000
7407C00000
7003C00000
ENDCHAR
STARTCHAR trademark
ENCODING 8482
SWIDTH 611 0
DWIDTH 11 0
BBX 9 5 2 8
BITMAP
FDC240
20D740
219A00
216A00
526200
ENDCHAR
STARTCHAR uni03A9.dup2
ENCODING 8486
SWIDTH 649 0
DWIDTH 12 0
BBX 11 13 0 0
BITMAP
006F80
02E6F0
0B4074
0E0038
1D002C
2C0038
2C0038
380074
380070
2C00E0
1D02C0
5F5B50
BF6FE0
ENDCHAR
STARTCHAR estimated
ENCODING 8494
SWIDTH 622 0
DWIDTH 11 0
BBX 9 10 1 0
BITMAP
02F900
0A4640
2C0280
7802C0
BFFFC0
B40000
B00000
700000
281900
0BE400
ENDCHAR
STARTCHAR oneeighth
ENCODING 8539
SWIDTH 750 0
DWIDTH 14 0
BBX 11 13 1 0
BITMAP
1B0000
7F0080
0A0280
0A0700
0D0D00
0D2800
1CA2F4
01C75C
03471C
0A03F4
280E68
200D68
0007E0
ENDCHAR
STARTCHAR threeeighths
ENCODING 8540
SWIDTH 833 0
DWIDTH 15 0
BBX 13 13 1 0
BITMAP
1B900000
39A01800
00A03400
0BC0A000
00D1C000
A5D74000
2F4D7E00
0028E780
0070D340
01D0BE00
0342D700
06029B00
0001BD00
ENDCHAR
STARTCHAR fiveeighths
ENCODING 8541
SWIDTH 830 0
DWIDTH 15 0
BBX 13 13 1 0
BITMAP
1FE00000
28001400
3F807000
11D0D000
00D28000
A6C70000
2E5D7E00
0034E740
00A0D340
01C0BE00
07429700
09029B00
0001BD00
ENDCHAR
STARTCHAR seveneighths
ENCODING 8542
SWIDTH 782 0
DWIDTH 14 0
BBX 11 13 2 0
BITMAP
FFD000
028180
070340
0D0A00
282800
747000
E0D2E4
028B68
0A0A28
1C07F0
341D74
601D74
000BE0
ENDCHAR
STARTCHAR partialdiff
ENCODING 8706
SWIDTH 557 0
DWIDTH 10 0
BBX 10 13 0 0
BITMAP
02FD00
029B80
0002C0
0001D0
02F9D0
0F9BD0
2C02D0
3801D0
7402C0
740380
380B00
2E6D00
0BE400
ENDCHAR
STARTCHAR uni0394.dup3
ENCODING 8710
SWIDTH 688 0
DWIDTH 12 0
BBX 12 13 -1 0
BITMAP
0002D0
0003E0
000BA0
001DB0
002C74
007434
00E038
02D028
03802C
0B001D
1D001D
2D555E
7FFFFF
ENDCHAR
STARTCHAR product
ENCODING 8719
SWIDTH 678 0
DWIDTH 12 0
BBX 12 15 0 -2
BITMAP
07FFFE
0B555E
0A000D
0E001D
0E001D
1D002C
1D002C
2C0038
2C0038
380074
380074
340070
7400B0
7000A0
B000E0
ENDCHAR
STARTCHAR summation
ENCODING 8721
SWIDTH 572 0
DWIDTH 10 0
BBX 12 15 -1 -2
BITMAP
07FFFE
039555
01D000
00B000
007800
002D00
000B00
000740
001E00
007800
01E000
078000
1E0000
7D5550
BFFFF0
ENDCHAR
STARTCHAR minus
ENCODING 8722
SWIDTH 559 0
DWIDTH 10 0
BBX 8 2 1 5
BITMAP
7FFE
1555
ENDCHAR
STARTCHAR radical
ENCODING 8730
SWIDTH 583 0
DWIDTH 11 0
BBX 11 13 0 0
BITMAP
00002C
000038
0000B0
0000E0
0002C0
000740
7E0B00
1E1D00
0B2C00
077400
07F000
03D000
028000
ENDCHAR
STARTCHAR infinity
ENCODING 8734
SWIDTH 1002 0
DWIDTH 18 0
BBX 16 10 1 0
BITMAP
06E406F4
2E6D2E6D
740B740E
B003D00B
E003C00B
D003800B
D00BC00E
E01DD02D
79B479B4
1F901F90
ENDCHAR
STARTCHAR integral
ENCODING 8747
SWIDTH 252 0
DWIDTH 5 0
BBX 9 18 -2 -4
BITMAP
001B80
003940
00B000
00A000
00E000
00E000
01D000
01D000
02C000
02C000
028000
038000
034000
074000
074000
0B0000
5E0000
F80000
ENDCHAR
STARTCHAR approxequal
ENCODING 8776
SWIDTH 551 0
DWIDTH 10 0
BBX 10 7 0 2
BITMAP
1B9050
2ABFD0
000500
000000
2F9140
6AFF40
001500
ENDCHAR
STARTCHAR notequal
ENCODING 8800
SWIDTH 537 0
DWIDTH 10 0
BBX 8 9 1 2
BITMAP
0009
0018
7FFF
15E5
0280
0700
FFFD
7954
6000
ENDCHAR
STARTCHAR lessequal
ENCODING 8804
SWIDTH 498 0
DWIDTH 9 0
BBX 10 11 -1 -1
BITMAP
000190
001BD0
06F900
0F4000
0BD000
007E00
000740
000000
000000
7FFF00
155500
ENDCHAR
STARTCHAR greaterequal
ENCODING 8805
SWIDTH 512 0
DWIDTH 9 0
BBX 9 11 0 -1
BITMAP
090000
0BD000
00BE00
000B80
01BE00
2F9000
780000
000000
000000
BFFD00
555400
ENDCHAR
STARTCHAR lozenge
ENCODING 9674
SWIDTH 493 0
DWIDTH 9 0
BBX 9 13 0 0
BITMAP
007400
00F800
02DC00
074D00
0E0B00
2C0740
740340
340B00
2C1D00
1D3800
0EB000
0BD000
078000
ENDCHAR
STARTCHAR uniEE01
ENCODING 60929
SWIDTH 283 0
DWIDTH 5 0
BBX 4 9 1 2
BITMAP
1D
1D
00
00
00
00
00
A0
A0
ENDCHAR
STARTCHAR uniEE02
ENCODING 60930
SWIDTH 314 0
DWIDTH 6 0
BBX 5 4 1 6
BITMAP
6240
A340
9300
D700
ENDCHAR
STARTCHAR uniF6C3
ENCODING 63171
SWIDTH 249 0
DWIDTH 4 0
BBX 3 4 0 -2
BITMAP
74
70
E0
80
ENDCHAR
STARTCHAR uniFB01
ENCODING 64257
SWIDTH 541 0
DWIDTH 10 0
BBX 8 14 1 0
BITMAP
02FD
0B99
1D00
1C00
FFCB
794A
380E
340D
741D
701C
B02C
A028
E038
D034
ENDCHAR
STARTCHAR uniFB02
ENCODING 64258
SWIDTH 555 0
DWIDTH 10 0
BBX 9 14 1 0
BITMAP
01FE40
0B9780
0E0380
1D0740
FFD740
6D4B00
2C0B00
380E00
380E00
741D00
741D00
B02C00
B02C00
E03800
ENDCHAR
STARTCHAR uniFB03
ENCODING 64259
SWIDTH 833 0
DWIDTH 15 0
BBX 14 14 1 0
BITMAP
02F46F80
0B91E680
0E038000
1D074000
FFFFF1D0
6D5B52C0
2C0B02C0
380E0380
380E0380
741D0740
741D0740
B02C0B00
B02C0B00
E0380E00
ENDCHAR
STARTCHAR uniFB04
ENCODING 64260
SWIDTH 833 0
DWIDTH 15 0
BBX 14 14 1 0
BITMAP
02F47F90
0B92E5E0
0E0380E0
1D0741D0
FFFFF1D0
6D5B52C0
2C0B02C0
380E0380
380E0380
741D0740
741D0740
B02C0B00
B02C0B00
E0380E00
ENDCHAR
STARTCHAR uniFEFF
ENCODING 65279
SWIDTH 0 0
DWIDTH 0 0
BBX 1 1 0 0
BITMAP
00
ENDCHAR
STARTCHAR uniFFFC
ENCODING 65532
SWIDTH 999 0
DWIDTH 18 0
BBX 20 17 -1 -4
BITMAP
03E7CF6F3E
0200000009
0600000004
0000000000
090000000C
0C00000018
007D7E0140
18D2520264
1882BE0224
0086865710
2479FD2D10
3000000060
3000000050
0000000000
6000000080
90000000C0
BCF6E7DBC0
ENDCHAR
STARTCHAR uniFFFD
ENCODING 65533
SWIDTH 1025 0
DWIDTH 18 0
BBX 17 17 1 -3
BITMAP
0001800000
0007E00000
001FF80000
007FFE0000
01FFFF8000
07F41BE000
1FE183F800
7FFFC3FE00
FFFF4BFF40
7FFD3FFE00
1FFFFFF800
07FD3FE000
01FD3F8000
007FFE0000
001FF80000
0007E00000
0001800000
ENDCHAR
STARTCHAR .notdef
ENCODING -1
SWIDTH 448 0
DWIDTH 8 0
BBX 6 13 1 0
BITMAP
FFF0
8020
5050
5050
4510
4910
4510
4910
4510
5050
5050
8020
FFF0
ENDCHAR
STARTCHAR glyph369
ENCODING -1
SWIDTH 383 0
DWIDTH 7 0
BBX 6 3 2 10
BITMAP
A2D0
A340
6900
ENDCHAR
STARTCHAR uni2009.locl
ENCODING -1
SWIDTH 125 0
DWIDTH 2 0
BBX 1 1 0 0
BITMAP
00
ENDCHAR
STARTCHAR f_f.dlig
ENCODING -1
SWIDTH 604 0
DWIDTH 11 0
BBX 11 14 1 0
BITMAP
02F4BC
0B92E4
0E0740
1D0700
FFFFF0
6D5E50
2C0E00
380D00
381D00
741C00
742C00
B02800
B03800
E03400
ENDCHAR
STARTCHAR longs_t.dlig
ENCODING -1
SWIDTH 602 0
DWIDTH 11 0
BBX 10 14 1 0
BITMAP
02FA00
0B9B40
0E0740
1D0700
FD7FE0
6C1E40
2C0E00
380D00
381D00
741C00
742C00
B02800
B02D00
E01F40
ENDCHAR
STARTCHAR s_t.dlig
ENCODING -1
SWIDTH 805 0
DWIDTH 15 0
BBX 15 14 0 0
BITMAP
0000BE00
0003D780
000742C0
000702C0
02FF5FF4
0F5F4790
1D074740
1D000740
0B900B00
01BD0B00
000E0A00
B00E0E00
796D0B40
1BE407C0
ENDCHAR
STARTCHAR two.dnom
ENCODING -1
SWIDTH 360 0
DWIDTH 6 0
BBX 6 7 0 0
BITMAP
1F80
75D0
11D0
0780
1E00
7400
FFC0
ENDCHAR
STARTCHAR one.dnom
ENCODING -1
SWIDTH 360 0
DWIDTH 6 0
BBX 4 7 1 0
BITMAP
19
FD
1C
1C
28
28
34
ENDCHAR
STARTCHAR zero.dnom
ENCODING -1
SWIDTH 360 0
DWIDTH 6 0
BBX 6 7 0 0
BITMAP
1F80
35D0
70A0
A0D0
A0D0
76C0
2E40
ENDCHAR
STARTCHAR nine.c2sc
ENCODING -1
SWIDTH 497 0
DWIDTH 9 0
BBX 7 10 1 0
BITMAP
0BE0
3DB8
B02C
E01C
E02C
B9B8
2FB4
00B0
1BC0
7900
ENDCHAR
STARTCHAR eight.c2sc
ENCODING -1
SWIDTH 497 0
DWIDTH 9 0
BBX 8 10 0 0
BITMAP
06F9
0F5F
1D07
1D1E
0BF8
2D6D
740E
B00E
797C
1BE4
ENDCHAR
STARTCHAR seven.c2sc
ENCODING -1
SWIDTH 497 0
DWIDTH 9 0
BBX 8 10 1 0
BITMAP
BFFF
555E
0028
0074
00D0
0280
0B00
1D00
3800
B000
ENDCHAR
STARTCHAR six.c2sc
ENCODING -1
SWIDTH 496 0
DWIDTH 9 0
BBX 8 10 0 0
BITMAP
006D
07E4
0E00
2EF8
3E6D
380A
740A
380E
2D7C
0BE0
ENDCHAR
STARTCHAR five.c2sc
ENCODING -1
SWIDTH 497 0
DWIDTH 9 0
BBX 9 10 0 0
BITMAP
07FF80
0B5540
0E0000
1EF800
1A6D00
000E00
000B00
740E00
3D7C00
0BE000
ENDCHAR
STARTCHAR four.c2sc
ENCODING -1
SWIDTH 497 0
DWIDTH 9 0
BBX 8 10 0 0
BITMAP
001E
007E
00ED
039D
0A1C
2C2C
B57D
FFFF
0074
0074
ENDCHAR
STARTCHAR three.c2sc
ENCODING -1
SWIDTH 497 0
DWIDTH 9 0
BBX 8 10 0 0
BITMAP
06F8
1E5F
280B
001E
03F8
016C
000D
A01D
79BC
1FE0
ENDCHAR
STARTCHAR two.c2sc
ENCODING -1
SWIDTH 497 0
DWIDTH 9 0
BBX 8 10 0 0
BITMAP
06F8
1E5F
2C0B
100B
002D
00B4
03D0
1E00
7955
FFFD
ENDCHAR
STARTCHAR one.c2sc
ENCODING -1
SWIDTH 497 0
DWIDTH 9 0
BBX 6 10 1 0
BITMAP
0690
7ED0
12C0
02C0
0380
0380
0740
0740
0B00
0B00
ENDCHAR
STARTCHAR zero.c2sc
ENCODING -1
SWIDTH 497 0
DWIDTH 9 0
BBX 8 10 0 0
BITMAP
02F8
0F5E
2C0B
3807
340B
740B
740E
741D
3D78
0BE0
ENDCHAR
STARTCHAR Z.c2sc
ENCODING -1
SWIDTH 506 0
DWIDTH 9 0
BBX 10 10 -1 0
BITMAP
0BFFF0
0556E0
000780
001E00
007800
00E000
03C000
0B0000
2E5540
7FFF80
ENDCHAR
STARTCHAR Y.c2sc
ENCODING -1
SWIDTH 510 0
DWIDTH 9 0
BBX 9 10 1 0
BITMAP
B00780
740E00
382C00
2C7400
1EE000
0F8000
0B0000
0B0000
0E0000
0D0000
ENDCHAR
STARTCHAR X.c2sc
ENCODING -1
SWIDTH 529 0
DWIDTH 10 0
BBX 11 10 -1 0
BITMAP
074078
0381E0
01D780
00EF00
007D00
00BC00
02ED00
074B00
1E0740
7802C0
ENDCHAR
STARTCHAR W.c2sc
ENCODING -1
SWIDTH 742 0
DWIDTH 13 0
BBX 13 10 1 0
BITMAP
A01D0380
B03D0740
B0790A00
70AA1D00
71CA2C00
72863400
77477000
3A07A000
3D03D000
38038000
ENDCHAR
STARTCHAR V.c2sc
ENCODING -1
SWIDTH 538 0
DWIDTH 10 0
BBX 9 10 1 0
BITMAP
A002C0
B00740
700B00
741D00
383800
287400
2CE000
1EC000
0F8000
0F0000
ENDCHAR
STARTCHAR U.c2sc
ENCODING -1
SWIDTH 548 0
DWIDTH 10 0
BBX 10 10 0 0
BITMAP
0D00E0
1D00E0
2C01D0
2C01C0
3802C0
380280
740380
740740
2E6E00
0BE400
ENDCHAR
STARTCHAR T.c2sc
ENCODING -1
SWIDTH 507 0
DWIDTH 9 0
BBX 9 10 1 0
BITMAP
FFFF40
56D500
038000
038000
074000
074000
0B0000
0B0000
0E0000
0D0000
ENDCHAR
STARTCHAR S.c2sc
ENCODING -1
SWIDTH 504 0
DWIDTH 9 0
BBX 9 10 0 0
BITMAP
06F900
1E5B40
2C0380
2D0000
0BE000
01BD00
500B00
B00B00
796E00
1BE400
ENDCHAR
STARTCHAR R.c2sc
ENCODING -1
SWIDTH 524 0
DWIDTH 9 0
BBX 9 10 0 0
BITMAP
0FFD00
1E5B80
1D02C0
2C0280
2C0B40
3FFD00
397800
742C00
700E00
B00B00
ENDCHAR
STARTCHAR Q.c2sc
ENCODING -1
SWIDTH 578 0
DWIDTH 10 0
BBX 10 12 0 -2
BITMAP
01BE00
0B9B80
1D01D0
3800D0
3400D0
7401D0
7402C0
380380
2E6E00
0BFD00
000F00
000100
ENDCHAR
STARTCHAR P.c2sc
ENCODING -1
SWIDTH 533 0
DWIDTH 10 0
BBX 10 10 0 0
BITMAP
0FFE00
1E57C0
1D01D0
2C01D0
2C0780
3FFE00
395000
740000
700000
B00000
ENDCHAR
STARTCHAR O.c2sc
ENCODING -1
SWIDTH 578 0
DWIDTH 10 0
BBX 10 10 0 0
BITMAP
01BE00
0B97C0
1D01D0
2800E0
3800E0
7401D0
7401D0
380380
1E6F00
07F800
ENDCHAR
STARTCHAR N.c2sc
ENCODING -1
SWIDTH 597 0
DWIDTH 11 0
BBX 11 10 0 0
BITMAP
0E0074
1F40B0
1F80B0
2DD0E0
28B0E0
3875D0
342DD0
741FC0
700BC0
B00780
ENDCHAR
STARTCHAR M.c2sc
ENCODING -1
SWIDTH 733 0
DWIDTH 13 0
BBX 13 10 0 0
BITMAP
0F400B80
1F401F80
1E802F40
2EC07740
29D0EB00
38D2CA00
34A74E00
74BA0D00
707D1D00
B0381C00
ENDCHAR
STARTCHAR L.c2sc
ENCODING -1
SWIDTH 454 0
DWIDTH 8 0
BBX 7 10 0 0
BITMAP
0E00
1D00
1D00
2C00
2800
3800
3400
7400
7554
BFFC
ENDCHAR
STARTCHAR K.c2sc
ENCODING -1
SWIDTH 529 0
DWIDTH 10 0
BBX 10 10 0 0
BITMAP
0E02E0
1D0B40
1D2D00
2CB400
2FD000
3FE000
387400
742C00
701E00
B00B40
ENDCHAR
STARTCHAR J.c2sc
ENCODING -1
SWIDTH 466 0
DWIDTH 8 0
BBX 8 10 0 0
BITMAP
000B
000B
000E
000D
001D
001C
002C
E038
B5B4
2F90
ENDCHAR
STARTCHAR I.c2sc
ENCODING -1
SWIDTH 235 0
DWIDTH 4 0
BBX 4 10 0 0
BITMAP
0E
0D
1D
1C
2C
38
38
74
74
B0
ENDCHAR
STARTCHAR H.c2sc
ENCODING -1
SWIDTH 597 0
DWIDTH 11 0
BBX 11 10 0 0
BITMAP
0E0074
1D00B0
1C00B0
2C00E0
2FFFE0
3956D0
3401D0
7402C0
7002C0
B00380
ENDCHAR
STARTCHAR G.c2sc
ENCODING -1
SWIDTH 571 0
DWIDTH 10 0
BBX 10 10 0 0
BITMAP
01BE00
0B97C0
1D01D0
2C0000
380000
743FC0
7416C0
380380
1E5B80
06F900
ENDCHAR
STARTCHAR F.c2sc
ENCODING -1
SWIDTH 464 0
DWIDTH 8 0
BBX 9 10 0 0
BITMAP
0FFF80
1E5540
1C0000
2C0000
2FFD00
395400
340000
740000
700000
B00000
ENDCHAR
STARTCHAR dollar.c2sc
ENCODING -1
SWIDTH 504 0
DWIDTH 9 0
BBX 9 14 0 -2
BITMAP
002400
003400
06FD00
1E5B40
2C0380
2D0000
0BE000
01BD00
000B00
B00B00
796E00
1BE400
034000
034000
ENDCHAR
STARTCHAR sterling.c2sc
ENCODING -1
SWIDTH 514 0
DWIDTH 9 0
BBX 9 10 0 0
BITMAP
01BD00
079B40
0B0340
0E0140
0D0000
BFF800
1D0000
2C0000
795500
FFFE00
ENDCHAR
STARTCHAR yen.c2sc
ENCODING -1
SWIDTH 444 0
DWIDTH 8 0
BBX 9 10 0 0
BITMAP
280740
2C0E00
1D2C00
0E7400
0AA000
7FFC00
074000
BFF800
0B0000
0B0000
ENDCHAR
STARTCHAR Gamma.c2sc
ENCODING -1
SWIDTH 451 0
DWIDTH 8 0
BBX 9 10 0 0
BITMAP
0FFF40
1E5500
1D0000
2C0000
280000
380000
340000
740000
700000
B00000
ENDCHAR
STARTCHAR uni0394.c2sc
ENCODING -1
SWIDTH 538 0
DWIDTH 10 0
BBX 10 10 -1 0
BITMAP
001E00
003E00
007B00
00D740
02C740
034380
0A0380
1D02C0
3D56D0
7FFFD0
ENDCHAR
STARTCHAR Theta.c2sc
ENCODING -1
SWIDTH 578 0
DWIDTH 10 0
BBX 9 10 1 0
BITMAP
06F800
2E5F00
780740
B00380
EBF780
D55780
D00740
E00E00
797C00
1FE000
ENDCHAR
STARTCHAR Lambda.c2sc
ENCODING -1
SWIDTH 538 0
DWIDTH 10 0
BBX 10 10 -1 0
BITMAP
001E00
003E00
007B00
00D740
02C740
034380
0A0380
1D02C0
3801D0
7001D0
ENDCHAR
STARTCHAR Xi.c2sc
ENCODING -1
SWIDTH 433 0
DWIDTH 8 0
BBX 9 10 -1 0
BITMAP
0BFFC0
055540
000000
000000
0FFE00
055500
000000
000000
155400
7FFD00
ENDCHAR
STARTCHAR Pi.c2sc
ENCODING -1
SWIDTH 587 0
DWIDTH 11 0
BBX 10 10 0 0
BITMAP
0FFFF0
1E55B0
1D00E0
2C00E0
2801D0
3801D0
3402C0
7402C0
700380
B00340
ENDCHAR
STARTCHAR Sigma.c2sc
ENCODING -1
SWIDTH 481 0
DWIDTH 9 0
BBX 10 10 -1 0
BITMAP
0BFFE0
0B9540
038000
01D000
00B000
01E000
07C000
0F0000
3D5540
7FFF40
ENDCHAR
STARTCHAR Phi.c2sc
ENCODING -1
SWIDTH 660 0
DWIDTH 12 0
BBX 10 10 1 0
BITMAP
003800
06FE40
2EBAD0
B4B0B0
E0B0B0
D0E0B0
E0D1E0
7AEB80
1BF900
02C000
ENDCHAR
STARTCHAR Psi.c2sc
ENCODING -1
SWIDTH 622 0
DWIDTH 11 0
BBX 10 10 1 0
BITMAP
7470B0
B0B0B0
B0E0E0
A0E0D0
B1D2C0
79DB40
2FFD00
02D000
038000
038000
ENDCHAR
STARTCHAR uni03A9.c2sc
ENCODING -1
SWIDTH 604 0
DWIDTH 11 0
BBX 10 10 0 0
BITMAP
01BE40
0797D0
1E00E0
2C00B0
3800A0
3800E0
3801D0
2C0380
6E1F40
BF3FC0
ENDCHAR
STARTCHAR uni0402.c2sc
ENCODING -1
SWIDTH 665 0
DWIDTH 12 0
BBX 10 10 1 0
BITMAP
FFFE00
579500
074000
07BF40
0B96D0
0A00B0
0E00B0
0D00E0
1D07D0
1C1E40
ENDCHAR
STARTCHAR uni0404.c2sc
ENCODING -1
SWIDTH 548 0
DWIDTH 10 0
BBX 10 10 0 0
BITMAP
01BE00
0B9780
1D01D0
280090
3FF400
795000
740140
380740
2E6E00
0BF400
ENDCHAR
STARTCHAR uni0409.c2sc
ENCODING -1
SWIDTH 884 0
DWIDTH 16 0
BBX 16 10 -1 0
BITMAP
00BFFC00
00E57800
00D03800
01D03400
02C07FF4
0280B56E
0380B00B
0740E00E
2E00E57D
7801FFE4
ENDCHAR
STARTCHAR uni040A.c2sc
ENCODING -1
SWIDTH 891 0
DWIDTH 16 0
BBX 15 10 0 0
BITMAP
0E00B000
1D00B000
1C00E000
2C00E000
2FFFFFE0
3956D5B8
3402C02C
7402C02C
700395B4
B003FF90
ENDCHAR
STARTCHAR uni040B.c2sc
ENCODING -1
SWIDTH 666 0
DWIDTH 12 0
BBX 10 10 1 0
BITMAP
FFFF00
579500
074000
07BF40
0B96E0
0A00B0
0E00B0
0D00A0
1D00E0
1C00D0
ENDCHAR
STARTCHAR uni040F.c2sc
ENCODING -1
SWIDTH 586 0
DWIDTH 11 0
BBX 10 13 0 -3
BITMAP
0E0070
1D00B0
1D00E0
2C00E0
2801D0
3801D0
3402C0
7402C0
755780
BFFF40
02C000
02C000
038000
ENDCHAR
STARTCHAR uni0411.c2sc
ENCODING -1
SWIDTH 532 0
DWIDTH 10 0
BBX 9 10 0 0
BITMAP
0FFF80
1E5500
1D0000
2C0000
2FF900
395F40
340740
740740
756E00
BFF400
ENDCHAR
STARTCHAR uni0414.c2sc
ENCODING -1
SWIDTH 628 0
DWIDTH 11 0
BBX 12 13 -1 -3
BITMAP
007FFD
00B56C
00A02C
00E038
01D038
02C074
038074
0B40B0
2E55B4
7FFFFC
B00038
A00038
E00074
ENDCHAR
STARTCHAR uni0416.c2sc
ENCODING -1
SWIDTH 737 0
DWIDTH 13 0
BBX 14 10 -1 0
BITMAP
0781C0F0
02C2C2D0
01D38B40
00F39D00
00BFF800
01EB6C00
03CB1D00
0B4B0F00
2E0E0B40
780E0380
ENDCHAR
STARTCHAR uni0417.c2sc
ENCODING -1
SWIDTH 519 0
DWIDTH 9 0
BBX 9 10 0 0
BITMAP
06F900
1E5B40
180380
000B40
02F900
016D00
000B00
A00B00
796D00
1FE400
ENDCHAR
STARTCHAR uni0418.c2sc
ENCODING -1
SWIDTH 601 0
DWIDTH 11 0
BBX 11 10 0 0
BITMAP
0E00B4
1D01F0
1C07F0
2C1DA0
2838E0
38A0D0
3681D0
7F01C0
7C02C0
B40380
ENDCHAR
STARTCHAR uni041A.c2sc
ENCODING -1
SWIDTH 526 0
DWIDTH 9 0
BBX 10 10 0 0
BITMAP
0E02D0
1D0B40
1C2D00
2CB400
2FC000
3AD000
34B000
747800
702D00
B00E00
ENDCHAR
STARTCHAR uni041B.c2sc
ENCODING -1
SWIDTH 581 0
DWIDTH 10 0
BBX 11 10 -1 0
BITMAP
00BFFC
00E578
00D038
01D034
02C074
0280B0
0380B0
0740E0
2E00E0
7801D0
ENDCHAR
STARTCHAR uni0423.c2sc
ENCODING -1
SWIDTH 504 0
DWIDTH 9 0
BBX 9 10 1 0
BITMAP
B00740
740E00
382D00
387800
2CB000
1ED000
0F8000
0F0000
6D0000
F40000
ENDCHAR
STARTCHAR uni0426.c2sc
ENCODING -1
SWIDTH 629 0
DWIDTH 11 0
BBX 10 13 0 -3
BITMAP
0E0070
1D00B0
1D00E0
2C00E0
2801D0
3801D0
3402C0
7402C0
755790
BFFFF0
0000A0
0000E0
0000D0
ENDCHAR
STARTCHAR uni0427.c2sc
ENCODING -1
SWIDTH 540 0
DWIDTH 10 0
BBX 9 10 1 0
BITMAP
B00740
A00700
E00B00
E00E00
F01E00
7FFD00
055D00
002C00
002C00
003800
ENDCHAR
STARTCHAR uni0428.c2sc
ENCODING -1
SWIDTH 770 0
DWIDTH 14 0
BBX 14 10 0 0
BITMAP
0E0341D0
1D0741D0
1D0702C0
2C0B02C0
280E0380
380E0340
341D0740
741D0700
756D5B00
BFFFFE00
ENDCHAR
STARTCHAR uni0429.c2sc
ENCODING -1
SWIDTH 813 0
DWIDTH 15 0
BBX 14 13 0 -3
BITMAP
0E0341D0
1D0741D0
1D0702C0
2C0B02C0
280E0380
380E0380
341D0740
741D0700
756D5B40
BFFFFFD0
000001C0
00000280
00000380
ENDCHAR
STARTCHAR uni042A.c2sc
ENCODING -1
SWIDTH 625 0
DWIDTH 11 0
BBX 10 10 1 0
BITMAP
FF4000
5B0000
0B0000
0A0000
0FFE40
1E5BC0
1D01D0
2C02C0
2D5B40
3FF900
ENDCHAR
STARTCHAR uni042B.c2sc
ENCODING -1
SWIDTH 725 0
DWIDTH 13 0
BBX 13 10 0 0
BITMAP
0E000380
1D000740
1D000740
2C000B00
2FF90B00
395F4E00
34074E00
74075D00
756E1C00
BFE42C00
ENDCHAR
STARTCHAR uni042C.c2sc
ENCODING -1
SWIDTH 526 0
DWIDTH 9 0
BBX 9 10 0 0
BITMAP
0E0000
1D0000
1D0000
2C0000
2FF900
395F40
340740
740740
756E00
BFE400
ENDCHAR
STARTCHAR uni042D.c2sc
ENCODING -1
SWIDTH 548 0
DWIDTH 10 0
BBX 9 10 0 0
BITMAP
02F900
0F5B40
2C0280
1402C0
01FFC0
0157C0
500380
B00B40
396D00
1BE400
ENDCHAR
STARTCHAR uni042E.c2sc
ENCODING -1
SWIDTH 788 0
DWIDTH 14 0
BBX 14 10 0 0
BITMAP
0E02FE00
1D0F9B80
1C2D02C0
2C3801D0
2FF401D0
39B001C0
347002C0
74740740
702E6E00
B00BF400
ENDCHAR
STARTCHAR uni042F.c2sc
ENCODING -1
SWIDTH 553 0
DWIDTH 10 0
BBX 10 10 0 0
BITMAP
02FFD0
0B96D0
1D01C0
1C02C0
1E0280
0BFF80
075740
1D0740
380700
F00B00
ENDCHAR
STARTCHAR uni0492.c2sc
ENCODING -1
SWIDTH 498 0
DWIDTH 9 0
BBX 10 10 0 0
BITMAP
07FFD0
075540
0B0000
0A0000
FFE000
5E4000
1D0000
1C0000
2C0000
280000
ENDCHAR
STARTCHAR uni0496.c2sc
ENCODING -1
SWIDTH 766 0
DWIDTH 14 0
BBX 14 13 -1 -3
BITMAP
0781C0F0
02C2C2D0
01D38B40
00F39D00
00BFF800
01EB7C00
03CB1D00
0B4B0E00
2E0E0B50
780E03E0
000000D0
000001D0
000001C0
ENDCHAR
STARTCHAR uni049A.c2sc
ENCODING -1
SWIDTH 547 0
DWIDTH 10 0
BBX 10 13 0 -3
BITMAP
0E02D0
1D0B40
1C2D00
2CB400
2FC000
3AD000
34B000
747800
702D40
B00F80
000340
000740
000700
ENDCHAR
STARTCHAR uni049C.c2sc
ENCODING -1
SWIDTH 615 0
DWIDTH 11 0
BBX 11 10 0 0
BITMAP
0D0078
1D01E0
1DC780
2DDE00
2FF800
3BAC00
375E00
740B40
700380
B001D0
ENDCHAR
STARTCHAR uni04A0.c2sc
ENCODING -1
SWIDTH 637 0
DWIDTH 11 0
BBX 11 10 1 0
BITMAP
FF80B4
5B42D0
070B40
0B2D00
0BF000
0EB400
0D2C00
1D1E00
1C0B40
2C0380
ENDCHAR
STARTCHAR uni04A8.c2sc
ENCODING -1
SWIDTH 703 0
DWIDTH 13 0
BBX 11 10 1 0
BITMAP
068BD0
2E7DB4
747438
B0A038
E0E038
E0E034
E0E070
B070D0
7D7F90
1BFFF0
ENDCHAR
STARTCHAR uni04B0.c2sc
ENCODING -1
SWIDTH 534 0
DWIDTH 10 0
BBX 9 10 1 0
BITMAP
B00780
740E00
382C00
2C7400
1EE000
0F8000
7FF000
5F5000
0E0000
0D0000
ENDCHAR
STARTCHAR uni04B2.c2sc
ENCODING -1
SWIDTH 569 0
DWIDTH 10 0
BBX 11 13 -1 -3
BITMAP
074078
0381E0
01D380
00EF00
007C00
00BC00
02ED00
074B00
1E0790
7802F0
0000A0
0000E0
0000D0
ENDCHAR
STARTCHAR uni04B4.c2sc
ENCODING -1
SWIDTH 778 0
DWIDTH 14 0
BBX 12 13 1 -3
BITMAP
FFFE1D
57952C
07402C
074038
0B0038
0B0074
0E0074
0D00B0
1E55B4
1FFFFC
00002C
000028
000038
ENDCHAR
STARTCHAR uni04B8.c2sc
ENCODING -1
SWIDTH 540 0
DWIDTH 10 0
BBX 9 10 1 0
BITMAP
B00740
A00700
E00B00
E34E00
F75E00
7FFD00
0B5D00
0A2C00
002C00
003800
ENDCHAR
STARTCHAR uni04BA.c2sc
ENCODING -1
SWIDTH 540 0
DWIDTH 10 0
BBX 9 10 0 0
BITMAP
0E0000
1D0000
1C0000
2EFD00
2E5B40
380380
340380
740380
700340
B00740
ENDCHAR
STARTCHAR uni04BC.c2sc
ENCODING -1
SWIDTH 703 0
DWIDTH 13 0
BBX 12 10 0 0
BITMAP
001BE4
00796D
71E00A
76C00B
2FFFFF
039555
038000
02C000
01F9A0
006F90
ENDCHAR
STARTCHAR uni04D8.c2sc
ENCODING -1
SWIDTH 585 0
DWIDTH 11 0
BBX 10 10 0 0
BITMAP
02FE00
039BC0
0000E0
0000A0
3FFFE0
7955E0
7401D0
3803C0
2E6F40
07F800
ENDCHAR
STARTCHAR uni04E0.c2sc
ENCODING -1
SWIDTH 519 0
DWIDTH 9 0
BBX 9 10 0 0
BITMAP
1FFF80
055F40
002D00
00B000
02E400
01AD00
000B00
A00B00
796D00
1BE400
ENDCHAR
STARTCHAR uni04E8.c2sc
ENCODING -1
SWIDTH 578 0
DWIDTH 10 0
BBX 9 10 1 0
BITMAP
06F800
2E5F00
740340
A00380
FFFF80
E55780
D00740
E00E00
79BC00
1FE000
ENDCHAR
STARTCHAR lira.c2sc
ENCODING -1
SWIDTH 514 0
DWIDTH 9 0
BBX 9 10 0 0
BITMAP
01BD00
079B40
0A0340
0E0140
BFFC00
1D0000
FFF400
280000
795500
FFFE00
ENDCHAR
STARTCHAR Euro.c2sc
ENCODING -1
SWIDTH 476 0
DWIDTH 9 0
BBX 9 10 0 0
BITMAP
00BF40
03D540
0B0000
7FFC00
1D0000
BFF800
1D0000
1D0000
0B9400
02FC00
ENDCHAR
STARTCHAR uni2116.c2sc
ENCODING -1
SWIDTH 991 0
DWIDTH 18 0
BBX 17 10 0 0
BITMAP
0E00746E00
1F40B1E680
1F80B2C1C0
2DD0E281C0
28B0E282C0
3875D2D740
342DD0BD00
741FC00000
700BC3FE00
B007815400
ENDCHAR
STARTCHAR uni20BD.c2sc
ENCODING -1
SWIDTH 570 0
DWIDTH 10 0
BBX 10 10 0 0
BITMAP
07FF40
0756D0
0B00A0
0A00E0
0E02D0
BFFF40
6E5400
FFD000
6D4000
380000
ENDCHAR
STARTCHAR three.dnom
ENCODING -1
SWIDTH 360 0
DWIDTH 6 0
BBX 6 7 0 0
BITMAP
1F80
75D0
01D0
0F80
01C0
E6C0
7E40
ENDCHAR
STARTCHAR four.dnom
ENCODING -1
SWIDTH 360 0
DWIDTH 6 0
BBX 6 7 0 0
BITMAP
02D0
0BC0
1EC0
7280
FFD0
0340
0340
ENDCHAR
STARTCHAR five.dnom
ENCODING -1
SWIDTH 360 0
DWIDTH 6 0
BBX 6 7 0 0
BITMAP
2FE0
3400
7F40
11C0
00D0
A6C0
2E40
ENDCHAR
STARTCHAR six.dnom
ENCODING -1
SWIDTH 360 0
DWIDTH 6 0
BBX 6 7 0 0
BITMAP
07C0
2D40
7B80
B5D0
A0D0
76C0
2F40
ENDCHAR
STARTCHAR seven.dnom
ENCODING -1
SWIDTH 360 0
DWIDTH 6 0
BBX 6 7 0 0
BITMAP
7FF0
01E0
02C0
0740
0E00
2C00
7400
ENDCHAR
STARTCHAR eight.dnom
ENCODING -1
SWIDTH 360 0
DWIDTH 6 0
BBX 6 7 0 0
BITMAP
1F80
39D0
34D0
2F80
A5C0
A6C0
6F40
ENDCHAR
STARTCHAR nine.dnom
ENCODING -1
SWIDTH 360 0
DWIDTH 6 0
BBX 6 7 0 0
BITMAP
1F80
35D0
70D0
75D0
2EC0
0640
3900
ENDCHAR
STARTCHAR glyph550
ENCODING -1
SWIDTH 439 0
DWIDTH 8 0
BBX 6 2 1 5
BITMAP
BFF0
5550
ENDCHAR
STARTCHAR glyph551
ENCODING -1
SWIDTH 333 0
DWIDTH 6 0
BBX 5 6 2 10
BITMAP
0740
0D00
0000
7800
9900
7800
ENDCHAR
STARTCHAR E.c2sc
ENCODING -1
SWIDTH 477 0
DWIDTH 9 0
BBX 9 10 0 0
BITMAP
0FFF80
1E5540
1D0000
2C0000
2FFD00
395400
340000
740000
755400
BFFD00
ENDCHAR
STARTCHAR g.ss01
ENCODING -1
SWIDTH 517 0
DWIDTH 9 0
BBX 11 14 -1 -4
BITMAP
01BFF8
07D7D0
0B01D0
0E01D0
0E02C0
0B9B40
07F900
0E0000
1D0000
0FFE00
395780
B00380
B96F40
2FE800
ENDCHAR
STARTCHAR alpha.ss02
ENCODING -1
SWIDTH 582 0
DWIDTH 10 0
BBX 10 10 0 0
BITMAP
02F8B0
0B9EA0
1D07D0
3803C0
340380
740340
740740
380F40
2D6B80
0BD380
ENDCHAR
STARTCHAR R.ss03
ENCODING -1
SWIDTH 646 0
DWIDTH 12 0
BBX 11 13 0 0
BITMAP
07FF90
0795B4
0B0038
0B002C
0E0038
0E01B0
1FFF80
1D56D0
2C00E0
2C00E0
3800E0
3800E0
7400E0
ENDCHAR
STARTCHAR K.ss04
ENCODING -1
SWIDTH 628 0
DWIDTH 11 0
BBX 12 13 0 0
BITMAP
07401E
074078
0B01F0
0B03C0
0E0F40
0E2D00
1FF800
1E7800
2C2D00
2C0F00
380780
3802D0
7400F0
ENDCHAR
STARTCHAR k.ss04
ENCODING -1
SWIDTH 499 0
DWIDTH 9 0
BBX 9 14 0 0
BITMAP
074000
0B0000
0B0000
0E0000
0E0780
1D0F00
1D2C00
2CB400
2FD000
39E000
34B000
743800
742D00
B00E00
ENDCHAR
STARTCHAR K.ss05
ENCODING -1
SWIDTH 640 0
DWIDTH 12 0
BBX 12 13 0 0
BITMAP
07402D
0740B4
0B03D0
0B0F40
0E7D00
0EF000
1FD000
1DF000
2C7800
2C2D00
380F00
380380
7401E0
ENDCHAR
STARTCHAR k.ss05
ENCODING -1
SWIDTH 497 0
DWIDTH 9 0
BBX 9 14 0 0
BITMAP
074000
0B0000
0B0000
0E0000
0E0B80
1D2E00
1CB800
2EE000
2F8000
3F8000
3AD000
74F000
747800
B01D00
ENDCHAR
STARTCHAR D.c2sc
ENCODING -1
SWIDTH 550 0
DWIDTH 10 0
BBX 9 10 0 0
BITMAP
0FF900
1E5B40
1D0380
2C02C0
2802C0
3802C0
340380
740B00
757D00
BFE000
ENDCHAR
STARTCHAR C.c2sc
ENCODING -1
SWIDTH 548 0
DWIDTH 10 0
BBX 10 10 0 0
BITMAP
01BE00
0B97C0
1D01D0
280040
380000
740000
740140
380740
2E5E00
0BF800
ENDCHAR
STARTCHAR B.c2sc
ENCODING -1
SWIDTH 527 0
DWIDTH 10 0
BBX 9 10 0 0
BITMAP
0FFD00
1E5B40
1C0380
2C0B40
2FFD00
395E00
340700
740B00
756E00
BFE400
ENDCHAR
STARTCHAR A.c2sc
ENCODING -1
SWIDTH 552 0
DWIDTH 10 0
BBX 10 10 -1 0
BITMAP
001E00
002E00
007B00
00E340
02C380
074280
0BFFC0
1D55D0
3800D0
B000E0
ENDCHAR
STARTCHAR glyph564
ENCODING -1
SWIDTH 246 0
DWIDTH 4 0
BBX 3 4 2 10
BITMAP
24
74
B0
B0
ENDCHAR
STARTCHAR glyph565
ENCODING -1
SWIDTH 446 0
DWIDTH 8 0
BBX 6 4 2 11
BITMAP
0C00
0500
61D0
2F80
ENDCHAR
STARTCHAR glyph566
ENCODING -1
SWIDTH 0 0
DWIDTH 0 0
BBX 6 5 -7 11
BITMAP
01D0
0340
0000
2D50
62C0
ENDCHAR
STARTCHAR glyph567
ENCODING -1
SWIDTH 481 0
DWIDTH 9 0
BBX 9 4 2 11
BITMAP
000780
000A00
1F8000
B4A000
ENDCHAR
STARTCHAR glyph568
ENCODING -1
SWIDTH 483 0
DWIDTH 9 0
BBX 8 4 0 11
BITMAP
7400
2400
01F8
0B5E
ENDCHAR
STARTCHAR glyph569
ENCODING -1
SWIDTH 496 0
DWIDTH 9 0
BBX 8 5 2 11
BITMAP
000E
0007
001D
1F80
B4A0
ENDCHAR
STARTCHAR glyph570
ENCODING -1
SWIDTH 484 0
DWIDTH 9 0
BBX 6 5 2 11
BITMAP
1E20
25D0
0000
1F80
B4A0
ENDCHAR
STARTCHAR uni0490.c2sc
ENCODING -1
SWIDTH 451 0
DWIDTH 8 0
BBX 9 13 0 0
BITMAP
000180
000280
000380
0FFF40
1E5500
1D0000
2C0000
280000
380000
340000
740000
700000
B00000
ENDCHAR
STARTCHAR glyph572
ENCODING -1
SWIDTH 443 0
DWIDTH 8 0
BBX 6 5 2 11
BITMAP
0280
0200
0000
61D0
2F80
ENDCHAR
STARTCHAR glyph573
ENCODING -1
SWIDTH 443 0
DWIDTH 8 0
BBX 6 5 2 11
BITMAP
0780
01C0
0600
61D0
2F40
ENDCHAR
STARTCHAR zero.numr
ENCODING -1
SWIDTH 360 0
DWIDTH 6 0
BBX 6 7 1 6
BITMAP
1F80
39D0
70A0
A0D0
A0D0
76C0
2E40
ENDCHAR
STARTCHAR four.numr
ENCODING -1
SWIDTH 360 0
DWIDTH 6 0
BBX 6 7 1 6
BITMAP
02D0
0BC0
1EC0
7280
FFD0
0340
0340
ENDCHAR
STARTCHAR five.numr
ENCODING -1
SWIDTH 360 0
DWIDTH 6 0
BBX 6 7 1 6
BITMAP
1FE0
3800
7F80
11C0
00D0
A6C0
2E40
ENDCHAR
STARTCHAR six.numr
ENCODING -1
SWIDTH 360 0
DWIDTH 6 0
BBX 6 7 1 6
BITMAP
06C0
2D40
7B80
75D0
A0D0
76C0
2F40
ENDCHAR
STARTCHAR seven.numr
ENCODING -1
SWIDTH 360 0
DWIDTH 6 0
BBX 6 7 1 6
BITMAP
7FF0
00E0
02C0
0740
0E00
2C00
7400
ENDCHAR
STARTCHAR eight.numr
ENCODING -1
SWIDTH 360 0
DWIDTH 6 0
BBX 6 7 1 6
BITMAP
1F80
39D0
34D0
2F80
A5C0
A6C0
6F40
ENDCHAR
STARTCHAR nine.numr
ENCODING -1
SWIDTH 360 0
DWIDTH 6 0
BBX 6 7 1 6
BITMAP
1F80
39D0
70D0
75D0
2EC0
0680
3900
ENDCHAR
STARTCHAR C.ss06
ENCODING -1
SWIDTH 672 0
DWIDTH 12 0
BBX 11 13 1 0
BITMAP
00BF80
07E6E0
1E0074
2C0038
780014
740000
B00000
B00000
B00010
B000E0
7802D0
2E5B40
06F900
ENDCHAR
STARTCHAR G.ss06
ENCODING -1
SWIDTH 693 0
DWIDTH 12 0
BBX 11 13 1 0
BITMAP
00BF80
07E6F0
1E0074
2C0028
740000
B00000
B00000
B01FF4
B005B0
B000B0
7800E0
2E5BD0
06FE40
ENDCHAR
STARTCHAR D.ss06
ENCODING -1
SWIDTH 680 0
DWIDTH 12 0
BBX 12 13 0 0
BITMAP
07FE40
0796E0
0B0078
0B002C
0E001D
0E001D
1D001D
1D002C
2C0038
2C00B4
3802E0
396F80
7FF900
ENDCHAR
STARTCHAR O.ss06
ENCODING -1
SWIDTH 717 0
DWIDTH 13 0
BBX 11 13 1 0
BITMAP
00BF80
07E6E0
0F0074
2C0038
38002C
74002C
B0002C
B00038
B00074
7400B0
3802D0
1EAF40
06F900
ENDCHAR
STARTCHAR Q.ss06
ENCODING -1
SWIDTH 718 0
DWIDTH 13 0
BBX 11 15 1 -2
BITMAP
00BF80
07E6E0
0F0074
2C0038
38002C
74002C
B0002C
B00038
B00074
7400B0
3802D0
1E6F40
06FE00
000B80
000280
ENDCHAR
STARTCHAR one.oldstyle.pnum
ENCODING -1
SWIDTH 469 0
DWIDTH 8 0
BBX 6 10 1 0
BITMAP
00A0
1BE0
7ED0
11D0
01C0
02C0
0280
0380
0340
0740
ENDCHAR
STARTCHAR two.oldstyle.pnum
ENCODING -1
SWIDTH 551 0
DWIDTH 10 0
BBX 9 10 0 0
BITMAP
01BE00
0B9B80
1D02C0
180380
000B00
002D00
01E000
0B8000
2E5500
7FFF40
ENDCHAR
STARTCHAR three.oldstyle.pnum
ENCODING -1
SWIDTH 531 0
DWIDTH 10 0
BBX 10 13 -1 -3
BITMAP
07FFF0
0556E0
000780
001E00
007800
00FD00
001B40
000380
000380
000380
000B00
A5BD00
6FE000
ENDCHAR
STARTCHAR four.oldstyle.pnum
ENCODING -1
SWIDTH 587 0
DWIDTH 11 0
BBX 11 13 -1 -3
BITMAP
0000F4
0002F0
000BF0
002DE0
0074D0
01E1D0
0381C0
0E02C0
2D57D0
7FFFF4
000340
000740
000B00
ENDCHAR
STARTCHAR five.oldstyle.pnum
ENCODING -1
SWIDTH 540 0
DWIDTH 10 0
BBX 10 13 0 -3
BITMAP
07FFE0
0BAA90
0E0000
1C0000
2EF800
3E6E00
240B00
000B00
000B00
000F00
002D00
E5B800
6F9000
ENDCHAR
STARTCHAR seven.oldstyle.pnum
ENCODING -1
SWIDTH 511 0
DWIDTH 9 0
BBX 10 13 0 -3
BITMAP
2FFFD0
1556C0
000740
000A00
001D00
003800
00B000
01D000
038000
074000
0E0000
2C0000
740000
ENDCHAR
STARTCHAR glyph592
ENCODING -1
SWIDTH 446 0
DWIDTH 8 0
BBX 6 5 2 11
BITMAP
2D60
22D0
0000
61D0
2F40
ENDCHAR
STARTCHAR glyph593
ENCODING -1
SWIDTH 194 0
DWIDTH 4 0
BBX 3 5 -1 -4
BITMAP
38
38
74
74
B0
ENDCHAR
STARTCHAR OE.c2sc
ENCODING -1
SWIDTH 810 0
DWIDTH 15 0
BBX 14 10 1 0
BITMAP
06FFFFF0
2E579550
78074000
B0070000
E00BFF40
D00A5500
D00E0000
E01D0000
796D5500
1FFFFF40
ENDCHAR
STARTCHAR nine.oldstyle.pnum
ENCODING -1
SWIDTH 577 0
DWIDTH 10 0
BBX 10 13 0 -3
BITMAP
01BE00
079B80
0E02C0
2C01D0
2C01D0
2C01D0
2C02C0
1E5B80
06FB80
000B00
001E00
25B800
6F9000
ENDCHAR
STARTCHAR glyph596
ENCODING -1
SWIDTH 245 0
DWIDTH 4 0
BBX 5 5 -2 -4
BITMAP
0740
0700
0B00
6E00
F800
ENDCHAR
STARTCHAR three.oldstyle
ENCODING -1
SWIDTH 549 0
DWIDTH 10 0
BBX 11 13 -1 -3
BITMAP
03FFF4
0155F0
0002C0
000B00
002C00
007E00
001B80
0002C0
0001C0
0002C0
000740
656E00
6FE400
ENDCHAR
STARTCHAR five.oldstyle
ENCODING -1
SWIDTH 549 0
DWIDTH 10 0
BBX 10 13 0 -3
BITMAP
07FFE0
07AA90
0A0000
0D0000
1EF800
2E6E00
240B00
000740
000740
000B00
001E00
E5B800
6F9000
ENDCHAR
STARTCHAR four.oldstyle
ENCODING -1
SWIDTH 549 0
DWIDTH 10 0
BBX 10 13 -1 -3
BITMAP
0001F0
0003E0
000BE0
002DD0
00B5D0
01D2C0
0742C0
1E0380
3D5790
BFFFF0
000740
000B00
000B00
ENDCHAR
STARTCHAR two.oldstyle
ENCODING -1
SWIDTH 549 0
DWIDTH 10 0
BBX 9 10 0 0
BITMAP
01FE00
0B9B40
1D0380
180380
000B00
007C00
01E000
0B4000
3E5500
BFFF00
ENDCHAR
STARTCHAR seven.oldstyle
ENCODING -1
SWIDTH 549 0
DWIDTH 10 0
BBX 9 13 1 -3
BITMAP
7FFF80
155B40
000A00
001D00
003800
00B000
01D000
038000
074000
0E0000
2C0000
740000
E00000
ENDCHAR
STARTCHAR zero.oldstyle
ENCODING -1
SWIDTH 549 0
DWIDTH 10 0
BBX 10 10 0 0
BITMAP
02FE00
0B9B80
2D01D0
3801D0
7401D0
B001D0
7002C0
740780
2D6E00
0BF400
ENDCHAR
STARTCHAR six.oldstyle
ENCODING -1
SWIDTH 549 0
DWIDTH 10 0
BBX 8 13 1 0
BITMAP
006D
07E4
0E00
2C00
3AF4
7E6D
B40E
E00A
E00A
E00E
B02D
79B8
1BD0
ENDCHAR
STARTCHAR nine.oldstyle
ENCODING -1
SWIDTH 549 0
DWIDTH 10 0
BBX 9 13 0 -3
BITMAP
02FD00
0B9B40
1D02C0
3802C0
3802C0
3802C0
380380
1E6F40
07EB40
000A00
002D00
65B400
7F9000
ENDCHAR
STARTCHAR eight.oldstyle
ENCODING -1
SWIDTH 549 0
DWIDTH 10 0
BBX 10 13 0 0
BITMAP
01BE00
03D780
0B01D0
0E01D0
0E02C0
0B4780
03FD00
1E5F00
380340
740380
740740
3D6E00
0BF400
ENDCHAR
STARTCHAR one.oldstyle
ENCODING -1
SWIDTH 549 0
DWIDTH 10 0
BBX 6 10 2 0
BITMAP
01A0
1BD0
7AD0
41C0
02C0
0380
0340
0740
0700
0B00
ENDCHAR
STARTCHAR glyph607
ENCODING -1
SWIDTH 250 0
DWIDTH 5 0
BBX 6 14 -2 -4
BITMAP
00E0
00E0
01D0
01D0
02C0
02C0
0380
0380
0740
0740
0B00
0B00
6D00
F800
ENDCHAR
STARTCHAR glyph608
ENCODING -1
SWIDTH 249 0
DWIDTH 4 0
BBX 6 14 -2 -4
BITMAP
00E0
00E0
01D0
01D0
02C0
02C0
0380
0380
0740
0740
0B00
0B00
6D00
F800
ENDCHAR
STARTCHAR glyph609
ENCODING -1
SWIDTH 245 0
DWIDTH 4 0
BBX 4 10 0 0
BITMAP
0E
1D
1D
2C
2C
38
38
74
74
B0
ENDCHAR
STARTCHAR glyph610
ENCODING -1
SWIDTH 245 0
DWIDTH 4 0
BBX 5 14 -1 -4
BITMAP
0380
0740
0740
0B00
0B00
0E00
0E00
1D00
1D00
3C00
B400
D000
D400
B800
ENDCHAR
STARTCHAR glyph611
ENCODING -1
SWIDTH 245 0
DWIDTH 4 0
BBX 4 10 0 0
BITMAP
0E
1D
1D
2C
2C
38
38
74
74
B0
ENDCHAR
STARTCHAR germandbls.sc
ENCODING -1
SWIDTH 527 0
DWIDTH 10 0
BBX 9 10 0 0
BITMAP
02F900
0B5B40
1D1E00
2C7400
28F800
385F00
340740
740B00
726E00
B7F400
ENDCHAR
STARTCHAR zero.oldstyle.pnum
ENCODING -1
SWIDTH 611 0
DWIDTH 11 0
BBX 9 10 1 0
BITMAP
06F900
1E5B40
380380
B002C0
E002C0
E00280
E00380
B00B00
796D00
1BE400
ENDCHAR
STARTCHAR seven.pnum
ENCODING -1
SWIDTH 504 0
DWIDTH 9 0
BBX 9 13 1 0
BITMAP
7FFF80
155B40
000E00
002C00
003400
00B000
01D000
038000
070000
0E0000
2C0000
740000
A00000
ENDCHAR
STARTCHAR b.ss06
ENCODING -1
SWIDTH 549 0
DWIDTH 10 0
BBX 9 14 0 0
BITMAP
070000
0B0000
0A0000
0E0000
0DBE00
1F9B80
1D02C0
2C02C0
2801C0
3802C0
340380
780B40
7E6E00
A6F800
ENDCHAR
STARTCHAR c.ss06
ENCODING -1
SWIDTH 513 0
DWIDTH 9 0
BBX 9 10 0 0
BITMAP
01F900
0B9B40
1D0280
380140
380000
740000
740100
380B00
2E6D00
0BE400
ENDCHAR
STARTCHAR d.ss06
ENCODING -1
SWIDTH 559 0
DWIDTH 10 0
BBX 10 14 0 0
BITMAP
0000B0
0000B0
0000E0
0000E0
02F9D0
0B9BD0
2D02C0
3802C0
740380
740380
740740
380B40
2E6F00
0BEB00
ENDCHAR
STARTCHAR g.ss06
ENCODING -1
SWIDTH 556 0
DWIDTH 10 0
BBX 10 14 0 -4
BITMAP
02F8D0
0B9BD0
2D02C0
3802C0
740380
740380
740740
380B40
2E6F00
0BEB00
000E00
001D00
65B800
2FD000
ENDCHAR
STARTCHAR o.ss06
ENCODING -1
SWIDTH 564 0
DWIDTH 10 0
BBX 10 10 0 0
BITMAP
01FD00
0B9B40
1D02C0
3801D0
7401D0
7402C0
740280
380740
2E6E00
07E400
ENDCHAR
STARTCHAR p.ss06
ENCODING -1
SWIDTH 556 0
DWIDTH 10 0
BBX 10 14 -1 -4
BITMAP
036F80
07E6D0
0740F0
0B00B0
0A00B0
0E00B0
0D00E0
1D02D0
1F5B80
2DBE00
280000
380000
340000
740000
ENDCHAR
STARTCHAR q.ss06
ENCODING -1
SWIDTH 563 0
DWIDTH 10 0
BBX 10 14 0 -4
BITMAP
02F9D0
0B9BD0
1D02C0
3802C0
740380
740380
740740
380B40
2E6F00
0BEB00
000A00
000E00
000D00
001D00
ENDCHAR
STARTCHAR e.ss07
ENCODING -1
SWIDTH 518 0
DWIDTH 9 0
BBX 9 10 0 0
BITMAP
01FD00
0B9B40
1D0380
380280
3FFF80
795540
740000
380000
1E5900
07F800
ENDCHAR
STARTCHAR g.ss07
ENCODING -1
SWIDTH 549 0
DWIDTH 10 0
BBX 10 14 0 -4
BITMAP
02F9D0
0F9BC0
2D03C0
380280
340380
740340
740740
380B00
2E6F00
0BDA00
000E00
002D00
65B800
6F9000
ENDCHAR
STARTCHAR one.pnum
ENCODING -1
SWIDTH 425 0
DWIDTH 8 0
BBX 6 13 1 0
BITMAP
00A0
1BE0
7AD0
41D0
02C0
02C0
0380
0380
0740
0740
0B00
0B00
0E00
ENDCHAR
STARTCHAR ampersand.c2sc
ENCODING -1
SWIDTH 591 0
DWIDTH 11 0
BBX 10 10 0 0
BITMAP
02F800
0B6D00
0A1D00
0B7800
03E040
1FE1D0
7876C0
702F40
796F00
1FE780
ENDCHAR
STARTCHAR Lslash.c2sc
ENCODING -1
SWIDTH 454 0
DWIDTH 8 0
BBX 7 10 0 0
BITMAP
0E00
1D00
1C00
2D90
BE40
B800
3400
7400
7554
BFFC
ENDCHAR
STARTCHAR AE.c2sc
ENCODING -1
SWIDTH 759 0
DWIDTH 14 0
BBX 15 10 -1 0
BITMAP
0002FFF4
000BE550
001DD000
0039D000
00A1FFC0
02C2D540
07FFC000
0E578000
2C039540
B403FFC0
ENDCHAR
STARTCHAR Thorn.c2sc
ENCODING -1
SWIDTH 486 0
DWIDTH 9 0
BBX 8 10 0 0
BITMAP
0E00
1D00
1FF8
2D6E
2C0B
380B
381E
7FF8
7540
B000
ENDCHAR
STARTCHAR Oslash.c2sc
ENCODING -1
SWIDTH 578 0
DWIDTH 10 0
BBX 10 12 0 -1
BITMAP
000010
01BEA0
0B97C0
1D07D0
381DE0
3434E0
74D1D0
7682C0
3E0380
2E6F00
7BF800
400000
ENDCHAR
STARTCHAR Hbar.c2sc
ENCODING -1
SWIDTH 597 0
DWIDTH 11 0
BBX 11 10 0 0
BITMAP
0D0074
3FFFF8
2D55F4
2C00E0
2FFFD0
3956D0
3401C0
7402C0
700280
B00380
ENDCHAR
STARTCHAR Eng.c2sc
ENCODING -1
SWIDTH 597 0
DWIDTH 11 0
BBX 11 14 0 -4
BITMAP
0E0074
1F40B0
1F80B0
2DD0E0
28B0E0
3875D0
342DD0
741FC0
700BC0
B00780
000380
000740
005F00
00B900
ENDCHAR
STARTCHAR Dcroat.c2sc
ENCODING -1
SWIDTH 550 0
DWIDTH 10 0
BBX 10 10 -1 0
BITMAP
03FE40
0796D0
0740E0
0B00B0
BFF0B0
5F50B0
0D00E0
1D02C0
1D5F40
2FF800
ENDCHAR
STARTCHAR Eth.c2sc
ENCODING -1
SWIDTH 550 0
DWIDTH 10 0
BBX 10 10 -1 0
BITMAP
03FE40
0796D0
0740E0
0B00B0
BFF0B0
5F50B0
0D00E0
1D02C0
1D5F40
2FF800
ENDCHAR
STARTCHAR Tbar.c2sc
ENCODING -1
SWIDTH 507 0
DWIDTH 9 0
BBX 9 10 1 0
BITMAP
FFFF40
56D500
038000
3FF400
1B9000
074000
0B0000
0B0000
0E0000
0D0000
ENDCHAR
STARTCHAR Agrave.c2sc
ENCODING -1
SWIDTH 552 0
DWIDTH 10 0
BBX 10 14 -1 0
BITMAP
003C00
001D00
000A00
000000
001E00
002E00
007B00
00E340
02C380
074280
0BFFC0
1D55D0
3800D0
B000E0
ENDCHAR
STARTCHAR Aacute.c2sc
ENCODING -1
SWIDTH 552 0
DWIDTH 10 0
BBX 10 14 -1 0
BITMAP
0001E0
000780
000A00
000000
001E00
002E00
007B00
00E340
02C380
074280
0BFFC0
1D55D0
3800D0
B000E0
ENDCHAR
STARTCHAR Acircumflex.c2sc
ENCODING -1
SWIDTH 552 0
DWIDTH 10 0
BBX 10 14 -1 0
BITMAP
000B40
002DD0
00B4E0
000000
001E00
002E00
007B00
00E340
02C380
074280
0BFFC0
1D55D0
3800D0
B000E0
ENDCHAR
STARTCHAR Atilde.c2sc
ENCODING -1
SWIDTH 552 0
DWIDTH 10 0
BBX 10 14 -1 0
BITMAP
000010
007E70
00D2D0
000000
001E00
002E00
007B00
00E340
02C380
074280
0BFFC0
1D55D0
3800D0
B000E0
ENDCHAR
STARTCHAR Adieresis.c2sc
ENCODING -1
SWIDTH 552 0
DWIDTH 10 0
BBX 10 13 -1 0
BITMAP
0060A0
0070A0
000000
001E00
002E00
007B00
00E340
02C380
074280
0BFFC0
1D55D0
3800D0
B000E0
ENDCHAR
STARTCHAR Aring.c2sc
ENCODING -1
SWIDTH 552 0
DWIDTH 10 0
BBX 10 15 -1 0
BITMAP
000B40
0018C0
0014C0
000B40
000000
001E00
002E00
007B00
00E340
02C380
074280
0BFFC0
1D55D0
3800D0
B000E0
ENDCHAR
STARTCHAR Aringacute.c2sc
ENCODING -1
SWIDTH 552 0
DWIDTH 10 0
BBX 10 16 -1 0
BITMAP
0000E0
000280
000000
000F00
001640
000E00
001E00
002E00
007B00
00E340
02C380
074280
0BFFC0
1D55D0
3800D0
B000E0
ENDCHAR
STARTCHAR Ccedilla.c2sc
ENCODING -1
SWIDTH 548 0
DWIDTH 10 0
BBX 10 14 0 -4
BITMAP
01BE00
0B97C0
1D01D0
280040
380000
740000
740140
380740
2E5E00
0BF800
028000
01D000
00D000
078000
ENDCHAR
STARTCHAR Egrave.c2sc
ENCODING -1
SWIDTH 477 0
DWIDTH 9 0
BBX 9 14 0 0
BITMAP
01D000
00B000
003400
000000
0FFF80
1E5540
1D0000
2C0000
2FFD00
395400
340000
740000
755400
BFFD00
ENDCHAR
STARTCHAR Eacute.c2sc
ENCODING -1
SWIDTH 477 0
DWIDTH 9 0
BBX 9 14 0 0
BITMAP
000B40
002D00
002800
000000
0FFF80
1E5540
1D0000
2C0000
2FFD00
395400
340000
740000
755400
BFFD00
ENDCHAR
STARTCHAR Ecircumflex.c2sc
ENCODING -1
SWIDTH 477 0
DWIDTH 9 0
BBX 9 14 0 0
BITMAP
007800
01EA00
038740
000000
0FFF80
1E5540
1D0000
2C0000
2FFD00
395400
340000
740000
755400
BFFD00
ENDCHAR
STARTCHAR Edieresis.c2sc
ENCODING -1
SWIDTH 477 0
DWIDTH 9 0
BBX 9 13 0 0
BITMAP
028240
028740
000000
0FFF80
1E5540
1D0000
2C0000
2FFD00
395400
340000
740000
755400
BFFD00
ENDCHAR
STARTCHAR Igrave.c2sc
ENCODING -1
SWIDTH 235 0
DWIDTH 4 0
BBX 4 14 0 0
BITMAP
2C
1D
0A
00
0E
0D
1D
1C
2C
38
38
74
74
B0
ENDCHAR
STARTCHAR Iacute.c2sc
ENCODING -1
SWIDTH 235 0
DWIDTH 4 0
BBX 6 14 0 0
BITMAP
01E0
03C0
0700
0000
0E00
0D00
1D00
1C00
2C00
3800
3800
7400
7400
B000
ENDCHAR
STARTCHAR Icircumflex.c2sc
ENCODING -1
SWIDTH 235 0
DWIDTH 4 0
BBX 6 14 0 0
BITMAP
0B40
2DD0
74A0
0000
0E00
0D00
1D00
1C00
2C00
3800
3800
7400
7400
B000
ENDCHAR
STARTCHAR Idieresis.c2sc
ENCODING -1
SWIDTH 235 0
DWIDTH 4 0
BBX 6 13 0 0
BITMAP
6460
74A0
0000
0E00
0D00
1D00
1C00
2C00
3800
3800
7400
7400
B000
ENDCHAR
STARTCHAR Ntilde.c2sc
ENCODING -1
SWIDTH 597 0
DWIDTH 11 0
BBX 11 14 0 0
BITMAP
001010
00F9A0
028780
000000
0E0074
1F40B0
1F80B0
2DD0E0
28B0E0
3875D0
342DD0
741FC0
700BC0
B00780
ENDCHAR
STARTCHAR Ograve.c2sc
ENCODING -1
SWIDTH 578 0
DWIDTH 10 0
BBX 10 14 0 0
BITMAP
00B000
003800
001800
000000
01BE00
0B97C0
1D01D0
2800E0
3800E0
7401D0
7401D0
380380
1E6F00
07F800
ENDCHAR
STARTCHAR Oacute.c2sc
ENCODING -1
SWIDTH 578 0
DWIDTH 10 0
BBX 10 14 0 0
BITMAP
000380
000F00
001D00
000000
01BE00
0B97C0
1D01D0
2800E0
3800E0
7401D0
7401D0
380380
1E6F00
07F800
ENDCHAR
STARTCHAR Ocircumflex.c2sc
ENCODING -1
SWIDTH 578 0
DWIDTH 10 0
BBX 10 14 0 0
BITMAP
002D00
00B740
01D280
000000
01BE00
0B97C0
1D01D0
2800E0
3800E0
7401D0
7401D0
380380
1E6F00
07F800
ENDCHAR
STARTCHAR Otilde.c2sc
ENCODING -1
SWIDTH 578 0
DWIDTH 10 0
BBX 10 14 0 0
BITMAP
000040
01F9D0
028B80
000000
01BE00
0B97C0
1D01D0
2800E0
3800E0
7401D0
7401D0
380380
1E6F00
07F800
ENDCHAR
STARTCHAR Odieresis.c2sc
ENCODING -1
SWIDTH 578 0
DWIDTH 10 0
BBX 10 13 0 0
BITMAP
009180
01D2C0
000000
01BE00
0B97C0
1D01D0
2800E0
3800E0
7401D0
7401D0
380380
1E6F00
07F800
ENDCHAR
STARTCHAR Ugrave.c2sc
ENCODING -1
SWIDTH 548 0
DWIDTH 10 0
BBX 10 14 0 0
BITMAP
00E000
007400
002400
000000
0D00E0
1D00E0
2C01D0
2C01C0
3802C0
380280
740380
740740
2E6E00
0BE400
ENDCHAR
STARTCHAR Uacute.c2sc
ENCODING -1
SWIDTH 548 0
DWIDTH 10 0
BBX 10 14 0 0
BITMAP
000780
001E00
002800
000000
0D00E0
1D00E0
2C01D0
2C01C0
3802C0
380280
740380
740740
2E6E00
0BE400
ENDCHAR
STARTCHAR Ucircumflex.c2sc
ENCODING -1
SWIDTH 548 0
DWIDTH 10 0
BBX 10 14 0 0
BITMAP
002D00
00FB40
02C380
000000
0D00E0
1D00E0
2C01D0
2C01C0
3802C0
380280
740380
740740
2E6E00
0BE400
ENDCHAR
STARTCHAR Udieresis.c2sc
ENCODING -1
SWIDTH 548 0
DWIDTH 10 0
BBX 10 13 0 0
BITMAP
018280
01C280
000000
0D00E0
1D00E0
2C01D0
2C01C0
3802C0
380280
740380
740740
2E6E00
0BE400
ENDCHAR
STARTCHAR Yacute.c2sc
ENCODING -1
SWIDTH 510 0
DWIDTH 9 0
BBX 9 14 1 0
BITMAP
002D00
00B400
009000
000000
B00780
740E00
382C00
2C7400
1EE000
0F8000
0B0000
0B0000
0E0000
0D0000
ENDCHAR
STARTCHAR Amacron.c2sc
ENCODING -1
SWIDTH 552 0
DWIDTH 10 0
BBX 10 14 -1 0
BITMAP
001550
00BFF0
000000
000000
001E00
002E00
007B00
00E340
02C380
074280
0BFFC0
1D55D0
3800D0
B000E0
ENDCHAR
STARTCHAR Abreve.c2sc
ENCODING -1
SWIDTH 552 0
DWIDTH 10 0
BBX 10 13 -1 0
BITMAP
0034A0
001F80
000000
001E00
002E00
007B00
00E340
02C380
074280
0BFFC0
1D55D0
3800D0
B000E0
ENDCHAR
STARTCHAR Aogonek.c2sc
ENCODING -1
SWIDTH 552 0
DWIDTH 10 0
BBX 10 14 -1 -4
BITMAP
001E00
002E00
007B00
00E340
02C380
074280
0BFFC0
1D55D0
3800D0
B000E0
000280
000700
000B40
0007C0
ENDCHAR
STARTCHAR Cacute.c2sc
ENCODING -1
SWIDTH 548 0
DWIDTH 10 0
BBX 10 14 0 0
BITMAP
000780
000E00
002800
000000
01BE00
0B97C0
1D01D0
280040
380000
740000
740140
380740
2E5E00
0BF800
ENDCHAR
STARTCHAR Ccircumflex.c2sc
ENCODING -1
SWIDTH 548 0
DWIDTH 10 0
BBX 10 14 0 0
BITMAP
002D00
00B740
02D380
000000
01BE00
0B97C0
1D01D0
280040
380000
740000
740140
380740
2E5E00
0BF800
ENDCHAR
STARTCHAR Cdotaccent.c2sc
ENCODING -1
SWIDTH 548 0
DWIDTH 10 0
BBX 10 13 0 0
BITMAP
001800
002C00
000000
01BE00
0B97C0
1D01D0
280040
380000
740000
740140
380740
2E5E00
0BF800
ENDCHAR
STARTCHAR Ccaron.c2sc
ENCODING -1
SWIDTH 548 0
DWIDTH 10 0
BBX 10 14 0 0
BITMAP
00D280
007B00
002C00
000000
01BE00
0B97C0
1D01D0
280040
380000
740000
740140
380740
2E5E00
0BF800
ENDCHAR
STARTCHAR Dcaron.c2sc
ENCODING -1
SWIDTH 550 0
DWIDTH 10 0
BBX 9 14 0 0
BITMAP
028700
00ED00
007400
000000
0FF900
1E5B40
1D0380
2C02C0
2802C0
3802C0
340380
740B00
757D00
BFE000
ENDCHAR
STARTCHAR Emacron.c2sc
ENCODING -1
SWIDTH 477 0
DWIDTH 9 0
BBX 9 14 0 0
BITMAP
015540
03FF80
000000
000000
0FFF80
1E5540
1D0000
2C0000
2FFD00
395400
340000
740000
755400
BFFD00
ENDCHAR
STARTCHAR Ebreve.c2sc
ENCODING -1
SWIDTH 477 0
DWIDTH 9 0
BBX 9 13 0 0
BITMAP
028740
00BE00
000000
0FFF80
1E5540
1D0000
2C0000
2FFD00
395400
340000
740000
755400
BFFD00
ENDCHAR
STARTCHAR Edotaccent.c2sc
ENCODING -1
SWIDTH 477 0
DWIDTH 9 0
BBX 9 13 0 0
BITMAP
002400
003400
000000
0FFF80
1E5540
1D0000
2C0000
2FFD00
395400
340000
740000
755400
BFFD00
ENDCHAR
STARTCHAR Eogonek.c2sc
ENCODING -1
SWIDTH 477 0
DWIDTH 9 0
BBX 9 14 0 -4
BITMAP
0FFF80
1E5540
1D0000
2C0000
2FFD00
395400
340000
740000
755400
BFFD00
00B000
01D000
01D000
00F400
ENDCHAR
STARTCHAR Ecaron.c2sc
ENCODING -1
SWIDTH 477 0
DWIDTH 9 0
BBX 9 14 0 0
BITMAP
01C740
00AD00
003800
000000
0FFF80
1E5540
1D0000
2C0000
2FFD00
395400
340000
740000
755400
BFFD00
ENDCHAR
STARTCHAR Gcircumflex.c2sc
ENCODING -1
SWIDTH 571 0
DWIDTH 10 0
BBX 10 14 0 0
BITMAP
002D00
00B740
02D380
000000
01BE00
0B97C0
1D01D0
2C0000
380000
743FC0
7416C0
380380
1E5B80
06F900
ENDCHAR
STARTCHAR Gbreve.c2sc
ENCODING -1
SWIDTH 571 0
DWIDTH 10 0
BBX 10 13 0 0
BITMAP
00D280
007E00
000000
01BE00
0B97C0
1D01D0
2C0000
380000
743FC0
7416C0
380380
1E5B80
06F900
ENDCHAR
STARTCHAR Gdotaccent.c2sc
ENCODING -1
SWIDTH 571 0
DWIDTH 10 0
BBX 10 13 0 0
BITMAP
001800
002C00
000000
01BE00
0B97C0
1D01D0
2C0000
380000
743FC0
7416C0
380380
1E5B80
06F900
ENDCHAR
STARTCHAR uni0122.c2sc
ENCODING -1
SWIDTH 571 0
DWIDTH 10 0
BBX 10 15 0 -5
BITMAP
01BE00
0B97C0
1D01D0
2C0000
380000
743FC0
7416C0
380380
1E5B80
06F900
000000
038000
034000
0B0000
090000
ENDCHAR
STARTCHAR Hcircumflex.c2sc
ENCODING -1
SWIDTH 597 0
DWIDTH 11 0
BBX 11 14 0 0
BITMAP
001E00
00B740
01D2C0
000000
0E0074
1D00B0
1C00B0
2C00E0
2FFFE0
3956D0
3401D0
7402C0
7002C0
B00380
ENDCHAR
STARTCHAR Itilde.c2sc
ENCODING -1
SWIDTH 235 0
DWIDTH 4 0
BBX 7 14 0 0
BITMAP
0010
7E74
A2E0
0000
0E00
0D00
1D00
1C00
2C00
3800
3800
7400
7400
B000
ENDCHAR
STARTCHAR Imacron.c2sc
ENCODING -1
SWIDTH 235 0
DWIDTH 4 0
BBX 7 14 0 0
BITMAP
1550
BFF4
0000
0000
0E00
0D00
1D00
1C00
2C00
3800
3800
7400
7400
B000
ENDCHAR
STARTCHAR Ibreve.c2sc
ENCODING -1
SWIDTH 235 0
DWIDTH 4 0
BBX 6 13 0 0
BITMAP
34A0
1F90
0000
0E00
0D00
1D00
1C00
2C00
3800
3800
7400
7400
B000
ENDCHAR
STARTCHAR Iogonek.c2sc
ENCODING -1
SWIDTH 235 0
DWIDTH 4 0
BBX 5 14 -1 -4
BITMAP
0380
0340
0740
0700
0B00
0E00
0E00
1D00
1D00
3C00
B400
D000
D400
B800
ENDCHAR
STARTCHAR Idotaccent.c2sc
ENCODING -1
SWIDTH 235 0
DWIDTH 4 0
BBX 4 13 0 0
BITMAP
06
07
00
0E
0D
1D
1C
2C
38
38
74
74
B0
ENDCHAR
STARTCHAR Jcircumflex.c2sc
ENCODING -1
SWIDTH 466 0
DWIDTH 8 0
BBX 10 14 0 0
BITMAP
000780
002DD0
0074B0
000000
000B00
000B00
000E00
000D00
001D00
001C00
002C00
E03800
B5B400
2F9000
ENDCHAR
STARTCHAR uni0136.c2sc
ENCODING -1
SWIDTH 529 0
DWIDTH 10 0
BBX 10 15 0 -5
BITMAP
0E02E0
1D0B40
1D2D00
2CB400
2FD000
3FE000
387400
742C00
701E00
B00B40
000000
070000
0B0000
0E0000
180000
ENDCHAR
STARTCHAR Lacute.c2sc
ENCODING -1
SWIDTH 454 0
DWIDTH 8 0
BBX 7 14 0 0
BITMAP
01E0
0380
0A00
0000
0E00
1D00
1D00
2C00
2800
3800
3400
7400
7554
BFFC
ENDCHAR
STARTCHAR uni013B.c2sc
ENCODING -1
SWIDTH 454 0
DWIDTH 8 0
BBX 7 15 0 -5
BITMAP
0E00
1D00
1D00
2C00
2800
3800
3400
7400
7554
BFFC
0000
0700
0B00
0E00
1800
ENDCHAR
STARTCHAR Lcaron.c2sc
ENCODING -1
SWIDTH 454 0
DWIDTH 8 0
BBX 7 10 0 0
BITMAP
0E2C
1D28
1D74
2C60
2800
3800
3400
7400
7554
BFFC
ENDCHAR
STARTCHAR Ldot.c2sc
ENCODING -1
SWIDTH 454 0
DWIDTH 8 0
BBX 7 10 0 0
BITMAP
0E00
1D00
1D00
2C60
2870
3800
3400
7400
7554
BFFC
ENDCHAR
STARTCHAR Nacute.c2sc
ENCODING -1
SWIDTH 597 0
DWIDTH 11 0
BBX 11 14 0 0
BITMAP
0003C0
000B40
001D00
000000
0E0074
1F40B0
1F80B0
2DD0E0
28B0E0
3875D0
342DD0
741FC0
700BC0
B00780
ENDCHAR
STARTCHAR uni0145.c2sc
ENCODING -1
SWIDTH 597 0
DWIDTH 11 0
BBX 11 15 0 -5
BITMAP
0E0074
1F40B0
1F80B0
2DD0E0
28B0E0
3875D0
342DD0
741FC0
700BC0
B00780
000000
02C000
038000
074000
060000
ENDCHAR
STARTCHAR Ncaron.c2sc
ENCODING -1
SWIDTH 597 0
DWIDTH 11 0
BBX 11 14 0 0
BITMAP
00A1C0
003B40
001D00
000000
0E0074
1F40B0
1F80B0
2DD0E0
28B0E0
3875D0
342DD0
741FC0
700BC0
B00780
ENDCHAR
STARTCHAR Omacron.c2sc
ENCODING -1
SWIDTH 578 0
DWIDTH 10 0
BBX 10 14 0 0
BITMAP
005540
01FFD0
000000
000000
01BE00
0B97C0
1D01D0
2800E0
3800E0
7401D0
7401D0
380380
1E6F00
07F800
ENDCHAR
STARTCHAR Obreve.c2sc
ENCODING -1
SWIDTH 578 0
DWIDTH 10 0
BBX 10 13 0 0
BITMAP
00D2C0
007E40
000000
01BE00
0B97C0
1D01D0
2800E0
3800E0
7401D0
7401D0
380380
1E6F00
07F800
ENDCHAR
STARTCHAR Ohungarumlaut.c2sc
ENCODING -1
SWIDTH 578 0
DWIDTH 10 0
BBX 11 14 0 0
BITMAP
001DB4
007AD0
00A740
000000
01BE00
0B97C0
1D01D0
2800E0
3800E0
7401D0
7401D0
380380
1E6F00
07F800
ENDCHAR
STARTCHAR Racute.c2sc
ENCODING -1
SWIDTH 524 0
DWIDTH 9 0
BBX 9 14 0 0
BITMAP
000B40
002D00
007400
000000
0FFD00
1E5B80
1D02C0
2C0280
2C0B40
3FFD00
397800
742C00
700E00
B00B00
ENDCHAR
STARTCHAR uni0156.c2sc
ENCODING -1
SWIDTH 524 0
DWIDTH 9 0
BBX 9 15 0 -5
BITMAP
0FFD00
1E5B80
1D02C0
2C0280
2C0B40
3FFD00
397800
742C00
700E00
B00B00
000000
070000
0B0000
0D0000
180000
ENDCHAR
STARTCHAR Rcaron.c2sc
ENCODING -1
SWIDTH 524 0
DWIDTH 9 0
BBX 9 14 0 0
BITMAP
028740
00ED00
007400
000000
0FFD00
1E5B80
1D02C0
2C0280
2C0B40
3FFD00
397800
742C00
700E00
B00B00
ENDCHAR
STARTCHAR Sacute.c2sc
ENCODING -1
SWIDTH 504 0
DWIDTH 9 0
BBX 9 14 0 0
BITMAP
000B40
001D00
002800
000000
06F900
1E5B40
2C0380
2D0000
0BE000
01BD00
500B00
B00B00
796E00
1BE400
ENDCHAR
STARTCHAR Scircumflex.c2sc
ENCODING -1
SWIDTH 504 0
DWIDTH 9 0
BBX 9 14 0 0
BITMAP
007C00
01EA00
038740
000000
06F900
1E5B40
2C0380
2D0000
0BE000
01BD00
500B00
B00B00
796E00
1BE400
ENDCHAR
ENDFONT
